<svg xmlns="http://www.w3.org/2000/svg" xmlns:xlink="http://www.w3.org/1999/xlink" width="550" height="550"><svg xmlns="http://www.w3.org/2000/svg" xmlns:xlink="http://www.w3.org/1999/xlink" width="550" height="550" viewBox="0 0 1200 1600"><defs><path id="a" fill="#000" d="M22.824 0 172 23.349 152.577 168.64s-27.805 20.04-78.018 18.52C24.346 185.64 0 155.2 0 155.2L22.824 0Z" class="color000 svgShape"/><path id="c" fill="#000" d="M146.413.468 0 23.384 19.063 165.98s27.29 19.67 76.573 18.18c49.284-1.49 73.178-31.363 73.178-31.363L146.413.468Z" class="color000 svgShape"/><path id="e" fill="#000" d="M43.848 4.067c5.2-2.8 10.5-3.167 12.5-3 4 13.333 13.2 47 18 75 4.8 28 47.666 60.334 68.5 73 15.5-10.833 50.5-38.3 66.5-61.5 16-23.2 20-67.333 20-86.5 1.5 0 8-2.4 14 0s26.833 14.333 37.5 18.5c-14.5 22.5-17.5 54.5-17.5 74.5 0 25 13.5 95.5 10.5 109s7 98 7 128.5 12.5 78.5 0 87.5-82.5 5-105.5 0-90.5 0-101.5 5-52-9-66-5-5-19-5-30-4-40.5 0-67c3.2-21.2 4.166-87.667 4.5-118.501 4.333-15.5 13.7-57.299 14.5-98.499.8-41.2-4.667-74.166-7.5-85.5 7.666-4 24.3-12.7 29.5-15.5Z" class="color000 svgShape"/><path id="g" fill="#000" d="M12.5 3c3-1.5 6.667-2.333 9-3 4.5 17.333 13 60.1 11 92.5s-12.833 76.833-18 95c-.667-2.333-2-7.8-2-11 0-4-1.5-71-1.5-96s-5.5-57-11-70C1.5 8 8 5.25 12.5 3Z" class="color000 svgShape"/><path id="i" fill="#000" d="M21.074 3.038C18.036 1.519 14.323.675 11.961 0 7.404 17.552-1.204 60.86.822 93.669c2.025 32.81 12.995 77.805 18.227 96.201.675-2.362 2.025-7.898 2.025-11.139 0-4.05 1.519-71.897 1.519-97.213 0-25.316 5.57-57.721 11.139-70.885-1.519-2.532-8.101-5.317-12.658-7.595Z" class="color000 svgShape"/><path id="k" fill="#000" d="M32.059 82.139c-10.8-24.4-12.001-64.5-7.501-81.5-10.5-2.499-20.833 3-22 5-4.499 15.001-3 59.501 4.001 78.001C19.443 117.686 56.5 150.5 90.058 170.5l19.442-14C95 145 42.859 106.539 32.059 82.139Z" class="color000 svgShape"/><path id="m" fill="#000" d="M58 82.139c10.8-24.4 12.001-64.5 7.501-81.5 10.5-2.499 20.833 3 22 5C92 20.64 90.5 65.14 83.5 83.64c-12.884 34.046-46.833 62.999-64 72.999l-19.5-15c14.833-9.666 47.2-35.1 58-59.5Z" class="color000 svgShape"/><path id="o" fill="#000" d="M.5 32.5C.5 14.551 15.051 0 33 0h24c17.949 0 32.5 14.551 32.5 32.5C89.5 50.449 74.949 65 57 65H33C15.051 65 .5 50.449.5 32.5Z" class="color000 svgShape"/></defs><g fill="#000" fill-rule="evenodd"><g class="color000 svgShape" transform="translate(339.5 961)"><ellipse cx="208.943" cy="41.938" fill="#092978" fill-rule="nonzero" class="color092978 svgShape" rx="88.535" ry="41.938"/><path fill="#f8ccbe" fill-rule="nonzero" d="M264.115 20.704c18.39-3.802 36.379 8.022 40.18 26.41 6.25 30.22 9.275 102.415 9.058 190.515l-.007 2.675c-.27 84.536-3.547 164-8.687 200.002-2.654 18.589-19.875 31.507-38.464 28.852-18.59-2.654-31.508-19.875-28.853-38.464 10.123-70.904 10.997-313.385.679-368.206l-.316-1.603c-3.803-18.389 8.022-36.378 26.41-40.18zM112.828 42.308c3.802-18.389 21.791-30.213 40.18-26.41 18.205 3.764 29.976 21.433 26.52 39.628l-.11.552c-10.544 50.994-9.876 294.067.06 368.415l.304 2.201c2.654 18.59-10.264 35.81-28.853 38.464-18.59 2.655-35.81-10.263-38.464-28.852-5.14-36-8.417-115.645-8.687-200.406l-.013-5.353c-.15-87.116 2.877-158.325 9.063-188.24z" class="colorF8CCBE svgShape"/><path fill="#092978" fill-rule="nonzero" d="M71.324 11 219.5 30.849l-18.423 148.79s-27.805 20.04-78.018 18.52C72.846 196.64 48.5 166.2 48.5 166.2L71.324 11Z" class="color092978 svgShape"/><g class="color000 svgShape" transform="translate(48.5 11)"><mask id="b" fill="#fff"><use xlink:href="#a"/></mask><g fill-rule="nonzero" class="color000 svgShape" mask="url(#b)"><g class="color000 svgShape"><path fill="#fff" d="M76 156.85c-34.8-1.2-72.167-15.168-78-23.501l-13 23.501c15.833 11.33 53.4 35.3 77 40.5 23.6 5.2 73.5-13.5 95.5-23.5v-23.501c-17.333 4.166-46.7 7.701-81.5 6.501Z" class="colorFFF svgShape"/><path fill="#fff" d="m22.499 102.079-1.602-53.048-29.885 43.858-50.946-14.867 32.477 41.974-29.884 43.86 50.508-18.116 27.355 28.08 2.506-38.79 50.42-18.083-50.949-14.868Zm-25.644 7.1L8.205 92.52l.609 20.149 19.347 5.645-18.51 6.64-1.07 16.547-11.668-11.977-18.423 6.606 11.35-16.656-12.336-15.943 19.351 5.647Z" class="colorFFF svgShape"/><path d="m-38.966 149.993 34.465-12.36 19.512 20.024 1.789-27.665 34.465-12.361-35.15-10.257-1.105-36.598-20.618 30.258-35.148-10.258 22.407 28.958-20.617 30.26Zm36.697-39.651L7.757 95.627l.538 17.797 5.579 1.63 11.512 3.358-16.231 5.824-.967 14.955-10.548-10.825-16.131 5.784 10.026-14.713-10.897-14.084 17.093 4.989Z" class="color000 svgShape"/><path d="M77 165.85c-39.499-1.5-68.833-18.001-79-27.001-3-.834-7.7-.1-2.5 9.5C2 160.35 46.501 176.85 77 176.85c24.56 0 64.667-7 82.5-12.5v-10.501c-11.333 4.001-43.728 13.471-82.5 12.001Z" class="color000 svgShape"/></g></g></g><path fill="#074099" fill-rule="nonzero" d="m345.913 12.468-145.432 19.48 18.082 146.032s27.29 19.67 76.573 18.18c49.284-1.49 73.178-31.363 73.178-31.363l-22.4-152.33Z" class="color074099 svgShape"/><g class="color000 svgShape" transform="translate(199.5 12)"><mask id="d" fill="#fff"><use xlink:href="#c"/></mask><g fill-rule="nonzero" class="color000 svgShape" mask="url(#d)"><g class="color000 svgShape"><path fill="#fff" d="M94.222 154.41c34.156-1.175 70.83-14.883 76.556-23.062l12.759 23.062c-15.54 11.13-52.724 24.73-75.887 29.83-23.163 5.11-71.826-3.33-93.418-13.14v-23.067c17.012 4.089 45.835 7.557 79.99 6.377Z" class="colorFFF svgShape"/><path fill="#fff" d="m177.687 91.486-29.502-43.298-1.582 52.371-50.298 14.678 49.781 17.854 2.475 38.279 26.993-27.709 49.87 17.885-29.503-43.299 32.062-41.438-50.296 14.677Zm-17.398 19.663.588-19.472 10.969 16.098 18.698-5.457-11.92 15.407 10.968 16.096-17.784-6.377-11.308 11.605-1.036-16.034-17.873-6.411 18.698-5.455Z" class="colorFFF svgShape"/><path d="M174.316 99.63 154.08 69.933l-1.084 35.921-34.498 10.068 33.826 12.132 1.757 27.153 19.15-19.655 33.826 12.132-20.235-29.697 21.991-28.421-34.498 10.066Zm-13.499 12.275.517-17.119 9.646 14.153 16.44-4.799-10.48 13.546 9.641 14.154-15.491-5.555-10.187 10.455-.932-14.443-15.597-5.595 16.443-4.797Z" class="color000 svgShape"/><path d="M93.243 163.24c38.768-1.47 67.559-17.663 77.537-26.496 2.944-.818 7.557-.098 2.454 9.324-6.38 11.782-50.057 27.972-79.991 27.972-24.105 0-63.469-6.87-80.972-12.27v-10.304c11.123 3.924 42.918 13.224 80.972 11.774Z" class="color000 svgShape"/></g></g></g><path fill="#e6dbdb" fill-rule="nonzero" d="M120.403 408.15c-3.663-5.65-9.1-5.93-13.504-9.17-2.16 3.08-1.999 7.59-3.954 13.62L90.23 428.3l-22.105 23.68-21.068 11.42 12.707 14.66c8.51-6.64 56.806-58.06 60.64-69.91Z" class="colorE6DBDB svgShape"/><path fill="#f2eaea" fill-rule="nonzero" d="M195.072 485.75s.476-25.68-5.11-39.85c-5.586-14.17-11.534-50.79-11.534-50.79s-9.6 10.47-27.647 10.63l-34.009.3s-29.61 41.33-38.313 46.88c-8.702 5.54-57.995 16.3-57.995 16.3-9.362.09-16.886 7.74-16.805 17.1l.076 8.63 102.81-.9 88.527-8.3Z" class="colorF2EAEA svgShape"/><path fill="#d11137" fill-rule="nonzero" d="M91.177 466.1c-4.15-8.3-6.54-16.34-5.679-20.13l-19.618 9.81-42.85 13.94c0-1.03-5.266-.31-11.874 2.58-6.609 2.89-7.572 10.5-7.228 13.94l95.51 3.61 11.357-.51c-5.679-2.59-13.939-11.88-19.618-23.24Z" class="colorD11137 svgShape"/><path fill-rule="nonzero" d="M152.613 447c-11.977 2.9-36.998-10.15-48.01-17.03l11.873-23.75c11.53 0 36.45-.31 43.883-1.55 7.434-1.24 15.143-6.71 18.067-9.29l3.098 16 4.13 20.13c-6.023 3.96-21.064 12.6-33.04 15.49Z" class="color000 svgShape"/><path fill="#d11137" fill-rule="nonzero" d="M105.61 428.41c2.546-3.98 7.737-12.56 8.13-15.04 23.782 3.92 55.785 3.13 67.613-2.14 3.18 9.27 4.808 21.83 4.808 21.83-2.029 4.15-24.795 12.32-33.557 13.94-4.678-3.57-8.15-4.47-11.782-6.5-5.698-3.19-24.71-11.49-35.213-12.09zm51.238 36.66c3.702-2.12 24.678-11.36 34.373-15.34 4.683 3.35 4.095 23.53 4.196 35.16l-46.516 2.52c2.568-8.84 6.714-21.11 7.947-22.34z" class="colorD11137 svgShape"/><path fill-rule="nonzero" d="M134.331 463.45c-4.85 1.31-8.748 1.1-10.942-.62-5.649-4.5-1.942-11.27-.372-13.92-2.812 3.24-5.607 6.49-7.798 10.04-3.454 5.55-4.954 11.65-2.696 15.58 4.05 7.1 13.97 3.91 20.3 1.11l58.741-25.97-57.233 13.78Z" class="color000 svgShape"/><path fill="#f2eaea" fill-rule="nonzero" d="M46.62 472.3c-12.894 1.66-29.41 2.32-32.543-1.78l21.113-6.38 27.782-11.09 7.26 3.56-1.006 3.1s8.53 9.5 8.014 13.62c-.516 4.13-4.866 6.2-9.809 4.65-4.944-1.55-7.704-7.37-20.812-5.68Z" class="colorF2EAEA svgShape"/><path fill="#d11137" fill-rule="nonzero" d="M111.828 424.8c-5.369 7.44-19.79 22.72-26.33 29.43L83.433 447c4.13-4.64 10.842-11.87 16.521-18.07 5.94-6.48 12.046-16.17 16.52-22.71h5.68c-.86 3.78-4.957 11.15-10.326 18.58Z" class="colorD11137 svgShape"/><path fill="#bf0328" fill-rule="nonzero" d="M99.43 413.345a3.178 3.178 0 0 1 3.939-1.869l.176.063 5.488 2.14a3.178 3.178 0 0 1-2.133 5.984l-.176-.062-5.488-2.14a3.178 3.178 0 0 1-1.806-4.116zm-8.18 9.37a3.178 3.178 0 0 1 3.94-1.869l.176.063 5.487 2.14a3.178 3.178 0 0 1-2.133 5.984l-.176-.062-5.487-2.14a3.178 3.178 0 0 1-1.806-4.116zm-7.147 9.35a3.178 3.178 0 0 1 3.939-1.869l.176.063 5.488 2.14a3.178 3.178 0 0 1-2.133 5.984l-.176-.062-5.488-2.14a3.178 3.178 0 0 1-1.806-4.116zm-8.177 9.37a3.178 3.178 0 0 1 3.939-1.869l.176.063 5.488 2.14a3.178 3.178 0 0 1-2.133 5.984l-.176-.062-5.488-2.14a3.178 3.178 0 0 1-1.806-4.116zm-12.31 9.4a3.178 3.178 0 0 1 3.939-1.869l.176.063 5.488 2.14a3.178 3.178 0 0 1-2.133 5.984l-.176-.062-5.488-2.14a3.178 3.178 0 0 1-1.806-4.116z" class="colorBF0328 svgShape"/><path fill="#e7e5dd" fill-rule="nonzero" d="m196.316 484.67-96.758 5.22-96.286-3.53-1.433 12.82c-.414 3.7 2.431 6.96 6.156 7.06l89.718 2.26 49.954.11 49.934-2.07-1.285-21.87Z" class="colorE7E5DD svgShape"/><path fill="#536e83" fill-rule="nonzero" d="M1.838 500.84c7.667 2.229 95.232 4.621 123.577 4.427l2.02-.02c6.479-.082 16.053-.388 28.547-.886l8.255-.339 32.785-1.44.253 5.995-27.986 1.235-13.163.548c-12.755.509-22.477.816-29.016.891l-2.578.021c-29.881.148-114.185-2.17-124.087-4.596l-.283-.076 1.676-5.76Z" class="color536E83 svgShape"/><path fill-rule="nonzero" d="M159.844 431.51c-6.609-.41-9.982-3.27-10.842-4.64-.688 3.61.516 10.94 10.842 11.36 10.325.41 13.25-7.4 13.423-11.36-1.72 1.72-6.815 5.06-13.423 4.64Z" class="color000 svgShape"/><path fill-rule="nonzero" d="M153.131 426.35c-.413 2.89.861 5.68 1.55 6.71 6.194 4.65 12.906 0 12.906-4.64 0-4.65-3.098-5.68-6.195-5.68-3.098 0-7.744 0-8.26 3.61Z" class="color000 svgShape"/><path fill="#e6dbdb" fill-rule="nonzero" d="M297.704 408.77c3.551-5.69 8.963-6.07 13.294-9.38 2.206 3.04 2.123 7.53 4.177 13.51l12.94 15.41 22.434 23.21 21.188 11.02-12.405 14.82c-8.593-6.47-57.602-56.86-61.628-68.59Z" class="colorE6DBDB svgShape"/><path fill="#f2eaea" fill-rule="nonzero" d="M224.663 487.37s-.92-25.57 4.398-39.79c5.32-14.21 10.608-50.8 10.608-50.8s9.746 10.27 27.727 10.11l33.887-.29s30.218 40.67 38.984 46.04c8.766 5.37 58.061 15.23 58.061 15.23 9.33-.08 16.958 7.42 17.04 16.75l.075 8.59-102.44.9-88.34-6.74Z" class="colorF2EAEA svgShape"/><path fill="#d11137" fill-rule="nonzero" d="M327.828 466c3.991-8.35 6.231-16.4 5.308-20.16l19.715 9.43 42.932 13.14c-.018-1.03 5.24-.4 11.874 2.37 6.634 2.76 7.726 10.32 7.443 13.76l-95.088 5.26-11.324-.32c5.612-2.67 13.68-12.07 19.14-23.48Z" class="colorD11137 svgShape"/><path fill-rule="nonzero" d="M266.291 448.04c11.983 2.67 36.683-10.76 47.535-17.81l-12.243-23.46c-11.486.2-36.317.33-43.745-.78-7.428-1.1-15.202-6.42-18.16-8.94l-2.809 16-3.764 20.13c6.07 3.84 21.204 12.18 33.186 14.86Z" class="color000 svgShape"/><path fill="#d11137" fill-rule="nonzero" d="M312.796 428.7c-2.607-3.92-7.928-12.38-8.36-14.85-23.626 4.33-55.523 4.09-67.399-.95-3.005 9.28-4.41 21.83-4.41 21.83 2.093 4.1 24.916 11.84 33.674 13.3 4.598-3.64 8.042-4.59 11.624-6.68 5.621-3.28 24.418-11.87 34.871-12.65zm-50.412 37.41c-3.724-2.05-24.782-10.89-34.51-14.68-4.608 3.41-3.67 23.5-3.569 35.09l46.385 1.71c-2.71-8.76-7.055-20.92-8.306-22.12z" class="colorD11137 svgShape"/><path fill-rule="nonzero" d="M284.79 464.1c4.855 1.22 8.734.95 10.89-.81 5.55-4.58 1.738-11.25.128-13.87 2.858 3.18 5.7 6.37 7.944 9.87 3.537 5.46 5.138 11.51 2.956 15.47-3.91 7.15-13.848 4.14-20.203 1.46l-58.973-24.85 57.258 12.73Z" class="color000 svgShape"/><path fill="#f2eaea" fill-rule="nonzero" d="M372.328 471.39c12.874 1.43 29.34 1.81 32.39-2.34l-21.145-5.99-27.87-10.56-7.17 3.67 1.055 3.08s-8.334 9.6-7.748 13.71c.586 4.1 4.955 6.08 9.853 4.45 4.9-1.62 7.547-7.47 20.635-6.02Z" class="colorF2EAEA svgShape"/><path fill="#d11137" fill-rule="nonzero" d="M306.536 425.21c5.478 7.31 20.111 22.28 26.742 28.86l1.932-7.24c-4.195-4.56-11.007-11.64-16.773-17.71-6.03-6.36-12.282-15.91-16.853-22.35l-5.658.1c.923 3.76 5.132 11.03 10.61 18.34Z" class="colorD11137 svgShape"/><path fill="#bf0328" fill-rule="nonzero" d="M314.552 411.84a3.178 3.178 0 0 1 2.585 5.804l-.17.075-5.43 2.23a3.178 3.178 0 0 1-2.586-5.803l.171-.076 5.43-2.23zm8.312 9.19a3.178 3.178 0 0 1 2.585 5.804l-.17.075-5.43 2.23a3.178 3.178 0 0 1-2.586-5.803l.171-.076 5.43-2.23zm7.289 9.198a3.178 3.178 0 0 1 2.576 5.808l-.171.075-5.43 2.22a3.178 3.178 0 0 1-2.576-5.807l.17-.076 5.43-2.22zm8.305 9.182a3.178 3.178 0 0 1 2.585 5.804l-.17.075-5.43 2.23a3.178 3.178 0 0 1-2.586-5.803l.171-.076 5.43-2.23zm12.432 9.158a3.178 3.178 0 0 1 2.576 5.808l-.171.075-5.431 2.22a3.178 3.178 0 0 1-2.576-5.807l.17-.076 5.432-2.22z" class="colorBF0328 svgShape"/><path fill="#e7e5dd" fill-rule="nonzero" d="m223.406 486.32 96.485 3.52 95.864-5.2 1.648 12.73c.478 3.69-2.31 7-6.032 7.16l-89.318 3.82-49.764.98-49.783-1.2.9-21.81Z" class="colorE7E5DD svgShape"/><path fill="#536e83" fill-rule="nonzero" d="m417.432 499.034 1.776 5.731c-8.452 2.62-95.502 6.52-124.726 6.827l-2.077.016c-6.372.032-15.654-.099-27.727-.367l-7.822-.183-33.989-.9.149-5.997 28.478.761 11.72.285c13.597.309 23.783.452 30.348.393l1.711-.018c28.816-.363 112.898-4.138 121.905-6.476l.254-.072Z" class="color536E83 svgShape"/><path fill-rule="nonzero" d="M258.817 432.73c6.576-.53 9.887-3.43 10.72-4.82.75 3.59-.324 10.92-10.603 11.51-10.28.59-13.33-7.15-13.57-11.09 1.744 1.69 6.877 4.93 13.453 4.4Z" class="color000 svgShape"/><path fill-rule="nonzero" d="M265.415 427.47c.462 2.87-.758 5.67-1.426 6.71-6.09 4.74-12.858.23-12.939-4.4-.08-4.63 2.987-5.71 6.073-5.77 3.086-.05 7.715-.13 8.292 3.46Z" class="color000 svgShape"/></g><g class="color000 svgShape"><path fill="#f8ccbe" fill-rule="nonzero" d="M658.909 617.708c19.215-6.954 40.429 2.986 47.383 22.2l1.217 3.352c19.77 54.231 34.074 83.461 59.19 118.81l3.148 4.42c33.213 46.539 43.93 57.78 96.775 104.892 15.253 13.598 16.595 36.986 2.996 52.24-13.598 15.253-36.986 16.595-52.24 2.996l-5.132-4.582c-53.488-47.84-67.503-63.195-104.7-115.46l-1.17-1.645c-30.047-42.287-47.172-77.682-69.668-139.84-6.954-19.215 2.986-40.429 22.2-47.383Z" class="colorF8CCBE svgShape"/><g fill-rule="nonzero" class="color000 svgShape"><path fill="#e57e25" d="M708 847.5c0 52.19 42.31 94.5 94.5 94.5s94.5-42.31 94.5-94.5-42.31-94.5-94.5-94.5-94.5 42.31-94.5 94.5Z" class="colorE57E25 svgShape"/><path fill="#38454f" d="M710.468 855.258c12.258-11.713 32.41-15.433 46.895-8.665a178.611 178.611 0 0 0-27.606 61.715 94.178 94.178 0 0 0 5.017 5.565c.5-.452.85-1.047 1.001-1.704a171.75 171.75 0 0 1 27.336-61.975c8.649 6.717 12.894 17.773 11.933 31.96l-.014.183.007.186c.85 20.537 12.68 39.33 31.645 50.265A64.704 64.704 0 0 0 825.186 940a94.09 94.09 0 0 0 16.194-5.535c-10.321.8-21.249-1.741-31.32-7.547-16.888-9.739-27.437-26.36-28.253-44.496 1.338-20.542-6.797-31.754-14.637-37.753a173.635 173.635 0 0 1 16.445-18.59 744.01 744.01 0 0 1 67.961 72.195l14.6 17.774 5.23-4.305-14.6-17.774a750.729 750.729 0 0 0-68.245-72.544c4.71-4.27 9.652-8.276 14.803-12.001 8.091 10.233 21.1 15.246 37.36 14.176 15.297.694 29.654 9.027 39.413 22.878 7.59 10.772 11.452 23.583 11.066 35.534a94.284 94.284 0 0 0 4.797-17.05 68.513 68.513 0 0 0-10.328-22.386c-11.019-15.64-27.366-25.026-44.847-25.751l-.186-.007-.183.014c-13.778.928-24.692-3.086-31.465-11.314a171.504 171.504 0 0 1 58.072-24.728 3.307 3.307 0 0 0 1.686-1.023 94.678 94.678 0 0 0-5.548-5.003 178.249 178.249 0 0 0-57.918 25.09c-6.587-13.238-4.282-31.841 5.644-44.608l1.377-1.772a95.87 95.87 0 0 0-9.519-.474v2.08c-9.39 14.874-10.789 34.243-3.134 48.68a180.738 180.738 0 0 0-16.09 13.065 747.15 747.15 0 0 0-34.031-29.382l-11.222-9.092a95.102 95.102 0 0 0-4.82 4.817l11.783 9.546a738.928 738.928 0 0 1 33.36 28.782 180.64 180.64 0 0 0-17.213 19.552c-.386-.196-.779-.4-1.148-.572-16.055-7.524-37.172-4.37-51.627 7.37H708c0 3.15.162 6.26.46 9.33l2.008-1.918Z" class="color38454F svgShape"/></g><path fill="#ebbaaa" fill-rule="nonzero" d="M460.5 601.94c0-14.879 12.061-26.94 26.94-26.94h111.12c14.879 0 26.94 12.061 26.94 26.94 0 39.245-31.815 71.06-71.06 71.06h-22.88c-39.245 0-71.06-31.815-71.06-71.06Z" class="colorEBBAAA svgShape"/><path fill="#ebbaaa" fill-rule="nonzero" d="M495 490.911C495 469.973 511.974 453 532.911 453h20.178C574.027 453 591 469.973 591 490.911V592c0 26.51-21.49 48-48 48-26.509 0-48-21.49-48-48V490.911Z" class="colorEBBAAA svgShape"/><path fill="#fafafb" fill-rule="nonzero" d="M731.5 628.5c-5.6-6.8-10-10.833-11.5-11.5l-40.5 1-24 165 132-31c-13.5-44.5-50.4-116.7-56-123.5Z" class="colorFAFAFB svgShape"/><path fill="#fafafb" fill-rule="nonzero" d="M379.093 617.5c5.6-6 54.333-26.833 78-36.5l71 16.5 97.5-16.5c28.333 7.5 83 27.5 93 34.5 6.78 4.746-15.5 9-17.5 30.5C698.603 672.764 673 761 673 784c0 78.5 14.093 194.5 9.093 209-.951 2.756-55.722-1.337-127.394-.766-48.528.387-112.3-.34-149.106.266-7-86.5 13.469-208.261 6-267-11-86.5-39.5-100.5-32.5-108Z" class="colorFAFAFB svgShape"/><path fill="#f2f0f5" fill-rule="nonzero" d="M451 605.238c0-16.7 13.538-30.238 30.238-30.238h121.524c16.7 0 30.238 13.538 30.238 30.238C633 649.29 597.29 685 553.238 685h-22.476C486.71 685 451 649.29 451 605.238Z" class="colorF2F0F5 svgShape"/><path fill="#f8ccbe" fill-rule="nonzero" d="M349.578 676.17c9.295-18.198 31.583-25.416 49.781-16.12 18.198 9.294 25.416 31.582 16.12 49.78-11.289 22.103-17.748 49.709-25.814 106.324l-.121.849.15.033c1.41.298 3.038.566 4.877.79l.507.061c19.407 2.24 50.684-.964 100.475-9.816 20.119-3.577 39.328 9.834 42.905 29.953 3.577 20.119-9.834 39.328-29.953 42.905l-5.056.891c-53.901 9.421-88.818 12.815-116.856 9.579-21.369-2.466-38.907-9.004-52.168-21.882-15.93-15.47-21.836-36.707-18.534-60.173l.925-6.51c3.95-27.539 7.202-46.51 11.22-64.137l.155-.678c5.51-24.014 12.267-43.993 21.387-61.85Z" class="colorF8CCBE svgShape"/><path fill="#fafafb" fill-rule="nonzero" d="M367 627.5c3.6-4 10.5-9 13.5-10l45 45V781L304 749c22-37.833 59.4-117.5 63-121.5Z" class="colorFAFAFB svgShape"/><g class="color000 svgShape" transform="translate(402 579)"><mask id="f" fill="#fff"><use xlink:href="#e"/></mask><use xlink:href="#e" fill="#0254D2" fill-rule="nonzero"/><path fill="#074099" fill-rule="nonzero" d="m80.727-3.038 1.075 35.584 34.175 9.973-33.51 12.019 1.075 35.585-21.786-28.157-33.51 12.019 20.046-29.42-21.786-28.156 34.175 9.973zM96.825 106.919l.778 25.712 24.693 7.206-24.213 8.685.777 25.712-15.742-20.345-24.213 8.684 14.484-21.258-15.742-20.345 24.694 7.207zM39.825 191.919l.778 25.712 24.693 7.206-24.213 8.685.777 25.712-15.742-20.345-24.213 8.684 14.484-21.258L.647 205.97l24.694 7.207z" class="color074099 svgShape" mask="url(#f)"/><path fill="#0a50bf" fill-rule="nonzero" d="m223.825 69.919.778 25.712 24.693 7.206-24.213 8.685.777 25.712-15.742-20.345-24.213 8.684 14.484-21.258-15.742-20.345 24.694 7.207z" class="color0A50BF svgShape" mask="url(#f)"/><path fill="#074099" fill-rule="nonzero" d="m275.825-7.081.778 25.712 24.693 7.206-24.213 8.685.777 25.712-15.742-20.345-24.213 8.684 14.484-21.258L236.647 6.97l24.694 7.207zM140.825 180.919l.778 25.712 24.693 7.206-24.213 8.685.777 25.712-15.742-20.345-24.213 8.684 14.484-21.258-15.742-20.345 24.694 7.207zM240.825 131.919l.778 25.712 24.693 7.206-24.213 8.685.777 25.712-15.742-20.345-24.213 8.684 14.484-21.258-15.742-20.345 24.694 7.207zM48.825 89.919l.778 25.712 24.693 7.206-24.213 8.685.777 25.712-15.742-20.345-24.213 8.684 14.484-21.258L9.647 103.97l24.694 7.207zM279.825 65.919l.778 25.712 24.693 7.206-24.213 8.685.777 25.712-15.742-20.345-24.213 8.684 14.484-21.258-15.742-20.345 24.694 7.207zM174.178 279l.778 25.712 24.693 7.206-24.213 8.685.777 25.712-15.742-20.345-24.213 8.684 14.484-21.258L135 293.051l24.694 7.207zM272.178 318l.778 25.712 24.693 7.206-24.213 8.685.777 25.712-15.742-20.345-24.213 8.684 14.484-21.258L233 332.051l24.694 7.207zM256.178 239l.778 25.712 24.693 7.206-24.213 8.685.777 25.712-15.742-20.345-24.213 8.684 14.484-21.258L217 253.051l24.694 7.207zM229.178 380l.778 25.712 24.693 7.206-24.213 8.685.777 25.712-15.742-20.345-24.213 8.684 14.484-21.258L190 394.051l24.694 7.207zM108.178 323l.777 25.712 24.693 7.206-24.213 8.685.777 25.712L94.47 369.97l-24.213 8.684 14.484-21.258L69 337.051l24.693 7.207z" class="color074099 svgShape" mask="url(#f)"/><path fill="#074099" fill-rule="nonzero" d="m100.825 228.919.778 25.712 24.693 7.206-24.213 8.685.777 25.712-15.742-20.345-24.213 8.684 14.484-21.258-15.742-20.345 24.694 7.207zM27.825 272.919l.778 25.712 24.693 7.206-24.213 8.685.777 25.712-15.742-20.345-24.213 8.684 14.484-21.258-15.742-20.345 24.694 7.207zM33.825 345.919l.778 25.712 24.693 7.206-24.213 8.685.777 25.712-15.742-20.345-24.213 8.684 14.484-21.258-15.742-20.345 24.694 7.207z" class="color074099 svgShape" mask="url(#f)"/><path fill="#0a50bf" fill-rule="nonzero" d="m20.825-1.081.778 25.712 24.693 7.206-24.213 8.685.777 25.712L7.118 45.889l-24.213 8.684 14.484-21.258-15.742-20.345 24.694 7.207z" class="color0A50BF svgShape" mask="url(#f)"/></g><path fill="#fff" fill-rule="nonzero" d="M406.5 601c1.6-.8 6.667-2.333 9-3 6 4.5 14.5 62.1 12.5 94.5s-12.5 77-19.5 93c-.667-2.333-2-7.8-2-11 0-4 6.917-54.541 3.5-87-3-28.5-5.5-69.5-13-81.5 2.5-1.333 7.9-4.2 9.5-5Z" class="colorFFF svgShape"/><g class="color000 svgShape" transform="translate(394 598)"><mask id="h" fill="#fff"><use xlink:href="#g"/></mask><path fill="#4a516d" fill-rule="nonzero" d="M22 73c0-35.6-6.5-60.833-11-72L-5 3c2.667 67.667 12.368 201.213 17 185 6-21 10-70.5 10-115Z" class="color4A516D svgShape" mask="url(#h)"/></g><path fill="#fff" fill-rule="nonzero" d="M677.073 594.038c-1.62-.81-6.751-2.363-9.114-3.038-6.075 4.557-14.683 62.885-12.658 95.695 2.026 32.809 12.658 77.973 19.747 94.175.675-2.362 2.025-7.898 2.025-11.139 0-4.05-7.004-55.23-3.544-88.099 3.038-28.861 5.57-70.379 13.164-82.531-2.531-1.35-8-4.253-9.62-5.063Z" class="colorFFF svgShape"/><g class="color000 svgShape" transform="translate(656 591)"><mask id="j" fill="#fff"><use xlink:href="#i"/></mask><path fill="#4a516d" fill-rule="nonzero" d="M11.455 73.923c0-36.05 6.582-61.602 11.139-72.91l16.202 2.025c-2.7 68.522-12.524 203.757-17.215 187.339-6.076-21.266-10.126-71.391-10.126-116.454Z" class="color4A516D svgShape" mask="url(#j)"/></g><path fill="#ebbaaa" fill-rule="nonzero" d="M475 597.541C475 585.092 485.092 575 497.541 575h90.918C600.908 575 611 585.092 611 597.541 611 630.379 584.379 657 551.541 657h-17.082C501.621 657 475 630.379 475 597.541Z" class="colorEBBAAA svgShape"/><path fill="#fff" fill-rule="nonzero" d="M487.059 656.139c-10.8-24.4-12.001-64.5-7.501-81.5-10.5-2.499-20.833 3-22 5-4.499 15.001-2.409 59.288 4.001 78.001C473.5 692.5 527.5 735.5 546 743.5l18.5-13c-14-11-66.641-49.961-77.441-74.361Z" class="colorFFF svgShape"/><g class="color000 svgShape" transform="translate(455 574)"><mask id="l" fill="#fff"><use xlink:href="#k"/></mask><path fill="#4a516d" fill-rule="nonzero" d="M24.001 91c-12-23.6-14.5-62.5-9.501-95.5l15.001 2 11 80.5L126 155.5 110.5 170c-18-11.5-74.499-55.4-86.499-79Z" class="color4A516D svgShape" mask="url(#l)"/></g><path fill="#fff" fill-rule="nonzero" d="M603 656.139c10.8-24.4 12.001-64.5 7.501-81.5 10.5-2.499 20.833 3 22 5C637 594.64 635.5 639.14 628.5 657.64c-12.884 34.046-46.833 62.999-64 72.999l-19.5-15c14.833-9.666 47.2-35.1 58-59.5Z" class="colorFFF svgShape"/><g class="color000 svgShape" transform="translate(545 574)"><mask id="n" fill="#fff"><use xlink:href="#m"/></mask><path fill="#4a516d" fill-rule="nonzero" d="M66.058 91c12-23.6 14.499-62.5 9.501-95.5l-15.001 2-11 80.5-59.5 62.5L1.559 154c18-11.5 52.499-39.4 64.499-63Z" class="color4A516D svgShape" mask="url(#n)"/></g><path fill="#fff" fill-rule="nonzero" d="m464.5 815-9.5-4 5 22.5 14.5 6 5-37.5 2.5 20 12 4.5 7-30v17l10.5 4.5 5-20.5-5-3.5v-26l-13.5-7-8 32-2-18-14.5-5.5zM558.499 783.5c1.6-6 12.334-13.167 17.5-16L586 773l-1 34.5c-.5 1.667-2 5.6-4 8-2 2.4-7.5 4.667-10 5.5l-9.501-7.5c1.834-.5 5.901-1.7 7.501-2.5 1.6-.8 4.333-3.333 5.5-4.5l1.499-27C573 780.833 567 784.6 567 789s2 6.833 3 7.5v7c-1.667-.5-5.701-2-8.501-4-3.5-2.5-5-8.5-3-16ZM531.5 856.5 558 839v90.5h-17V868l-9.5 6zM590 805.5V769l11.5 8.5v36zM607.5 788c3.6-6.8 12.167-9.167 16-9.5l5.5 9.5c-1.667.167-5.6.9-8 2.5-3 2-4.5 7.5-2.5 13.5 1.6 4.8 9.333 5.667 13 5.5v12c-1.167.333-5.8.2-15-3-11.5-4-13.5-22-9-30.5ZM603.5 749l-1-13-7.5 10.5-14-4 10 11.5-8.5 11.5 14-5 7 11.5v-14.5L617 753z" class="colorFFF svgShape"/><path fill="#fff" fill-rule="nonzero" d="m530.5 779.5 5-18 7 18L566 777l-18.5 15.5 10 21-19-14-16.5 14 5-21-22-13z" class="colorFFF svgShape"/><path fill="#f8ccbe" fill-rule="nonzero" d="M315.891 809.344c2.848-20.235 21.56-34.33 41.795-31.483 19.224 2.705 32.906 19.729 31.784 38.773l-.023.348.247.054c1.41.298 3.038.566 4.877.79l.507.061c19.407 2.24 50.684-.964 100.475-9.816 20.119-3.577 39.328 9.834 42.905 29.953 3.577 20.119-9.834 39.328-29.953 42.905l-5.056.891c-53.901 9.421-88.818 12.815-116.856 9.579-21.369-2.466-38.907-9.004-52.168-21.882-15.93-15.47-21.836-36.707-18.534-60.173Z" class="colorF8CCBE svgShape"/><path fill="#ebbaaa" fill-rule="nonzero" d="M860.31 886.328c9.017-4.643 16.665-3.364 25.27 13.349 8.606 16.713 9.69 36.816-6.638 45.224-16.33 8.407-39.381 20.78-47.987 4.068-8.605-16.714 13.026-54.233 29.355-62.641Z" class="colorEBBAAA svgShape"/></g><g class="color000 svgShape"><path fill="#ebbaaa" fill-rule="nonzero" d="M670.767 445.533c32.732 0 59.266-26.534 59.266-59.266S703.499 327 670.767 327 611.5 353.535 611.5 386.267s26.535 59.266 59.267 59.266zm-258 3c-32.733 0-59.267-26.534-59.267-59.266S380.034 330 412.767 330c32.732 0 59.266 26.535 59.266 59.267s-26.534 59.266-59.266 59.266z" class="colorEBBAAA svgShape"/><path fill="#f4d4c9" fill-rule="nonzero" d="M389.296 304.017C387.215 219.024 455.545 149 540.564 149c86.11 0 154.86 71.76 151.174 157.792l-2.962 69.095a174.78 174.78 0 0 1-5.253 35.682l-16.936 66.46a108.545 108.545 0 0 1-52.65 68.182c-44.66 24.702-99.483 23.994-143.758-1.393-23.75-13.618-41.811-35.773-50.166-61.845l-20.842-65.035a174.804 174.804 0 0 1-8.287-49.068l-1.588-64.853Z" class="colorF4D4C9 svgShape"/><path fill="#393939" fill-rule="nonzero" d="M641.587 324.114c6.555-.977 12.662 3.544 13.64 10.099.962 6.454-3.406 12.473-9.798 13.59l-.3.049-57.096 8.517c-6.555.977-12.661-3.544-13.639-10.099-.963-6.454 3.406-12.473 9.797-13.59l.301-.049 57.095-8.517zm-212.208 10.23c1.282-6.399 7.431-10.582 13.823-9.467l.3.057 56.418 11.299c6.499 1.301 10.711 7.624 9.41 14.122-1.281 6.399-7.431 10.582-13.823 9.467l-.3-.057-56.418-11.299c-6.498-1.301-10.711-7.624-9.41-14.122z" class="color393939 svgShape"/><path fill="#ebbaaa" fill-rule="nonzero" d="m533.218 388.809 14.79 8.382c-4.616 8.144-7.248 16.85-6.964 22.782.209 4.374 1.372 5.703 5.496 5.754l.257.002v17c-13.87 0-22.107-8.823-22.734-21.945-.448-9.37 2.948-20.812 8.807-31.356l.348-.62Z" class="colorEBBAAA svgShape"/><path fill="#2c2929" fill-rule="nonzero" d="M679.499 186.003c10.414 15.419 29.526 103.887 10 164.997-3.504-2.037-6.66-39.419-15.5-46-9.985-7.434-9.018-53.718-18.53-65-9.513-11.282-83.608-8.869-114.647-8.869-31.04 0-109.287-5.364-121.303 12.969-12.015 18.333-8.01 56.409-15.02 64.4-5.607 6.393-11.997 34.822-14 42.5 0-35.256-17.158-85.471 0-140 6.213-19.743 52.604-83.5 150.323-83.5 66.679 0 75.096 13.845 94.12 27.948 15.019 8.931 13.518 12.692 20.527 20.684 3.504 0 17.723.532 24.03 9.871Z" class="color2C2929 svgShape"/><path fill="#2c2929" fill-rule="nonzero" d="m388 267.635 10.598-55.284 96.624-19.85-1.629 53.235-51.156 6.923 12.995-10.481-35.285 8.403 2.202-11.487zM676.074 281.323l6.938-65.135-80.371-35.987-19.908 35.433.909 32.096 33.16-4.566 8.17 12.641 33.944-8.715z" class="color2C2929 svgShape"/><path fill="#2c2929" fill-rule="nonzero" d="m461.301 248.959 1.069-21.843L466.973 176l169.492 15.8-72.151 72.776 2.191-11.43-22.5 3.523-1.731-12.655-21.753 10.466-4.046-5.998-30.669 2.762 5.143-5.142zM633.5 145c2.5 1.833 8.3 6.5 11.5 10.5 1.645 2.056 3.432 4.605 5 10 .733 2.523-1.257-2.855-4-7-2.805-4.24-10.5-9.5-7.5-6 5 10 21 46.7 19 23.5-2-23.2-16.833-30.333-24-31Z" class="color2C2929 svgShape"/><path fill="#2c2929" fill-rule="nonzero" d="M662.5 167c-5.6 0-12.667 7.667-15.5 11.5l15.5 6.5 14-2-11-4.5 15 2-10-6.5 10 3c-.833-.667-2.8-2.2-4-3-1.2-.8-7.833-3-11-4h7c-1-1-4.4-3-10-3Z" class="color2C2929 svgShape"/><path fill-rule="nonzero" d="M631.414 369.02a9 9 0 0 1 1.436 17.94l-.265.02-46 3a9 9 0 0 1-1.436-17.94l.265-.02 46-3zm-189.902 9.007a9 9 0 0 1 9.196-8.525l.265.01 47.5 2.5a9 9 0 0 1-.681 17.986l-.265-.01-47.5-2.5a9 9 0 0 1-8.515-9.461z" class="color000 svgShape"/><g fill="#fff" class="color000 svgShape" transform="translate(497 429)"><mask id="p"><use xlink:href="#o"/></mask><path fill-rule="nonzero" d="M3.5 43h203v42H3.5z" class="colorFFF svgShape" mask="url(#p)"/></g></g></g></svg></svg>