<svg viewBox="0 0 1013.789 900"><g data-name="Layer 1"><path fill="#96e2d7" d="M547.28 260.754c5.548-60.698 18.272-122.468 51.591-173.506S689.49-2.41 750.39.118c13.177.546 26.654 3.116 37.695 10.33 14.553 9.507 23.145 25.888 28.701 42.358 28.066 83.188-8.703 176.146-65.395 243.182-56.692 67.036-131.54 115.726-197.641 173.506a1078.18 1078.18 0 0 1 235.727-127.739c43.88-17.108 91.314-31.513 137.525-22.422 46.212 9.092 89.444 49.084 86.66 96.098-1.864 31.503-23.724 59.216-50.719 75.56-26.994 16.345-58.654 23.013-89.86 27.709a841.771 841.771 0 0 1-217.922 4.519c-27.519-3.058-55.703-7.814-79.286-22.325-37.122-22.844-41.607-55.268-37.948-94.222 4.563-48.544 4.913-97.366 9.353-145.918Z"/><path fill="#fff" d="M759.05 32.488c-50.207-16.99-104.373 39.15-130.431 75.532-24.113 33.667-37.706 72.865-48.796 112.348-11.53 41.042-22.058 83.015-20.313 125.959.284 6.985 11.178 7.021 10.893 0-2.778-68.316 20.492-151.8 54.015-211.208 22.205-39.35 79.72-109.728 131.735-92.129 6.655 2.252 9.511-8.265 2.896-10.502Zm209.317 368.851c-75.09-74.913-182.343-19.993-263.942 12.87-6.42 2.585-3.617 13.127 2.895 10.504 77.223-31.101 181.906-86.943 253.344-15.67 4.97 4.956 12.675-2.744 7.703-7.704Z"/><path fill="#ff8122" d="m468.804 193.936-29.496-11.68-29.201-11.582-18.355-7.264c0-1.62 0-3.239.098-4.81 1.03-26.845 11.387-53.494 29.692-76.413a9.124 9.124 0 0 1 7.264-3.436 9.373 9.373 0 0 1 7.705 4.024c23.508 33.963 34.844 72.783 32.293 111.161Z"/><path fill="#d6661a" d="M439.308 182.255c-.49 2.21-1.03 4.466-1.668 6.676l-27.533-18.257L391.85 158.6c1.03-26.846 11.387-53.495 29.692-76.414a9.124 9.124 0 0 1 7.264-3.436 6.454 6.454 0 0 1 .687 1.277c14.134 33.667 17.569 69.198 9.815 102.227Z"/><path fill="#ff8122" d="m163.795 193.936 29.496-11.68 29.2-11.582 18.356-7.264c0-1.62 0-3.239-.099-4.81-1.03-26.845-11.385-53.494-29.691-76.413a9.12 9.12 0 0 0-7.265-3.436 9.373 9.373 0 0 0-7.704 4.024c-23.508 33.963-34.845 72.783-32.293 111.161Z"/><path fill="#d6661a" d="M193.291 182.255c.49 2.21 1.03 4.466 1.669 6.676l27.532-18.257 18.257-12.073c-1.031-26.846-11.386-53.495-29.692-76.414a9.12 9.12 0 0 0-7.264-3.436 6.381 6.381 0 0 0-.686 1.277c-14.135 33.667-17.57 69.198-9.816 102.227Z"/><path fill="#e8d5a8" d="M64.866 768.026c-13.757 2.562-28.17 4.976-41.56.805C9.623 764.514-2.377 750.905.404 736.783c2.268-11.341 12.585-18.731 22.682-24.731a54.115 54.115 0 0 1 31.828 20.78 54.341 54.341 0 0 1 9.952 35.194Z"/><path fill="#ff8122" d="M435.318 731.515a545.134 545.134 0 0 1-226.456 120.801 83.396 83.396 0 0 0-23.122-40.168 82.613 82.613 0 0 0-44.194-21.366 58.379 58.379 0 0 1 3.512-3.878c14.123-14.049 33.732-20.78 52.609-27 18.95-6.218 38.56-12.805 52.827-26.705q-92.302 17.339-184.531 34.608l-1.097.219a54.341 54.341 0 0 0-9.952-35.194 54.115 54.115 0 0 0-31.828-20.78 54.757 54.757 0 0 1 2.78-1.609q52.352-29.964 104.778-59.926Z"/><path fill="#d6661a" d="M263.391 685.807c-.308.227-.593.487-.903.71-28.123 20.34-61.518 33.064-94.376 43.482-33.615 10.66-68.574 22.23-104.01 25.675a55.232 55.232 0 0 1 .764 12.352q.549-.109 1.097-.22 92.302-17.34 184.531-34.609c-1.03 1.004-2.143 1.89-3.227 2.82a168.242 168.242 0 0 0 32.337-15.906 162.47 162.47 0 0 0 28.86-22.32Zm134.39 35.729a357.12 357.12 0 0 1-9.746 9.9c-27 26.428-56.378 51.002-88.528 70.917-17.02 10.541-34.877 19.688-52.858 28.469-12.772 6.237-25.896 12.01-39.49 16.24.56 1.756 1.255 3.468 1.703 5.254A545.161 545.161 0 0 0 435.32 731.515Z"/><path fill="#ff8122" d="M822.04 709.668c-12.199 22.656-35.183 37.906-59.472 46.184-22.547 7.516-47.164 10.675-71.672 12.744-13.506 1.198-27.013 1.96-40.193 3.05-20.369 1.633-40.738 3.268-61.107 4.684-32.569 2.396-65.137 4.466-97.815 5.99-40.3 1.961-80.603 3.05-121.014 2.941-11.111 0-22.22-.218-33.44-.544-27.885-.98-55.987-3.267-83-9.04-26.252-5.338-51.412-13.725-74.832-26.796a180.648 180.648 0 0 1-16.665-10.566 162.992 162.992 0 0 1-24.182-21.35 179.466 179.466 0 0 1-32.242-49.342A238.626 238.626 0 0 1 92.9 627.756a301.984 301.984 0 0 1-8.278-54.352 427.36 427.36 0 0 1 .218-60.235c1.743-24.4 5.01-51.631 14.05-74.505-4.138 24.072 2.071 51.085 15.687 71.999 10.238 15.577 23.527 28.429 38.34 39.648 17.32 13.398 36.709 24.4 55.77 34.965a.107.107 0 0 1 .108.109c19.607 10.784 39.54 21.785 57.513 35.073 14.487 10.567 27.776 22.767 38.341 37.362 1.96-11.546 8.28-21.677 16.666-29.846a71.774 71.774 0 0 1 11.002-8.931 67.875 67.875 0 0 1 5.99-3.703c16.23-9.15 34.638-13.726 52.502-19.171a364.656 364.656 0 0 0 44.44-16.775.38.38 0 0 0 .218-.109c24.945-11.545 48.037-26.359 66.88-45.858a164.046 164.046 0 0 0 12.091-13.832 124.575 124.575 0 0 0 6.427-9.041 126.61 126.61 0 0 0 5.773-9.694c.871-1.634 1.743-3.377 2.614-5.01a146.782 146.782 0 0 0 9.476-24.945c.981-3.703 1.744-7.407 2.506-11.11a128.672 128.672 0 0 0 2.178-23.2 108.088 108.088 0 0 0-4.684-31.806.107.107 0 0 1 .109.109c7.406 5.337 15.468 12.635 22.875 16.011a13.284 13.284 0 0 0 1.851.762c2.505 1.2 5.011 2.18 7.516 3.269 11.982 4.9 24.29 9.258 36.598 13.506a4.56 4.56 0 0 0 1.09.436c.871.436 1.852.653 2.832 1.089 10.566 3.703 20.369 6.971 29.846 10.24 6.098 2.069 12.09 4.138 17.863 6.316a273.016 273.016 0 0 1 26.577 11.11c5.665 2.723 11.219 5.774 16.774 9.15 1.634.98 3.378 2.07 5.011 3.16a213.48 213.48 0 0 1 25.489 19.606c3.05 2.832 6.425 5.99 9.802 9.15l4.139 4.139q5.556 5.554 11.439 11.763c8.06 8.714 16.338 18.19 24.18 28.213.871.978 1.634 2.069 2.505 3.158-.109 0-.109 0 0 .109 12.309 16.12 23.745 33.657 32.133 51.738 15.903 34.202 21.676 70.148 4.683 101.845Z"/><path fill="#181413" d="M822.04 709.668c-12.199 22.656-35.183 37.906-59.472 46.184-22.547 7.516-47.164 10.675-71.672 12.744-13.506 1.198-27.013 1.96-40.193 3.05-20.369 1.633-40.738 3.268-61.107 4.684-32.569 2.396-65.137 4.466-97.815 5.99-40.3 1.961-80.603 3.05-121.014 2.941-11.111 0-22.22-.218-33.44-.544-27.885-.98-55.987-3.267-83-9.04-26.252-5.338-51.412-13.725-74.832-26.796a180.648 180.648 0 0 1-16.665-10.566 162.992 162.992 0 0 1-24.182-21.35 179.466 179.466 0 0 1-32.242-49.342A238.626 238.626 0 0 1 92.9 627.756a301.984 301.984 0 0 1-8.278-54.352 427.36 427.36 0 0 1 .218-60.235c1.743-24.4 5.01-51.631 14.05-74.505-4.138 24.072 2.071 51.085 15.687 71.999 10.238 15.577 23.527 28.429 38.34 39.648 17.32 13.398 36.709 24.4 55.77 34.965a.107.107 0 0 1 .108.109c19.607 10.784 39.54 21.785 57.513 35.073 14.487 10.567 27.776 22.767 38.341 37.362 1.96-11.546 8.28-21.677 16.666-29.846a71.774 71.774 0 0 1 11.002-8.931 67.875 67.875 0 0 1 5.99-3.703c16.23-9.15 34.638-13.726 52.502-19.171a364.656 364.656 0 0 0 44.44-16.775.38.38 0 0 0 .218-.109c24.945-11.545 48.037-26.359 66.88-45.858a164.046 164.046 0 0 0 12.091-13.832 124.575 124.575 0 0 0 6.427-9.041 126.61 126.61 0 0 0 5.773-9.694c.871-1.634 1.743-3.377 2.614-5.01a146.782 146.782 0 0 0 9.476-24.945c.981-3.703 1.744-7.407 2.506-11.11a128.672 128.672 0 0 0 2.178-23.2 108.088 108.088 0 0 0-4.684-31.806.107.107 0 0 1 .109.109c7.406 5.337 15.468 12.635 22.875 16.011a13.284 13.284 0 0 0 1.851.762c2.505 1.2 5.011 2.18 7.516 3.269 11.982 4.9 24.29 9.258 36.598 13.506a4.56 4.56 0 0 0 1.09.436c.871.436 1.852.653 2.832 1.089 10.566 3.703 20.369 6.971 29.846 10.24 6.098 2.069 12.09 4.138 17.863 6.316a273.016 273.016 0 0 1 26.577 11.11c5.665 2.723 11.219 5.774 16.774 9.15 1.634.98 3.378 2.07 5.011 3.16a213.48 213.48 0 0 1 25.489 19.606c3.05 2.832 6.425 5.99 9.802 9.15l4.139 4.139q5.556 5.554 11.439 11.763c8.06 8.714 16.338 18.19 24.18 28.213.871.978 1.634 2.069 2.505 3.158-.109 0-.109 0 0 .109 12.309 16.12 23.745 33.657 32.133 51.738 15.903 34.202 21.676 70.148 4.683 101.845Z"/><path fill="#f2d351" d="M817.357 607.823c-30.28 59.691-73.307 114.48-126.46 160.773-13.507 1.198-27.014 1.96-40.194 3.05-20.369 1.633-40.738 3.268-61.107 4.684 3.594-2.178 7.19-4.467 10.674-6.862 83.654-55.552 147.484-131.799 182.45-216.65.87.978 1.633 2.069 2.504 3.158-.109 0-.109 0 0 .109 12.309 16.12 23.745 33.657 32.133 51.738ZM747.1 512.842c-40.083 95.634-112.845 180.596-207.39 241.594-15.359 9.912-31.372 19.279-47.929 27.885-40.3 1.96-80.603 3.05-121.014 2.94-11.111 0-22.22-.218-33.44-.544 63.502-17.536 121.995-43.134 172.863-76.03 90.298-58.275 158.376-140.294 192.47-231.9 1.633.98 3.377 2.07 5.01 3.16a213.48 213.48 0 0 1 25.489 19.606c3.05 2.832 6.425 5.99 9.802 9.15Z"/><path fill="#f2d351" d="M659.308 456.527c-41.5 94.547-115.134 178.092-210.225 237.565-57.512 36.053-123.52 63.502-194.756 81.584-26.251-5.337-51.412-13.724-74.832-26.795a180.648 180.648 0 0 1-16.665-10.566c96.07-13.725 184.3-44.659 257.388-90.408 84.416-52.827 150.098-126.46 187.459-209.46a4.56 4.56 0 0 0 1.09.435c.871.436 1.852.653 2.832 1.089 10.566 3.703 20.369 6.971 29.846 10.24 6.098 2.069 12.09 4.138 17.863 6.316Z"/><path fill="#f2d351" d="M563.563 421.671c-6.753 12.962-14.269 25.707-22.33 38.124a539.863 539.863 0 0 1-105.766 119.49.38.38 0 0 1-.217.109 589.626 589.626 0 0 1-73.415 52.72c-65.355 39.649-141.275 68.404-223.187 84.852a179.466 179.466 0 0 1-32.242-49.343c56.86-9.695 110.669-25.487 159.902-47.164a552.729 552.729 0 0 0 67.316-34.856c78.752-47.818 141.601-113.39 181.032-188.221a40.444 40.444 0 0 1 15.25 2.178 38.807 38.807 0 0 1 8.822 5.229.107.107 0 0 1 .109.108c7.406 5.338 15.468 12.636 22.875 16.012a13.284 13.284 0 0 0 1.851.762Zm-140.839-7.951c-43.026 57.295-99.122 107.182-164.694 145.74-15.795 9.259-32.242 17.974-49.234 25.925A693.852 693.852 0 0 1 92.9 627.756a301.984 301.984 0 0 1-8.278-54.352 598.91 598.91 0 0 0 68.295-23.093 581 581 0 0 0 77.554-37.796c47.82-28.103 89.973-62.741 124.829-102.171 22.33 2.614 44.876 4.138 67.424 3.376Z"/><path fill="#fbedcd" d="M543.412 436.595a128.672 128.672 0 0 1-2.178 23.2c-.763 3.703-1.525 7.407-2.506 11.11a143.374 143.374 0 0 1-9.476 24.944c-.871 1.634-1.743 3.377-2.614 5.011a126.6 126.6 0 0 1-5.773 9.694c-1.96 3.05-4.14 6.1-6.427 9.041a148.555 148.555 0 0 1-12.09 13.832c-18.844 19.5-41.936 34.313-66.88 45.858a.38.38 0 0 1-.218.109 364.656 364.656 0 0 1-44.441 16.775c-17.864 5.445-36.271 10.02-52.502 19.171a67.875 67.875 0 0 0-5.99 3.703 78.878 78.878 0 0 0-11.002 8.931c-8.387 8.17-14.706 18.3-16.666 29.846-10.565-14.595-23.854-26.795-38.34-37.361-17.973-13.29-37.907-24.29-57.513-35.074a.107.107 0 0 0-.11-.109c-19.06-10.565-38.449-21.567-55.768-34.965-14.814-11.22-28.103-24.071-38.341-39.648-13.616-20.914-19.825-47.927-15.686-71.999 11.546-29.193 32.242-51.304 70.91-51.085 59.908.326 118.837 14.486 178.201 22.001 2.396.328 4.9.545 7.298.764 22.33 2.614 44.876 4.138 67.424 3.376 7.08-.109 14.05-.545 21.023-1.198 21.784-2.178 49.016-14.596 70.91-15.14a40.444 40.444 0 0 1 15.248 2.178 38.807 38.807 0 0 1 8.823 5.229.107.107 0 0 1 .109.108 106.756 106.756 0 0 1 4.575 31.698Z"/><path fill="#e6e7e8" d="M541.721 456.308c12.642 7.04 182.628 41.657 256.755 163.8 9.008 14.845 23.105 25.917 33.398 39.841-1.245-17.31-6.522-34.93-14.517-52.126-8.387-18.08-19.824-35.618-32.133-51.738-.109-.11-.109-.11 0-.11-.871-1.088-1.634-2.179-2.505-3.157-7.842-10.022-16.12-19.5-24.18-28.213q-5.883-6.208-11.438-11.763l-4.14-4.14c-3.376-3.16-6.753-6.317-9.802-9.149a213.48 213.48 0 0 0-25.489-19.606 125.453 125.453 0 0 0-5.01-3.16c-5.555-3.376-11.11-6.427-16.775-9.15a272.881 272.881 0 0 0-26.577-11.11c-5.774-2.178-11.763-4.247-17.863-6.316-9.477-3.269-19.28-6.537-29.846-10.24-.98-.436-1.96-.653-2.832-1.089a4.552 4.552 0 0 1-1.089-.436c-12.309-4.248-24.617-8.606-36.6-13.506-2.504-1.09-5.01-2.07-7.515-3.269a13.284 13.284 0 0 1-1.851-.762c-7.407-3.376-15.467-10.674-22.875-16.011a.107.107 0 0 0-.11-.11 108.089 108.089 0 0 1 4.686 31.807 126.78 126.78 0 0 1-1.692 19.713Z" style="mix-blend-mode:multiply"/><path fill="#fbedcd" d="M502.219 757.852c-6-.678-11.812 2.093-17.802 2.854s-13.518-1.888-14.2-7.886c-.267-2.346.612-4.654.93-6.992 1.444-10.577-9.265-19.643-19.902-20.55-10.635-.907-20.829 3.908-30.415 8.603-3.385-6.856 1.148-15.016 6.57-20.407 5.423-5.39 12.168-10.116 14.593-17.367 3.293-9.852-3.19-20.927-12.288-25.938-5.51-3.035-11.695-4.305-18.014-4.679-46.167 6.88-90.875 29.52-116.185 68.367-28.348 43.511-25.34 108.264 14.27 141.848 23.447 19.88 56.008 26.75 86.582 23.54 25.149-2.64 52.91-15.155 59.026-39.692 2.95-11.835.262-24.576 3.543-36.322 5.533-19.797 27.04-31.594 47.561-32.76a98.556 98.556 0 0 1 26.172 2.41q-4.784-8.126-9.566-16.256c-4.932-8.38-11.212-17.68-20.875-18.773Z"/><path fill="#ff8122" d="M849.616 645.028c-9.109-35.105-34.743-84.638-70.56-96.897 13.847 32.39 20.577 63.919 7.213 98.9-13.117 34.33-44.798 60.902-80.887 67.84-42.132 8.1-84.447-9.054-124.873-23.423-48.931-17.392-100.35-31.263-152.164-27.8-5.553.37-11.113 1.016-16.654 1.842 6.32.374 12.504 1.644 18.014 4.68 9.098 5.01 15.58 16.085 12.288 25.937-2.425 7.25-9.17 11.978-14.594 17.367-5.421 5.39-9.954 13.55-6.569 20.407 9.586-4.695 19.78-9.51 30.416-8.604 10.636.908 21.345 9.974 19.902 20.55-.32 2.34-1.198 4.647-.931 6.993.682 5.998 8.21 8.647 14.2 7.886s11.802-3.532 17.802-2.854c9.663 1.093 15.943 10.393 20.875 18.773q4.784 8.127 9.566 16.257c11.44 2.436 22.721 6.252 33.858 9.89 44.277 14.467 90.465 25.912 136.962 23.116s93.747-21.524 122.45-58.21c26.584-33.974 34.52-80.894 23.686-122.65Z"/><g fill="#e6e7e8" style="mix-blend-mode:multiply"><path d="M521.289 773.644c-21.25-.439-42.05 3.267-60.73 15.38-33.497 21.717-40.365 65.285-35.436 102.638 14.507-6.494 26.497-17.006 30.26-32.109 2.949-11.835.263-24.576 3.544-36.322 5.532-19.797 27.04-31.594 47.561-32.76a98.55 98.55 0 0 1 26.172 2.41l-9.566-16.256a141.945 141.945 0 0 0-1.805-2.981Z"/><path d="M835.159 723.189c-22.043 36.01-57.54 64.692-99.156 74.118-46.55 10.543-95.552-1.244-141.04-11.623-23.407-5.342-48.847-11.53-73.674-12.04.62.997 1.224 1.995 1.805 2.981l9.566 16.257c11.44 2.436 22.721 6.252 33.858 9.89 44.277 14.467 90.465 25.913 136.96 23.116 46.499-2.798 93.749-21.525 122.453-58.21 19.877-25.404 29.312-58.048 28.286-90.356-4.256 15.861-10.133 31.285-19.058 45.867Z"/></g><path fill="#d6661a" d="M828.773 627.526c-.892.041-1.445-1.64-.277-1.477.861.11.833 1.45.277 1.477Zm-9.002-21.317c.346 1.42-2.487 1.531-1.355-.143.396-.584 1.088-.953 1.355.143Z"/><path fill="#c6af8b" d="M819.711 591.141c-.243-.083-.072-.356-.006-.51a1.829 1.829 0 0 1 .397-.621.92.92 0 0 1 .434-.248.478.478 0 0 1 .598.574 1.468 1.468 0 0 1-.84.713.857.857 0 0 1-.583.092Z"/><path fill="#d6661a" d="M822.288 622.971a.657.657 0 0 1-.467.364.781.781 0 0 1-.677-.374 2.08 2.08 0 0 1-.33-.686.667.667 0 0 1 .27-.818 1.088 1.088 0 0 1 .36-.096 1.503 1.503 0 0 1 .757.084c.68.298.332 1.107.087 1.526Zm4.039 37.174c.187 3.2-3.19 4.554-2.26.858.524-2.113 2.109-3.001 2.26-.858Zm4.108 19.578c-2.553-.589-2.604-6.157.575-4.788 2.35.978 1.023 5.14-.575 4.788Zm12.787-13.469c-3.413-.468-4.078-7.957.246-6.552 3.195.98 1.888 6.822-.246 6.552Zm-25.947 6.446c-.87-.198-.928-1.994.152-1.52.799.339.393 1.643-.152 1.52Zm15.449-30.148c.053 2.396-3.922 1.632-1.842-.677.725-.809 1.8-1.17 1.842.677Zm-17.973 6.488c-.087 1.527-2.835.83-1.255-.532.55-.477 1.321-.646 1.255.533Zm20.237 6.496c.79 3.047-4.24 3.106-2.447-.38.625-1.212 1.825-1.951 2.447.38Zm-15.678-21.844c-.207-.164.04-.387.149-.522a1.852 1.852 0 0 1 .566-.508.889.889 0 0 1 .489-.114.51.51 0 0 1 .394.774 1.436 1.436 0 0 1-1.015.46.818.818 0 0 1-.583-.09Zm-6.995 32.79a.664.664 0 0 1-.554.23.767.767 0 0 1-.545-.55 2.16 2.16 0 0 1-.125-.765.7.7 0 0 1 .493-.734 1.013 1.013 0 0 1 .375.004 1.451 1.451 0 0 1 .705.288c.57.477.005 1.18-.349 1.527Zm28.341 10.636a1.348 1.348 0 0 1 1.925.092 3.225 3.225 0 0 1 .374 1.972 5.311 5.311 0 0 1-.27 1.806 1.886 1.886 0 0 1-1.285 1.4 2.302 2.302 0 0 1-1.854-.895 2.822 2.822 0 0 1-.686-.934c-.544-1.42.768-2.68 1.796-3.44Zm-34.466 26.516c-.674 3.11-4.29 3.496-2.408.212 1.068-1.878 2.832-2.302 2.407-.212Zm37.921 3.351a1.532 1.532 0 0 1 .062.943c-.461 2.572-1.415 5.114-3.802 6.49-2.005 1.248-4.207 1.107-3.624-1.679a10.61 10.61 0 0 1 2.928-4.8c.784-.73 3.51-2.61 4.436-.954Zm-7.497-11.252c3.147 3.642-4.92 9.428-5.514 4.48-.365-2.997 3.879-6.28 5.514-4.48Zm-31.62 27.712c-2.292-1.27-.856-6.572 1.836-4.395 1.998 1.574-.397 5.174-1.836 4.395Zm24.764-32.821c-2.522-.721-2.006-6.201 1.005-4.706 2.313 1.11.557 5.132-1.005 4.706Zm-6.466 47.226c-2.014-.877-.914-4.32-.217-5.705a4.92 4.92 0 0 1 2.16-2.427c.959-.39 2.882-.217 3.274.836a2.528 2.528 0 0 1-.291 1.995c-.326.624-.77 1.188-1.06 1.828-.527 1.157-2.204 4.184-3.866 3.472Zm-2.445-23.838c-3.165-1.362-1.8-8.717 1.995-6.219 2.822 1.79-.009 7.049-1.995 6.22Zm26.299-20.142c-3.166-1.364-1.8-8.719 1.994-6.22 2.821 1.791-.009 7.05-1.994 6.22Zm-10.516 36.861c-3.167-1.363-1.802-8.718 1.994-6.219 2.822 1.79-.009 7.05-1.995 6.22Zm-42.397-17.604c-.783-.43-.367-2.142.546-1.394.677.542-.056 1.662-.546 1.394Zm22.782-24.738c-.6 2.328-4.232.539-1.596-1.143.92-.59 2.056-.654 1.596 1.143Zm-19.035 1.545c-.489 1.43-2.955.029-1.07-.844.659-.306 1.447-.26 1.07.844Zm17.795 11.607c-.051 3.129-4.922 1.841-2.26-1.016.928-.992 2.284-1.38 2.26 1.016Zm-9.291-25.285c-.155-.212.143-.364.286-.465a2.409 2.409 0 0 1 .657-.355.77.77 0 0 1 .483.01.54.54 0 0 1 .217.878 1.45 1.45 0 0 1-1.105.175.809.809 0 0 1-.538-.243Zm-15.379 29.63a.667.667 0 0 1-.593.063.772.772 0 0 1-.38-.67 2.036 2.036 0 0 1 .08-.752.672.672 0 0 1 .663-.552 1.083 1.083 0 0 1 .36.109 1.479 1.479 0 0 1 .602.465c.423.607-.303 1.111-.732 1.337Zm24.422 17.887a1.356 1.356 0 0 1 1.829.612 3.176 3.176 0 0 1-.175 1.986 5.309 5.309 0 0 1-.75 1.653 1.878 1.878 0 0 1-1.618.987c-.702-.075-1.192-.745-1.54-1.365a2.817 2.817 0 0 1-.407-1.08c-.14-1.507 1.464-2.348 2.66-2.793Zm-39.98 15.093c-1.488 2.695-4.96 1.91-2.309-.56 1.508-1.414 3.28-1.255 2.309.56Zm35.064 14.482a1.532 1.532 0 0 1-.21.922c-1.21 2.307-2.782 4.56-5.502 5.15-2.298.6-4.361-.192-2.976-2.667a10.753 10.753 0 0 1 4.166-3.76c.959-.473 4.108-1.497 4.522.355Zm-22.985 40.957c-1.765-3.07 5.264-9.949 6.768-5.412 1.13 3.338-5.635 7.35-6.768 5.412Zm18.978-53.846c1.994 4.37-7.352 7.578-6.529 2.685.486-2.957 5.46-4.858 6.53-2.685Zm-37.867 16.486c-1.738-1.954 1.15-6.418 3.018-3.502 1.401 2.122-1.916 4.708-3.018 3.502Zm32.71-23.289c-2.217-1.408-.214-6.403 2.195-4.214 1.99 1.776-.817 5.065-2.195 4.214Zm19.136 20.897c-2.954-1.827.416-9.406 3.73-6.313 2.486 2.248-1.86 7.434-3.73 6.313Zm-39.186 21.937c-1.62-1.477.52-4.393 1.616-5.48a4.897 4.897 0 0 1 2.814-1.61c1.032-.063 2.81.707 2.85 1.827a2.519 2.519 0 0 1-.91 1.797c-.509.489-1.11.884-1.593 1.399-.868.93-3.434 3.277-4.777 2.068Zm17.916-1.957c-1.17-2.953 7.785-7.291 8.16-3.19.24 3.093-7.48 5.09-8.16 3.19Zm-12.905-21.363c-2.588-2.27.793-8.768 3.684-5.263 2.17 2.539-2.048 6.659-3.684 5.264Zm-24.591-9.43c-.596-.665.264-2.101.892-1.103.47.729-.52 1.516-.892 1.103Zm28.061-15.874c-1.195 2.014-4.168-.736-1.213-1.539 1.033-.282 2.135-.013 1.213 1.54Zm-18.371-4.243c-.827 1.15-2.77-.917-.784-1.11.693-.069 1.422.222.784 1.11Zm13.647 16.267c-.924 2.91-5.161.198-1.857-1.642 1.15-.637 2.547-.587 1.857 1.642Zm-2.116-26.41c-.086-.233.224-.3.368-.373a1.537 1.537 0 0 1 .693-.172.771.771 0 0 1 .457.146.565.565 0 0 1 .002.908 1.22 1.22 0 0 1-1.069-.126.843.843 0 0 1-.45-.382Zm-22.089 22.541a.652.652 0 0 1-.56-.144.797.797 0 0 1-.166-.741 1.874 1.874 0 0 1 .275-.659.596.596 0 0 1 .755-.275 1.173 1.173 0 0 1 .301.22 1.621 1.621 0 0 1 .428.63c.224.697-.578.91-1.033.97Zm17.538 24.673a1.373 1.373 0 0 1 1.537 1.166 3.111 3.111 0 0 1-.776 1.811 5.126 5.126 0 0 1-1.217 1.313 1.836 1.836 0 0 1-1.825.409 2.352 2.352 0 0 1-1.023-1.788 2.827 2.827 0 0 1-.05-1.149c.331-1.46 2.09-1.73 3.354-1.762Zm39.269 8.406c-1.017.348-2.031.125-2.224-.907a5.07 5.07 0 0 1 .779-2.703 9.021 9.021 0 0 1 1.408-2.2 3.08 3.08 0 0 1 2.39-1.293c.928.101 1.434.986 1.748 1.818a3.139 3.139 0 0 1 .272 1.456c-.217 2.054-2.659 3.246-4.373 3.83Zm-80.706-8.49c-2.236 1.938-5.026-.088-1.856-1.386 1.804-.74 3.326.073 1.856 1.386Zm27.167 26.254a1.547 1.547 0 0 1-.517.798c-1.898 1.852-4.247 3.26-7.01 2.827-2.37-.267-3.998-1.757-1.82-3.56a11.633 11.633 0 0 1 5.25-1.952c1.053-.115 4.35-.002 4.097 1.887Zm-37.084 29.509c-.398-3.519 8.875-7.194 8.486-2.423-.268 3.525-8.217 4.654-8.486 2.423Zm51.487-12.683c-4.595 5.86-12.925 1.708-5.435-2.604 4.233-2.417 8.42-1.226 5.435 2.603Zm-13.774-30.32c.397 4.78-9.365 4.574-6.947.257 1.428-2.604 6.66-2.656 6.947-.257Zm-40.393 1.184c-.817-2.48 3.42-5.473 4.02-2.06.475 2.497-3.488 3.597-4.02 2.06Zm37.816-9.314c-1.6-2.1 1.826-5.999 3.396-3.107 1.281 2.3-2.4 4.363-3.396 3.107Zm10.924 26.14c-2.147-2.725 3.628-8.734 5.727-4.71 1.599 2.94-4.348 6.403-5.727 4.71Zm-44.744 6.116c-.91-1.99 2.19-3.863 3.616-4.447a4.884 4.884 0 0 1 3.208-.406c.977.339 2.324 1.73 1.933 2.781a2.528 2.528 0 0 1-1.535 1.312c-.658.256-1.366.39-2.012.682-1.163.527-4.448 1.712-5.21.078Zm17.405 5.104c.028-3.188 10.022-4.011 8.85-.04-.943 2.986-8.951 2.073-8.85.04Zm-4.002-24.676c-1.53-3.073 3.794-7.851 5.22-3.532 1.106 3.15-4.232 5.434-5.22 3.532Zm-18.666-18.234c-.281-.844.99-1.83 1.183-.667.151.855-1.005 1.193-1.183.668Zm30.294-3.89c-1.708 1.44-3.54-2.17-.628-1.855 1.022.107 1.944.747.628 1.855Zm-15.086-10.718c-1.079.729-2.14-1.902-.349-1.31.629.207 1.18.75.349 1.31Zm6.928 20.066c-1.825 2.342-4.721-1.744-1.128-2.206 1.249-.155 2.501.41 1.128 2.206Zm6.228-24.988c-.016-.252.29-.18.45-.17a2.156 2.156 0 0 1 .677.103.826.826 0 0 1 .371.295c.22.334.052.805-.255.828a1.505 1.505 0 0 1-.947-.547.913.913 0 0 1-.297-.51Zm-26.375 12.1a.636.636 0 0 1-.437-.354.822.822 0 0 1 .113-.745 1.738 1.738 0 0 1 .47-.495.537.537 0 0 1 .753.047 1.166 1.166 0 0 1 .185.321 1.694 1.694 0 0 1 .155.746c-.045.726-.821.603-1.239.48Zm6.681 29.524a1.382 1.382 0 0 1 .962 1.669c-.202.648-.874 1.008-1.393 1.37a5.04 5.04 0 0 1-1.611.744 1.793 1.793 0 0 1-1.82-.33 2.375 2.375 0 0 1-.247-2.042 2.872 2.872 0 0 1 .393-1.08c.855-1.223 2.552-.789 3.716-.33Zm19.929 34.154c-1.098-.037-1.97-.611-1.749-1.651.187-.886 1.102-1.604 1.782-2.257a9.467 9.467 0 0 1 2.175-1.559 3.203 3.203 0 0 1 2.756-.358 2.362 2.362 0 0 1 .961 2.331 3.156 3.156 0 0 1-.3 1.465c-.998 1.85-3.779 2.098-5.625 2.03Zm-58.267-50.445c-3.059.844-5.136-2.306-1.327-2.038 2.163.086 3.362 1.414 1.327 2.038Zm15.021 34.643a1.549 1.549 0 0 1-.796.523c-2.49.917-5.21 1.28-7.554-.083-2.056-1.105-2.972-3.079-.24-3.973a10.405 10.405 0 0 1 5.605.162c1.008.315 3.98 1.741 2.985 3.37Zm-44.226 13.993c.673-3.417 10.188-3.733 8.26.618-1.41 3.239-8.707 1.624-8.26-.618Zm50.672 7.195c-6.637 3.53-12.627-3.617-3.962-4.562 4.882-.518 8.273 2.246 3.962 4.562Zm-.457-33.299c-1.549 4.538-10.366.436-6.427-2.55 2.337-1.814 7.116.239 6.427 2.55Zm-39.32-14.192c-.017-2.626 5.489-3.88 4.861-.476-.43 2.507-4.838 2.116-4.861.476Zm40.199 5.712c-.618-2.538 4.013-4.815 4.313-1.416.256 2.496-3.904 2.993-4.313 1.416Zm-.451 28.327c-.871-3.358 6.842-6.549 7.165-2.023.3 3.332-6.579 4.127-7.165 2.023Zm-43.503-11.055c-.21-2.191 3.34-2.877 4.893-2.928a5.127 5.127 0 0 1 3.18.664c.807.63 1.573 2.374.831 3.24a2.623 2.623 0 0 1-1.898.748c-.704.031-1.414-.063-2.117 0-1.264.092-4.709.077-4.889-1.724Zm14.267 10.709c1.184-2.823 10.551.319 7.962 3.51-1.977 2.434-8.78-1.643-7.963-3.51Zm5.585-24.209c-.295-3.444 6.822-5.693 6.413-1.206-.238 3.372-6.207 3.338-6.413 1.206Zm-12.201-23.874c-.008-.894 1.774-1.336 1.555-.179-.153.855-1.55.738-1.555.18Zm32.08 7.928c-2.103.633-2.326-3.41.164-1.951.875.51 1.455 1.465-.164 1.951Zm-9.553-15.725c-1.461.31-1.395-2.523.232-1.35.568.409.896 1.11-.232 1.35Zm-1.766 21.214c-2.759 1.528-3.915-3.316-.173-2.462 1.299.296 2.276 1.268.173 2.461Zm15.662-20.575c.083-.236.328-.048.466.029a1.768 1.768 0 0 1 .56.438.99.99 0 0 1 .217.438c.071.423-.257.685-.54.564a1.53 1.53 0 0 1-.633-.883.94.94 0 0 1-.07-.586Zm-31.37.929a.646.646 0 0 1-.358-.477.787.787 0 0 1 .423-.664 2.317 2.317 0 0 1 .733-.31.71.71 0 0 1 .845.292 1.018 1.018 0 0 1 .082.363 1.443 1.443 0 0 1-.125.753c-.343.669-1.173.298-1.6.043Zm-4.049 29.999a1.32 1.32 0 0 1 .344 1.882 3.36 3.36 0 0 1-1.851.846 5.066 5.066 0 0 1-1.831.14 1.918 1.918 0 0 1-1.665-.95 2.287 2.287 0 0 1 .457-2.006 2.767 2.767 0 0 1 .76-.874c1.271-.84 2.807.174 3.786.962Zm-35.928-27.274c-3.444.14-5.134-3.346-1.054-2.308 2.337.576 3.374 2.191 1.053 2.308Zm7.574 37.601a1.496 1.496 0 0 1-.89.288 9.745 9.745 0 0 1-7.203-2.062c-1.739-1.54-2.22-3.68.65-3.93a8.614 8.614 0 0 1 5.418 1.58c.899.627 3.393 2.827 2.025 4.123Zm-44.924 5.404c1.141-3.356 10.245-2.317 7.708 1.696-1.867 2.983-8.418.423-7.708-1.696Zm45.251 16.742c-6.684 1.717-10.242-6.756-2.3-5.424 4.503.797 6.761 4.243 2.3 5.424Zm8.777-32.156c-2.795 3.99-10.488-2.543-5.81-4.284 2.865-1.039 7.191 2.279 5.81 4.284Zm-37.512-22.938c.328-2.603 6.353-2.885 5.173.356-.836 2.417-5.369 1.293-5.173-.356Zm40.873 15.028c.075-2.588 5.729-3.544 4.955-.25-.538 2.492-4.99 1.888-4.955.25Zm-8.5 27.109c.076-3.466 8.299-4.548 7.247-.157-.752 3.298-7.274 2.318-7.247.157Zm-39.463-19.954c.111-2.208 3.723-2.319 5.287-2.149a4.955 4.955 0 0 1 3.041 1.19c.694.763 1.149 2.614.271 3.34a2.601 2.601 0 0 1-1.986.412c-.694-.089-1.37-.308-2.07-.359-1.267-.084-4.634-.62-4.543-2.434Zm12.04 12.888c1.704-2.623 10.033 2.343 6.877 4.943-2.343 1.945-7.983-3.276-6.877-4.943Zm10.145-22.713c.332-3.43 8.168-4.09 6.792.213-.967 3.228-6.99 1.959-6.792-.213Zm-8.961-25.949c.112-.89 2.136-.993 1.73.109-.285.824-1.796.451-1.73-.109Zm33.694 15.746c-2.532-.057-1.701-4.02.739-1.82.849.754 1.215 1.847-.74 1.82Zm-7.2-18.358c-1.729-.095-1.054-2.847.56-1.257.557.542.772 1.312-.56 1.257Zm-6.536 20.257c-3.216.82-3.441-4.219.347-2.448 1.317.616 2.126 1.805-.347 2.448Zm23.433-15.1c.18-.207.415.034.558.141a1.804 1.804 0 0 1 .531.556.784.784 0 0 1 .11.483.57.57 0 0 1-.838.4 1.327 1.327 0 0 1-.47-1 .766.766 0 0 1 .11-.58Zm-36.919-7.753a.71.71 0 0 1-.335-.552c.016-.29.307-.477.573-.568a2.759 2.759 0 0 1 .874-.147.91.91 0 0 1 .911.476.921.921 0 0 1 .038.377 1.246 1.246 0 0 1-.254.72c-.49.589-1.365.041-1.807-.306Zm-8.929 28.924a1.303 1.303 0 0 1 .045 1.924 3.443 3.443 0 0 1-2.01.5 5.67 5.67 0 0 1-1.88-.153 1.977 1.977 0 0 1-1.547-1.204 2.215 2.215 0 0 1 .76-1.912 2.76 2.76 0 0 1 .906-.739c1.428-.63 2.857.606 3.726 1.584Zm-1.158 39.398a1.56 1.56 0 0 1-.436-2.343 4.534 4.534 0 0 1 2.487-.909 7.773 7.773 0 0 1 2.434-.1 2.713 2.713 0 0 1 2.224 1.225 2.56 2.56 0 0 1-.555 2.46 3.238 3.238 0 0 1-1 1.049c-1.707.989-3.835-.317-5.154-1.382Zm-34.585-71.262c-3.809-.118-5.853-3.745-1.183-2.416 2.634.766 3.781 2.474 1.183 2.416Zm5.912 38.316a1.483 1.483 0 0 1-.906.2 9.727 9.727 0 0 1-6.954-2.622c-1.613-1.632-1.98-3.8.919-3.874a8.557 8.557 0 0 1 5.301 2.01c.857.683 3.123 3.128 1.64 4.286Zm-43.172 5.005c.855-3.483 9.416-3.03 7.07 1.135-1.712 3.009-7.621 1.012-7.07-1.135Zm41.08 16.995c-6.455 1.159-8.897-7.519-1.557-5.561 4.222 1.155 5.89 4.84 1.557 5.56Zm12.249-30.988c-3.224 3.623-10.434-3.684-5.527-4.931 3.067-.72 7.166 3.084 5.527 4.931Zm-39.036-25.246c.125-2.659 6.822-2.956 5.707.323-.806 2.418-5.788 1.329-5.707-.323Zm43.345 17.806c.348-2.576 6.392-2.761 5.184.437-.869 2.363-5.39 1.187-5.184-.437Zm-11.556 25.937c.44-3.431 8.661-3.59 7.051.658-1.17 3.147-7.335 1.5-7.051-.658Zm-37.815-21.248c.002-2.218 3.617-2.476 5.206-2.335a4.865 4.865 0 0 1 3.092 1.14c.713.757 1.177 2.598.304 3.333a2.585 2.585 0 0 1-1.969.44c-.688-.078-1.36-.292-2.054-.315-1.256-.052-4.584-.449-4.579-2.263Zm11.829 12.623c1.74-2.645 9.603 2.585 6.367 5.064-2.339 1.86-7.438-3.438-6.367-5.064Zm10.762-22.425c.382-3.464 8.792-3.607 7.134.643-1.158 3.126-7.368 1.508-7.134-.643Zm-10.802-26.47c.043-.907 2.405-.986 2.026.132-.268.824-2.054.432-2.026-.132Zm37.751 18.578c-2.708-.37-1.488-4.23.957-1.724.85.871 1.135 2.007-.957 1.724Zm-6.923-19.399c-2.01-.293-1.162-2.998.679-1.203.628.622.844 1.423-.68 1.203Zm-8.037 19.731c-3.502.547-3.608-4.555.477-2.427 1.422.74 2.234 2.002-.477 2.427Zm26.862-12.07c.223-.175.464.111.613.244a2.111 2.111 0 0 1 .542.654.762.762 0 0 1 .074.505.64.64 0 0 1-.987.247 1.39 1.39 0 0 1-.425-1.09.677.677 0 0 1 .183-.56Zm-42.444-11.976c-.214-.145-.432-.342-.436-.575-.004-.295.328-.474.635-.554a3.518 3.518 0 0 1 1.027-.111 1.264 1.264 0 0 1 1.118.522.852.852 0 0 1 .07.386 1.06 1.06 0 0 1-.255.72c-.543.577-1.611-.016-2.16-.388Zm-8.45 29.068a1.276 1.276 0 0 1 .107 1.935 3.678 3.678 0 0 1-2.082.504 6.225 6.225 0 0 1-1.972-.122 2.152 2.152 0 0 1-1.674-1.174 2.115 2.115 0 0 1 .692-1.939 2.74 2.74 0 0 1 .915-.763c1.477-.648 3.084.565 4.014 1.56Zm-1.593 39.315a1.605 1.605 0 0 1-.28-2.322 4.023 4.023 0 0 1 2.332-.893 6.742 6.742 0 0 1 2.27-.064 2.359 2.359 0 0 1 2 1.247 2.761 2.761 0 0 1-.68 2.426 3.422 3.422 0 0 1-.995 1.027c-1.634.962-3.496-.357-4.647-1.421Zm-43.546-66.955c-4.37.816-7.928-2-2.13-2.055 3.284.097 5.118 1.483 2.13 2.055Zm15.275 36.375a1.446 1.446 0 0 1-.85.34c-2.513.321-5.049.21-7.198-1.311-1.878-1.23-2.741-3.27.106-3.974a8.528 8.528 0 0 1 5.63.973c.983.522 3.597 2.604 2.312 3.972Z"/><path fill="#c6af8b" d="M505.662 778.337c-.593-3.573 6.83-6.223 6.174-1.447-.446 3.355-5.807 3.637-6.174 1.447Z"/><path fill="#d6661a" d="M545.723 786.035c-5.341 2.173-8.596-5.852-1.903-5.228 3.901.471 5.614 3.897 1.903 5.228Zm6.221-34.473c-2.791 3.886-11.414-2.248-6.578-4.21 3.146-1.208 8.082 2.21 6.578 4.21Zm-47.894-14.946c-.988-2.581 6.08-5.252 6.127-1.784.04 2.562-5.565 3.274-6.127 1.784Zm51.481 7.082c-.011-2.641 6.673-3.204 5.706.079-.703 2.421-5.703 1.553-5.706-.08Zm-8.563 27.098c-.001-3.522 7.97-4.576 6.724-.156-.912 3.2-6.754 2.279-6.724.156Zm-35.691-13.723c-.83-2.086 2.464-3.631 4.034-4.034a4.679 4.679 0 0 1 3.33.022c.936.491 1.958 2.09 1.368 3.065a2.533 2.533 0 0 1-1.7 1.038 16.536 16.536 0 0 0-2.009.404c-1.182.405-4.367 1.131-5.023-.495Zm10.231 10.748c.896-3.117 9.37-.027 6.911 3.18-1.658 2.365-7.38-1.365-6.911-3.18Zm4.258-24.523c-.675-3.478 8.39-5.647 7.692-1.058-.462 3.239-7.309 3.183-7.692 1.058Zm-21.079-21.65c-.328-.86 2.302-1.8 2.326-.617.03.866-2.126 1.152-2.326.617Zm48.911 9.016c-3.203-.106-2.562-4.119.791-1.818 1.16.803 1.683 1.915-.79 1.818Zm-12.905-18.42c-2.563.097-2.335-2.738.493-1.307.958.522 1.45 1.28-.493 1.307Zm-4.04 20.955c-3.733 1.257-5.285-3.728-.098-2.477 1.807.439 3.028 1.508.098 2.477Zm29.123-15.135c.248-.183.593.098.799.228a2.784 2.784 0 0 1 .775.645.705.705 0 0 1 .169.509c-.07.402-.75.518-1.176.284a1.517 1.517 0 0 1-.7-1.09.553.553 0 0 1 .133-.576Zm-52.473-5.276a.79.79 0 0 1 .233.341.873.873 0 0 1-.02.764c-.41.722-1.885.512-2.673.342-.306-.071-.643-.171-.743-.386-.126-.269.2-.572.527-.746m1.908 31.357c.774.373 1.233 1.082.784 1.797-.382.605-1.238.86-1.912 1.185a7.024 7.024 0 0 1-2.003.58 2.373 2.373 0 0 1-2.094-.509 1.997 1.997 0 0 1-.04-2.056 2.645 2.645 0 0 1 .634-1.039c1.25-1.13 3.328-.564 4.631.042Zm21.86 33.859a1.692 1.692 0 0 1-.765-2.14 3.622 3.622 0 0 1 1.722-1.528 5.335 5.335 0 0 1 1.895-.647 1.87 1.87 0 0 1 1.953.683 3.154 3.154 0 0 1-.091 2.517 3.83 3.83 0 0 1-.622 1.25c-1.15 1.371-2.924.536-4.092-.135Z"/><path fill="#c6af8b" d="M457.35 739.137c-3.52 2.805-7.929 1.92-2.863-.806 2.978-1.481 5.28-1.096 2.864.806Zm30.486 25.221a1.432 1.432 0 0 1-.607.677 9.922 9.922 0 0 1-6.967 2.086c-2.226-.235-3.943-1.645-1.732-3.578a8.297 8.297 0 0 1 5.47-1.703c1.104-.028 4.387.742 3.836 2.518Zm-25.666 31.939c-2.12-2.91 3.421-8.747 5.007-4.203 1.126 3.203-3.694 6.01-5.007 4.203Zm35.672-12.389c-3.38 4.167-9.673-1.68-3.766-3.93 3.485-1.252 6.251 1.259 3.766 3.93Z"/><path fill="#d6661a" d="M491.545 751.203c-.939 4.648-11.527 3.052-7.98-.88 2.366-2.517 8.548-1.603 7.98.88Z"/><path fill="#c6af8b" d="M441.86 759.828c-2.02-1.852 2.845-7.369 4.495-4.307 1.22 2.248-3.323 5.38-4.495 4.307Z"/><path fill="#d6661a" d="M491.571 742.538c-1.203-2.442 5.238-5.735 5.642-2.335.306 2.518-4.95 3.747-5.642 2.336Z"/><path fill="#c6af8b" d="M495.227 770.724c-1.52-3.21 5.15-7.472 5.795-2.877.439 3.254-4.913 4.784-5.795 2.877Zm-40.44 8.475c-1.682-1.477.527-4.373 1.738-5.436a4.775 4.775 0 0 1 2.957-1.518c1.055.005 2.706.949 2.634 2.083a2.535 2.535 0 0 1-1.029 1.708c-.529.431-1.11.814-1.597 1.295-.875.892-3.376 3.023-4.703 1.868Zm16.873.303c-.645-3.179 8.247-4.386 7.575-.396-.354 2.835-7.13 2.214-7.575.396Zm-11.163-24.6c-2.232-2.742 4.85-8.938 6.385-4.542 1.062 3.08-5.046 6.257-6.385 4.542Zm-24.952-8.659c-.675-.62 1.144-2.6 1.71-1.564.425.756-1.292 1.951-1.71 1.564Z"/><path fill="#d6661a" d="M483.946 731.631c-3.186 1.386-4.396-2.507-.03-1.989 1.519.205 2.53.975.03 1.99Zm-20.887-10.339c-2.331 1.298-3.443-1.312-.147-1.4 1.152-.015 1.965.412.147 1.4Z"/><path fill="#c6af8b" d="M469.058 741.774c-2.816 2.862-6.56-.821-1.238-2.149 1.856-.46 3.464-.081 1.238 2.149Z"/><path fill="#d6661a" d="M490.879 714.863c.184-.273.678-.166.957-.136a3.428 3.428 0 0 1 1.112.255.69.69 0 0 1 .402.39c.1.396-.576.792-1.135.761a1.67 1.67 0 0 1-1.226-.69c-.132-.17-.242-.383-.11-.58Z"/><path fill="#c6af8b" d="M437.378 736.973a.967.967 0 0 1-.81-.004c-.232-.187-.095-.584.1-.897a4.236 4.236 0 0 1 .792-.92 1.788 1.788 0 0 1 1.372-.57.809.809 0 0 1 .36.198.895.895 0 0 1 .339.684c-.02.825-1.395 1.3-2.153 1.509Zm15.482 26.011c.851-.025 1.585.394 1.522 1.233a4.255 4.255 0 0 1-1.126 1.932 6.823 6.823 0 0 1-1.493 1.415 2.325 2.325 0 0 1-2.073.492 2.026 2.026 0 0 1-.978-1.81 2.687 2.687 0 0 1 .08-1.207c.572-1.57 2.658-1.976 4.068-2.055Zm26.554 28.904a1.696 1.696 0 0 1-1.683-1.535 3.728 3.728 0 0 1 .814-2.162 4.97 4.97 0 0 1 1.354-1.448 1.836 1.836 0 0 1 2.028-.289 3.185 3.185 0 0 1 1.09 2.269 3.831 3.831 0 0 1 .036 1.392c-.367 1.75-2.296 1.785-3.639 1.773Zm-77.835-9.884c-1.933 3.985-6.278 4.975-2.902.46 2.012-2.564 4.246-3.164 2.902-.46Zm38.267 9.758a1.422 1.422 0 0 1-.253.874 9.9 9.9 0 0 1-5.378 4.915c-2.117.748-4.27.208-3.106-2.482a8.227 8.227 0 0 1 4.19-3.898c.981-.505 4.265-1.25 4.547.59Zm-9.956 40.135c-3.105-1.793-.397-9.496 2.91-6.006 2.352 2.459-.97 7.128-2.91 6.006Zm16.993-2.601c-1.027 7.17-10.852 2.042-4.062-3.554 2.369-1.846 5.035-1.955 4.062 3.554Zm10.56-24.375c-1.3 5.32-9.575 2.825-5.149-1.84 2.622-2.698 6.275-1.702 5.149 1.84Zm-20.048-26.592c1.223 4.583-8.973 7.736-7.514 2.667 1.023-3.27 6.913-5.14 7.514-2.667Zm-40.967 28.621c-2.587-.863-.525-7.793 2.256-5.694 2.037 1.53-.74 6.206-2.256 5.694Zm37.145-36.388c-2.135-1.661 2.038-7.404 3.93-4.54 1.401 2.109-2.688 5.5-3.93 4.54Zm15.729 23.663c-2.764-2.2 1.348-9.005 3.975-5.187 1.849 2.717-2.332 6.525-3.975 5.187Zm-33.124 25.066c-2.136-.652-1.332-4.208-.666-5.67a4.847 4.847 0 0 1 2.051-2.608c.96-.434 2.856-.267 3.265.794a2.54 2.54 0 0 1-.223 1.983c-.287.625-.672 1.206-.913 1.848-.438 1.17-1.82 4.165-3.514 3.653Zm15.502-6.825c-1.915-2.604 5.643-7.53 6.736-3.628.875 2.724-5.565 5.101-6.736 3.628Zm-17.008-18.184c-3.167-1.54.516-10.081 3.784-6.778 2.291 2.325-1.838 7.771-3.784 6.778Zm-29.626 2.928c-.867-.29-.065-2.79.88-2.083.702.511-.34 2.267-.88 2.083Zm36.939-33.14c-2.197 2.608-4.982-.365-.909-1.764 1.43-.462 2.663-.205.91 1.764Zm-23.067-.438c-1.503 2.126-3.628.25-.741-1.193 1.007-.496 1.913-.453.741 1.193Zm14.264 15.868c-1.278 3.754-6.216 2.007-2.039-1.41 1.46-1.191 3.06-1.527 2.04 1.41Zm7.363-33.347c.036-.321.515-.434.769-.526a3.256 3.256 0 0 1 1.08-.245.691.691 0 0 1 .525.176c.266.31-.14.95-.64 1.159a1.636 1.636 0 0 1-1.376-.093c-.192-.098-.384-.24-.358-.47Zm-37.761 42.007c-.224.193-.5.377-.729.318-.288-.075-.332-.486-.289-.846a3.866 3.866 0 0 1 .31-1.144c.2-.464.555-.971.987-1.058a.82.82 0 0 1 .407.033.917.917 0 0 1 .593.48c.339.75-.706 1.72-1.28 2.217Zm24.91 17.198c.744-.381 1.595-.297 1.887.487a4.134 4.134 0 0 1-.205 2.213 6.76 6.76 0 0 1-.766 1.893 2.3 2.3 0 0 1-1.678 1.29c-.74.024-1.268-.62-1.637-1.244a2.675 2.675 0 0 1-.43-1.124c-.136-1.655 1.585-2.868 2.83-3.515Zm36.27 15.032a1.682 1.682 0 0 1-2.187-.665 3.747 3.747 0 0 1-.153-2.324 4.918 4.918 0 0 1 .625-1.918 1.895 1.895 0 0 1 1.736-1.15 3.134 3.134 0 0 1 1.958 1.583 3.79 3.79 0 0 1 .62 1.251c.39 1.75-1.353 2.65-2.599 3.224Zm-75.456 21.69c-.268 4.305-3.95 6.718-2.498 1.438.878-3.035 2.719-4.365 2.498-1.439Zm39.009-5.24a1.436 1.436 0 0 1 .107.905 9.873 9.873 0 0 1-3.071 6.637c-1.684 1.501-3.882 1.81-3.82-1.113a8.209 8.209 0 0 1 2.37-5.198c.72-.837 3.423-2.82 4.414-1.23Zm5.343 41.944c-3.49-.795-3.567-9.5.723-7.251 3.117 1.264 1.471 7.707-.724 7.25Zm15.128-9.273c1.55 7.327-9.458 6.043-5.067-1.86 1.556-2.668 4.029-3.83 5.067 1.86Zm.924-27.587c.824 5.576-7.81 6.631-5.491.425 1.382-3.607 5.16-4.21 5.491-.425Zm15.519 5.659c.823 5.575-7.81 6.63-5.492.424 1.384-3.607 5.163-4.209 5.492-.424Zm0 21.277c.823 5.575-7.81 6.63-5.492.424 1.384-3.606 5.163-4.21 5.492-.425Zm-44.486-43.367c2.967 3.721-5.15 10.533-5.81 5.335-.345-3.356 4.258-7.348 5.81-5.335Zm-27.052 41.069c-2.73.172-3.33-6.78.034-5.878 2.441.706 1.537 5.998-.034 5.878Zm20.437-46.633c-2.605-.673-1.187-7.5 1.713-5.65 2.13 1.348-.184 6.048-1.714 5.65Zm23.867 15.402c-3.392-.915-2.342-8.837 1.595-6.41 2.8 1.734.462 6.988-1.594 6.41Zm-21.503 35.967c-2.217.123-2.737-3.475-2.634-5.076a4.94 4.94 0 0 1 .98-3.164c.739-.75 2.567-1.277 3.33-.435a2.562 2.562 0 0 1 .507 1.935c-.033.69-.197 1.369-.191 2.057 0 1.242-.218 4.561-1.992 4.683Zm12.038-12.038c-2.718-1.719 2.484-9.187 4.951-5.961 1.822 2.231-3.311 6.926-4.951 5.961Zm10.062 29.626c-2.718-1.72 2.484-9.187 4.951-5.961 1.822 2.23-3.311 6.925-4.951 5.96Zm-32.57-40.271c-3.494-.279-3.32-9.41.941-7.588 3.012 1.284 1.24 7.803-.941 7.588Zm6.693 44.951c-3.494-.277-3.319-9.408.94-7.588 3.012 1.286 1.241 7.803-.94 7.588Zm-33.158-31.898c-.914.03-1.065-2.527.071-2.206.838.227.497 2.19-.071 2.206Zm21.399-43.178c-.934 3.174-4.66 1.536-1.54-1.249 1.11-.953 2.336-1.188 1.54 1.249Zm-21.157 7.963c-.55 2.437-3.227 1.501-1.143-.807.725-.8 1.572-1.082 1.143.807Zm19.241 9.205c.262 3.875-4.95 4.06-2.42-.542.884-1.604 2.23-2.492 2.42.542Zm-6.731-32.717c-.101-.302.283-.584.475-.763a3.076 3.076 0 0 1 .872-.63.697.697 0 0 1 .546-.043c.368.176.268.906-.096 1.282a1.597 1.597 0 0 1-1.281.44c-.213-.013-.445-.07-.516-.286Zm-18.122 51.243c-.14.253-.33.515-.564.538-.294.03-.485-.329-.576-.669a4.01 4.01 0 0 1-.136-1.148 1.603 1.603 0 0 1 .53-1.295.83.83 0 0 1 .39-.108.945.945 0 0 1 .727.23c.59.567-.03 1.803-.371 2.452Zm29.419 7.131a1.245 1.245 0 0 1 1.926-.218 3.96 3.96 0 0 1 .61 2.125 6.632 6.632 0 0 1-.041 2.025 2.268 2.268 0 0 1-1.107 1.786 2.058 2.058 0 0 1-1.972-.581 2.695 2.695 0 0 1-.804-.892c-.716-1.485.456-3.21 1.388-4.245Zm39.273.779a1.667 1.667 0 0 1-2.29.208 3.8 3.8 0 0 1-.977-2.149 5.073 5.073 0 0 1-.12-2.065 1.99 1.99 0 0 1 1.205-1.767 3.053 3.053 0 0 1 2.41.736 3.703 3.703 0 0 1 1.034.946c.988 1.507-.292 3.068-1.262 4.091Zm-65.709 15.682c-.347 1.576-2.689-.355-1.65-1.195.531-.489 1.788.167 1.65 1.195Zm25.962 2.324c1.818 1.554.98 3.863-.64 4.868-1.547 1.072-3.705.756-4.052-1.293-.56-2.494 2.785-5.038 4.692-3.575ZM348.8 895.027c-1.855-1.899 2.368-7.05 4.01-3.977 1.294 2.175-2.818 5.126-4.01 3.977Zm25.964-19.167c-2.432-.695-3.655-4.32-.409-3.425 2.497.617 2.019 3.814.409 3.425Zm25.622 12.838c-3.158-.735-3.375-9.744.786-8.38 3.352.955 1.515 8.835-.786 8.38Zm-33.078 3.338c-2.288-2.502-.581-7.275 2.563-4.13 2.554 2.416-.996 5.69-2.563 4.13Zm-24.837-10.546c-.636-.644.892-2.461 1.438-1.406.459.73-1.033 1.8-1.438 1.406Zm20.103-8.474c.072 1.183-3.565-.703-1.74-.934.634-.103 1.644.031 1.74.934Zm-15.072-6.484c.225.293-1.92-1.623-1.061-.88a12.083 12.083 0 0 1 1.06.88Zm16.212 14.241c.086 2.179-3.862-.777-1.97-1.55.628-.284 1.74-.12 1.97 1.55Zm-14.701-14.518c-.224-.073-.03-.04.048-.03l.449.062.446.09c.397.093.65.206.513.208a5.3 5.3 0 0 1-.885-.172l-.57-.158Zm-5.707 6.564a.782.782 0 0 1-.696-.072c-.218-.194-.141-.556-.007-.833a3.952 3.952 0 0 1 .526-.798.936.936 0 0 1 .97-.389.92.92 0 0 1 .312.218 1.235 1.235 0 0 1 .376.664c.1.771-.846 1.05-1.48 1.21Z"/><path fill="#e8d5a8" d="M208.862 852.316c-1.61.512-3.293.88-4.976 1.317-24 5.927-54.364 7.902-68.266-12.51-10.317-15-5.707-36.074 5.926-50.341a82.613 82.613 0 0 1 44.194 21.366 83.396 83.396 0 0 1 23.122 40.168Z"/><path fill="#181413" d="M512.221 449.153c-32.934 30.638-282.802 24.158-335.3 18.714-70.2-7.257-64.518-34.577-54.55-87.402.514-2.799 1.072-5.701 1.631-8.656a734.866 734.866 0 0 0 2.749-15.81q.628-4.123 1.257-8.4v-.103a222.07 222.07 0 0 0 1.118-8.347v-.155q.42-3.577.839-7.308c.372-3.32.652-6.74.93-10.214.187-2.8.374-5.598.514-8.501v-.156c0-.259.047-.466.047-.726v-.052c.14-1.969.185-3.888.232-5.909.046-.57.046-1.193.046-1.815.094-2.643.14-5.39.14-8.138 0-2.645.047-5.236.187-7.828.093-2.955.232-5.91.466-8.812.233-3.112.558-6.274.978-9.332v-.104c.186-1.97.466-3.939.791-5.857a208.359 208.359 0 0 1 9.131-37.636c14.347-41.73 41.086-77.19 75.37-100.62a173.184 173.184 0 0 1 31.258-17.056 154.673 154.673 0 0 1 17.887-6.376 136.846 136.846 0 0 1 12.018-3.058 139.265 139.265 0 0 1 14.022-2.436l.979-.157c3.074-.362 6.194-.673 9.316-.828 3.214-.26 6.521-.363 9.782-.415.559-.052 1.024-.052 1.584-.052 5.87 0 11.692.26 17.422.778 2.84.259 5.59.517 8.385.88a5.153 5.153 0 0 1 .885.104 195 195 0 0 1 11.226 1.867c5.357 1.037 10.621 2.28 15.791 3.784a190.637 190.637 0 0 1 13.23 4.354 173.535 173.535 0 0 1 33.726 16.745c35.31 22.55 61.815 57.593 74.532 101.345a215.37 215.37 0 0 1 8.152 52.877 3.282 3.282 0 0 1 .047.674c.093 3.37.233 6.636.465 9.901.28 4.822.699 9.487 1.211 14.05.187 1.813.373 3.576.607 5.338.139 1.037.325 2.074.465 3.11.094.519.14 1.09.232 1.556 0 .156.047.26.047.415.42 2.903.885 5.702 1.352 8.5.744 4.511 1.583 8.866 2.562 13.065.139.777.279 1.555.465 2.28a301.453 301.453 0 0 0 1.91 8.296c.187.776.372 1.502.559 2.228.465 1.918.979 3.837 1.444 5.702l.699 2.644c1.258 4.614 2.515 9.073 3.726 13.324q1.608 5.598 3.075 10.886c8.618 30.326 13.183 51.477-5.637 68.842Z"/><path fill="#ff8122" d="M524.2 450.395c-34.697 29.004-297.947 22.87-353.258 17.717-73.958-6.871-67.971-32.734-57.468-82.745.539-2.65 1.129-5.398 1.717-8.196a625.06 625.06 0 0 0 2.895-14.968q.664-3.9 1.325-7.95v-.098a191.28 191.28 0 0 0 1.179-7.902v-.147q.441-3.387.883-6.92c.393-3.142.687-6.38.981-9.668.197-2.65.393-5.301.54-8.049v-.147c0-.245.049-.443.049-.688v-.049c.148-1.864.197-3.68.246-5.594.05-.54.05-1.13.05-1.718.097-2.503.146-5.104.146-7.705 0-2.503.05-4.958.197-7.41.097-2.798.245-5.595.49-8.343.245-2.946.589-5.94 1.03-8.835v-.098c.197-1.864.49-3.73.834-5.545a180.927 180.927 0 0 1 9.62-35.631 193.4 193.4 0 0 1 79.407-95.259 189.71 189.71 0 0 1 32.932-16.146 175.543 175.543 0 0 1 18.845-6.036 157.59 157.59 0 0 1 12.661-2.897c4.86-.981 9.767-1.767 14.774-2.306l1.03-.148c3.24-.343 6.527-.638 9.815-.784 3.386-.245 6.871-.344 10.307-.393.588-.05 1.078-.05 1.668-.05 6.183 0 12.318.247 18.355.737 2.993.245 5.89.49 8.834.834a5.988 5.988 0 0 1 .932.098c3.976.492 7.951 1.08 11.828 1.767 5.644.982 11.19 2.16 16.637 3.582a218.4 218.4 0 0 1 13.939 4.123 191.903 191.903 0 0 1 35.53 15.852c37.202 21.35 65.127 54.525 78.524 95.947a184.914 184.914 0 0 1 8.59 50.058 2.787 2.787 0 0 1 .049.638c.097 3.19.245 6.282.49 9.374a221.67 221.67 0 0 0 1.276 13.3c.197 1.718.393 3.387.639 5.055.146.982.343 1.963.49 2.945.098.491.148 1.03.245 1.472 0 .147.05.245.05.393.441 2.747.931 5.399 1.423 8.049.785 4.27 1.668 8.392 2.699 12.367.146.736.294 1.473.49 2.16.64 2.699 1.326 5.3 2.013 7.851.196.737.392 1.424.59 2.11.49 1.817 1.03 3.632 1.52 5.4q.37 1.252.736 2.503a1048.29 1048.29 0 0 0 3.926 12.612q1.694 5.301 3.24 10.307c9.08 28.709 13.889 48.733-5.94 65.174Z"/><path fill="#fbedcd" d="M524.2 450.395c-34.697 29.004-297.168 34.498-359.494 24.263-73.296-12.035-61.735-39.28-51.232-89.29.539-2.65 1.129-5.4 1.717-8.197a625.06 625.06 0 0 0 2.895-14.968q.664-3.9 1.325-7.95v-.098a191.28 191.28 0 0 0 1.179-7.902c24.98 13.447 57.371 13.054 83.774 1.374 32.342-14.33 56.538-42.894 73.076-74.156 4.86-9.128 9.227-18.65 16.05-26.452 6.821-7.755 16.685-13.644 26.992-12.712 10.846.934 19.827 9.178 25.373 18.552 5.545 9.374 8.49 20.024 12.857 29.986 17.473 39.9 57.912 66.893 100.658 75.334a195.837 195.837 0 0 0 62.868 1.62q.37 1.252.736 2.503a1048.29 1048.29 0 0 0 3.926 12.612q1.694 5.301 3.24 10.307c9.08 28.709 13.889 48.733-5.94 65.174Z"/><path fill="none" stroke="#623906" stroke-linecap="round" stroke-miterlimit="10" stroke-width=".349" d="M319.55 309.171c-.344 5.975-1.73 12.935 1.23 18.265 2.301 4.146 6.567 7.413 9.865 10.76q6.052 6.14 12.101 12.28"/><path fill="none" stroke="#623906" stroke-linecap="round" stroke-miterlimit="10" stroke-width=".349" d="m295.812 350.344 12.1-12.279c3.3-3.347 9.549-9.915 11.851-14.062"/><path fill="#623906" d="M336.848 297.8a61.72 61.72 0 0 1-7.448 7.384c-3.249 2.919-6.834 5.53-10.23 8.278-.262.212-8.278-6.636-8.822-7.14-3.342-3.102-7.587-6.042-9.44-10.385-1.589-3.723-.968-8.667 2.375-10.95 2.613-1.787 6.105-1.545 9.177-.785s6.103 1.972 9.268 1.903c2.62-.055 5.131-.99 7.705-1.492 2.573-.5 5.462-.495 7.55 1.09 2.719 2.062 3.085 6.231 1.627 9.317a15.157 15.157 0 0 1-1.762 2.78Z"/><path fill="#fff" d="M442.735 264.363a23.447 23.447 0 1 1-23.446-23.445 23.447 23.447 0 0 1 23.446 23.445Z"/><path fill="#623906" d="M433.971 264.363a14.683 14.683 0 1 1-14.682-14.68 14.683 14.683 0 0 1 14.682 14.68Z"/><path fill="#fff" d="M256.241 264.363a23.446 23.446 0 1 1-23.445-23.445 23.447 23.447 0 0 1 23.445 23.445Z"/><path fill="#623906" d="M247.477 264.363a14.682 14.682 0 1 1-14.681-14.68 14.682 14.682 0 0 1 14.681 14.68Z"/><path fill="#d6661a" d="M266.84 122.265a157.59 157.59 0 0 1 12.661-2.897q-.073 27.827-.049 55.654c0 2.944-.343 6.479-2.993 7.754-3.583 1.718-7.117-2.306-8.981-5.791a238.431 238.431 0 0 1-19.483-48.684 175.543 175.543 0 0 1 18.845-6.036Zm77.444-5.007a428.637 428.637 0 0 1-16.589 84.315c-1.766 5.742-5.201 12.613-11.19 12.319-6.33-.344-8.832-8.246-9.618-14.478-3.582-27.581-10.11-54.77-12.612-82.352l1.03-.148c3.24-.343 6.527-.638 9.815-.784 3.386-.245 6.871-.344 10.307-.393.588-.05 1.078-.05 1.668-.05 6.183 0 12.318.247 18.355.737 2.993.245 5.89.49 8.834.834Zm43.336 9.57a132.726 132.726 0 0 1-23.51 48.685c-1.962 2.552-4.612 5.3-7.802 4.81-2.357-.392-4.122-2.552-4.76-4.81a20.364 20.364 0 0 1-.099-7.116c1.865-16.44 3.73-32.833 5.595-49.274 5.644.982 11.19 2.16 16.637 3.582a218.41 218.41 0 0 1 13.939 4.123Zm125.098 190.224q-27.018-1.03-54.133-2.16c-3.73-.146-7.656-.343-10.896-2.257-3.238-1.915-5.448-6.184-3.778-9.57 1.521-3.043 5.251-4.074 8.539-4.81q23.263-5.079 46.428-10.208c3.19-.687 6.724-1.668 8.244-4.564 1.914-3.73-1.129-8.442-5.055-10.012-3.925-1.52-8.293-.833-12.465-.343a105.662 105.662 0 0 1-31.213-1.276c-2.21-.393-4.958-1.62-4.76-3.829.146-1.52 1.619-2.452 2.944-3.189 11.091-6.184 22.182-12.416 33.224-18.6 2.504-1.375 7.02-4.663 11.877-7.607a184.914 184.914 0 0 1 8.59 50.058 2.787 2.787 0 0 1 .049.638c.097 3.19.245 6.282.49 9.374a221.67 221.67 0 0 0 1.276 13.3c.197 1.718.393 3.387.639 5.055Zm4.907 25.226c-9.717-1.031-18.944-5.251-27.925-9.423-1.276-.589-2.798-1.62-2.503-2.994.197-1.178 1.571-1.717 2.748-2.012 7.804-2.16 15.656-4.269 23.508-6.38 0 .147.05.245.05.393.441 2.747.931 5.399 1.423 8.049.785 4.269 1.668 8.392 2.699 12.367Zm-372.202-14.379c.245 1.422-1.276 2.452-2.552 3.042-6.92 3.239-14.037 6.478-21.398 8.245.393-3.142.687-6.38.981-9.668.197-2.65.393-5.301.54-8.049v-.147c0-.245.049-.443.049-.688a1693.49 1693.49 0 0 1 19.631 5.3c1.179.296 2.504.786 2.749 1.965Zm-19.387-52.562a180.927 180.927 0 0 1 9.62-35.631c2.945 1.964 5.497 3.68 7.117 4.614q16.637 9.274 33.274 18.6c1.275.736 2.748 1.668 2.896 3.19.196 2.208-2.553 3.436-4.76 3.827a105.351 105.351 0 0 1-31.165 1.228c-4.22-.442-8.588-1.13-12.515.393a9.32 9.32 0 0 0-4.467 3.779Zm58.894 35.383c-3.24 1.915-7.166 2.11-10.945 2.259-16.882.687-33.813 1.325-50.696 2.012.05-.54.05-1.13.05-1.718.097-2.503.146-5.104.146-7.705 0-2.503.05-4.958.197-7.41.097-2.798.245-5.595.49-8.343.245-2.946.589-5.94 1.03-8.835.1.196.197.393.295.589 1.473 2.895 5.055 3.878 8.196 4.565 15.509 3.386 30.968 6.82 46.427 10.207 3.288.736 7.067 1.767 8.54 4.81 1.669 3.386-.491 7.606-3.73 9.57Z"/><path fill="none" stroke="#774610" stroke-linecap="round" stroke-miterlimit="10" stroke-width=".311" d="M454.485 303.08a318.203 318.203 0 0 1 169.41 29.8m-171.761-18.792a453.745 453.745 0 0 1 151.936 43.465M456.885 326.53a443.08 443.08 0 0 1 134.232 78.651M176.6 303.08a318.203 318.203 0 0 0-169.41 29.8m171.762-18.792a453.746 453.746 0 0 0-151.936 43.465M174.2 326.53a443.08 443.08 0 0 0-134.23 78.65"/><path fill="#e2cfa3" d="M485.606 427.194c.616 2.137-2.522 2.855-2.095.481.209-1.303 1.677-1.868 2.095-.48Zm35.016-10.354a1.576 1.576 0 0 1 .567.776c.831 2.474 1.124 5.315-.332 7.623-1.193 2.042-3.19 2.74-3.98.069a9.6 9.6 0 0 1 .354-5.393c.44-.964 1.744-3.957 3.391-3.076Zm6.431 47.51c-3.045-1.61-.666-11.243 2.987-8.313 2.825 2.283-.972 9.397-2.987 8.313Zm7.767-52.717c2.313 3.835 1.555 8.037.109 9.534-1.55 1.52-3.31.734-4.168-4.334-.91-5.687.782-10.228 4.06-5.2Zm-26.727.898c2.368.232 2.802 2.59 1.958 4.321-.747 1.743-2.492 2.684-4.044 1.224-1.751-1.74-.228-5.672 2.086-5.545Zm-16.889 30.463c-2.44-.775-2.719-5.573.466-4.174 2.327.986 1.142 4.622-.466 4.174Zm8.458-29.681c-2.367.804-5.366-1.45-2.088-2.584 2.318-.871 3.63 2.007 2.088 2.584Zm28.05-3.917c-1.595.706-3.502-.984-4.486-2.792-1.139-1.775-1.354-3.865.82-4.534 1.595-.503 3.087 1.032 3.933 2.88.767 1.869.709 4.008-.267 4.446Zm-15.327 43.282c-2.134-.383-1.953-3.925-1.65-5.391a5.114 5.114 0 0 1 1.35-2.837c.78-.614 2.648-.972 3.336-.074a2.578 2.578 0 0 1 .316 2l-.491 2.044c-.22 1.23-1.05 4.582-2.861 4.258Zm13.676-11.786c-2.468-1.612 1.902-11.022 4.701-8.045 2.285 2.527-3.015 9.307-4.7 8.045Zm-23.089-9.218c-3.286-.441-5.08-6.112-.648-5.374 3.338.425 2.907 5.536.648 5.374Zm-24.779 4.093c-.85-.26-1.02-1.691.056-1.204.792.35.474 1.362-.056 1.204Zm9.777-17.959c.62.949-3.364 1.434-1.944.219.46-.423 1.36-.869 1.943-.22Zm-15.946 4.015c.342.403-2.483.127-1.35-.137.406-.1 1.105-.163 1.35.137Zm21.159 2.209c1.457 1.972-3.492 2.196-2.45-.069.295-.739 1.283-1.332 2.45.07Zm-20.027-4.055c-.223.067-.036-.016.041-.056l.435-.211c.127-.055.27-.116.429-.182.381-.15.626-.19.502-.107a5.946 5.946 0 0 1-.848.364l-.56.192Zm-.228 10.463a.568.568 0 0 1-.488.1 1.033 1.033 0 0 1-.595-.453 1.519 1.519 0 0 1-.232-.547.345.345 0 0 1 .358-.452 1.404 1.404 0 0 1 .355.043 2.271 2.271 0 0 1 .712.275c.61.394.171.832-.11 1.035Zm28.271 10.821a1.392 1.392 0 0 1 1.885.15 2.94 2.94 0 0 1 .461 1.852 4.636 4.636 0 0 1-.266 1.676 1.687 1.687 0 0 1-1.27 1.25 2.485 2.485 0 0 1-1.83-.941 2.959 2.959 0 0 1-.684-.904c-.57-1.342.784-2.417 1.704-3.083Zm36.834 11.198c-.635 1.046-1.657 1.502-2.382.745-.618-.645-.727-1.919-.898-2.91a11.14 11.14 0 0 1-.12-2.89 4.33 4.33 0 0 1 1.12-2.87 2.127 2.127 0 0 1 2.505.273 3.118 3.118 0 0 1 1.124 1.089c1.132 2.031-.277 4.815-1.35 6.563Zm-72.061 11.351c-.99 3.11-4.73 3.27-2.474.076 1.284-1.837 3.115-2.216 2.474-.077Zm37.512 6.41a1.478 1.478 0 0 1-.013.927 9.237 9.237 0 0 1-4.332 5.972c-2.022 1.077-4.166.756-3.456-1.977a8.536 8.536 0 0 1 3.266-4.437c.88-.61 3.756-2.183 4.535-.486Zm-11.593 44.005c-2.498-2.447 2.312-10.642 4.953-6.724 2.059 2.901-3.298 8.283-4.953 6.724Zm39.13-38.261c-3.155-1.985-.478-10.648 3.25-7.324 2.817 2.579-1.218 8.618-3.25 7.324Zm-3.198 20.024c-2.885 4.867-6.638 4.338-8.363 2.39-1.72-1.974-1.338-5.547 4.56-8.179 4-1.834 8.039-1.674 3.803 5.789Zm-16.076 17.227c-3.65 9.593-12.817 3.462-3.8-3.86 3.002-2.505 6.26-3.357 3.8 3.86ZM524.58 477c-.663 7.16-9.945 7.766-5.936.543 2.278-4.079 6.294-5.34 5.937-.543Zm-27.774-18.432c3.01 3.866-5.553 8.67-5.73 3.828-.101-2.914 4.224-5.704 5.73-3.828Zm-33.225 24.982c-2.205-1.386-.562-6.504 1.998-4.209 1.92 1.701-.599 5.091-1.998 4.21Zm26.697-30.52c-2.368-.921-1.948-6.102 1.017-4.413 2.199 1.21.561 4.975-1.017 4.412Zm23.162 16.406c-3.211-1.158-1.777-9.285 2.086-7.018 2.96 1.693-.004 7.76-2.086 7.018Zm-32.378 29.503c-1.964-1.003-.689-4.293.035-5.637a4.87 4.87 0 0 1 2.201-2.291c.95-.339 2.825-.056 3.18 1.019a2.547 2.547 0 0 1-.342 1.975c-.333.606-.787 1.141-1.1 1.756-.549 1.124-2.354 3.993-3.974 3.178Zm16.416-6.222c-1.811-2.526 5.684-8.45 7.021-4.61 1.027 2.866-5.854 6.24-7.021 4.61Zm-17.621-17.534c-3.075-1.53-1.086-8.906 2.484-6.116 2.665 2.04-.541 7.102-2.484 6.116ZM453.38 472.7c-.754-.47-.273-2.118.596-1.334.648.588-.122 1.638-.595 1.335Zm24.542-23.034c-.74 2.14-4.194.057-1.522-1.243.9-.454 2.007-.4 1.522 1.243Zm-18.956-.52c-.552 1.413-2.89-.188-1.002-.935.658-.261 1.427-.156 1.002.935Zm16.796 13.08c-.22 3.146-5.011 1.552-2.156-1.199.957-.927 2.301-1.21 2.156 1.2Zm-8.025-24.839c-.157-.205.116-.303.246-.376a1.543 1.543 0 0 1 .633-.223.952.952 0 0 1 .478.073c.37.173.443.605.204.772a1.373 1.373 0 0 1-1.039.03.96.96 0 0 1-.522-.276Zm-17.157 27.931a.635.635 0 0 1-.586.042.798.798 0 0 1-.35-.699 2.19 2.19 0 0 1 .11-.766.672.672 0 0 1 .675-.54 1.042 1.042 0 0 1 .35.125 1.497 1.497 0 0 1 .575.5c.393.638-.342 1.123-.775 1.338Zm23.387 19.218a1.34 1.34 0 0 1 1.775.71 3.157 3.157 0 0 1-.237 1.976 5.125 5.125 0 0 1-.801 1.595 1.783 1.783 0 0 1-1.641.87c-.695-.123-1.15-.813-1.465-1.444a2.792 2.792 0 0 1-.356-1.087c-.079-1.501 1.54-2.234 2.725-2.62Zm36.133 15.63c-.872.509-1.906.494-2.349-.426a4.56 4.56 0 0 1 .052-2.654 8.16 8.16 0 0 1 .773-2.31 2.69 2.69 0 0 1 1.918-1.643 2.6 2.6 0 0 1 2.106 1.387 3.244 3.244 0 0 1 .631 1.307c.333 1.946-1.644 3.48-3.13 4.34Zm-75.112-5.366c-1.705 2.364-5.064 1.034-2.178-.905 1.614-1.113 3.242-.701 2.178.905Zm32.655 18.52a1.412 1.412 0 0 1-.289.88 9.093 9.093 0 0 1-5.961 4.46c-2.271.415-4.195-.607-2.664-2.957a8.53 8.53 0 0 1 4.432-3.221c.996-.339 4.22-1.008 4.482.838Zm-26.212 37.49c-1.553-3.151 5.66-8.926 6.743-4.318.792 3.462-5.776 6.357-6.743 4.319Zm53.195-14.41c-2.9-3.408 3.083-12.631 6.282-7.478 2.493 3.818-4.299 9.654-6.282 7.478Zm-11.761 9.052c-4.786 4.127-8.568 2.59-9.421.105-.848-2.527.98-5.899 7.788-6.964 4.593-.764 8.722.399 1.633 6.86Zm-22.018 9.478c-6.92 7.555-13.182-1.528-2.091-4.993 3.823-1.31 7.29-.956 2.091 4.994Zm25.227-29.279c-2.786 6.89-12.16 4.96-5.931-1.042 3.421-3.425 7.672-3.466 5.931 1.042Zm-21.611-25.359c1.797 4.562-7.628 6.629-6.485 1.994.652-2.76 5.527-4.2 6.485-1.994Zm-38.507 11.751c-1.56-2.092 2.057-6.363 3.558-3.26 1.163 2.275-2.544 4.57-3.558 3.26Zm33.73-18.865c-2.067-1.526-.153-6.406 2.223-3.997 1.796 1.8-.9 4.974-2.223 3.997Zm17.779 22.132c-2.75-1.994.833-9.448 3.938-6.173 2.375 2.405-2.116 7.45-3.938 6.173Zm-40.795 17.412c-1.47-1.639.918-4.257 2.097-5.229a4.793 4.793 0 0 1 2.896-1.315c1.006.037 2.64.985 2.574 2.12a2.517 2.517 0 0 1-1.048 1.71c-.537.434-1.155.764-1.67 1.226-.93.832-3.635 2.84-4.85 1.488Zm17.601.219c-.77-2.95 8.564-6.115 8.469-2.042-.108 3.168-8.024 4.032-8.469 2.042Zm-10.211-22.656c-2.223-2.568 1.598-8.424 4.025-4.654 1.929 2.794-2.553 6.274-4.026 4.654Zm-23.56-12.106c-.53-.714.615-2.13 1.125-1.068.388.776-.777 1.514-1.125 1.068Zm28.272-11.69c-1.17 1.777-3.914-1.187-1.123-1.604.978-.152 2.02.223 1.123 1.604Zm-16.836-6.928c-.68.966-2.378-1.304-.7-1.17.587.044 1.222.43.7 1.17Zm11.992 17.587c-1.02 2.728-4.781-.485-1.644-1.84 1.067-.475 2.334-.268 1.644 1.84Zm-1.598-25.214c-.09-.245.21-.264.36-.31a1.578 1.578 0 0 1 .688-.076.875.875 0 0 1 .445.192.5.5 0 0 1-.039.839 1.328 1.328 0 0 1-1.027-.235.929.929 0 0 1-.426-.41Zm-21.548 18.259a.648.648 0 0 1-.564-.18.785.785 0 0 1-.062-.777 2.178 2.178 0 0 1 .392-.67.662.662 0 0 1 .819-.248 1.017 1.017 0 0 1 .275.245 1.512 1.512 0 0 1 .351.677c.143.737-.72.914-1.21.953Zm14.61 26.511a1.343 1.343 0 0 1 1.387 1.32 3.217 3.217 0 0 1-.956 1.749 5.035 5.035 0 0 1-1.35 1.194 1.845 1.845 0 0 1-1.87.22 2.31 2.31 0 0 1-.83-1.882 2.847 2.847 0 0 1 .079-1.15c.497-1.43 2.297-1.531 3.54-1.45Zm28.043 27.689c-1.057.206-2.037-.181-2.1-1.206a4.9 4.9 0 0 1 1.112-2.53 9.4 9.4 0 0 1 1.672-1.978 3.161 3.161 0 0 1 2.536-1c.912.2 1.311 1.14 1.524 2.008a3.19 3.19 0 0 1 .094 1.49c-.472 2.02-3.06 2.898-4.838 3.216Zm-74.197-26.713c-2.624 2.37-6.287.872-2.375-1.045 2.24-1.11 4.131-.574 2.375 1.044Zm30.218 24.138a1.401 1.401 0 0 1-.5.755 9.381 9.381 0 0 1-6.746 2.78c-2.28-.106-4.026-1.446-2.024-3.436a8.201 8.201 0 0 1 5.133-2.1c1.079-.082 4.378.164 4.137 2.001Zm-29.19 32.581c-1.435-3.243 5.742-8.478 6.591-3.802.65 3.432-5.679 5.845-6.591 3.802Zm48.187-2.549c-1.974-4.058 5.243-10.209 6.791-4.336 1.064 4.358-5.57 7.007-6.79 4.336Zm-10.794 4.174c-8.438 4.731-12.367-8.871-.659-6.739 4.005.747 7.057 3.091.659 6.74Zm-24.319 4.407c-6.39 6.486-12.08-2.999-1.726-5.12 3.537-.715 6.547.162 1.725 5.12Zm29.962-21.279c-3.748 5.17-11.579.572-4.973-2.982 3.797-1.973 7.494-.534 4.973 2.982Zm-13.398 21.856c.163 5.686-11.998 5.25-8.799.23 2.027-3.074 8.709-3.135 8.8-.23Zm.446-52.548c.265 4.848-9.9 4.348-7.31.164 1.647-2.557 7.191-2.596 7.31-.165Zm-43.845 6.536c-1.526-2.15 2.764-6.394 4.074-3.192.986 2.348-3.118 4.537-4.074 3.192Zm41.68-14.851c-1.533-2.095 2.478-6.366 3.853-3.241 1.056 2.29-2.871 4.547-3.853 3.241Zm9.943 26.595c-2.074-2.768 3.55-8.567 5.39-4.416 1.371 3.065-4.099 6.162-5.39 4.416Zm-41.918 9.426c-1.393-1.708 1.134-4.203 2.392-5.092a4.79 4.79 0 0 1 3.007-1.111c1.014.115 2.567 1.202 2.41 2.32a2.518 2.518 0 0 1-1.168 1.61c-.563.39-1.198.668-1.737 1.088-.978.759-3.758 2.59-4.904 1.185Zm17.218 1.813c-.479-3.092 8.823-4.55 8.186-.567-.441 2.95-7.887 2.506-8.186.567Zm-7.375-23.702c-2.038-2.815 3.606-8.392 5.362-4.204 1.33 3.07-4.09 5.96-5.362 4.204Zm-24.16-13.46c-.52-.733.933-2.176 1.377-1.084.336.801-1.052 1.543-1.377 1.084Zm37.391-10.137c-2.178 1.549-4.009-2.065-.524-1.892 1.204.05 2.198.677.524 1.891Zm-18.09-9.54c-1.513 1.08-2.778-1.457-.36-1.326.841.045 1.53.488.36 1.326Zm7.972 19.726c-2.01 2.697-5.519-.99-1.322-2.094 1.46-.385 2.874.004 1.322 2.094Zm10.167-26.766c.029-.276.384-.232.573-.237a1.953 1.953 0 0 1 .806.106.776.776 0 0 1 .388.315.595.595 0 0 1-.476.843 1.371 1.371 0 0 1-1.028-.498.716.716 0 0 1-.263-.529Zm-36.038 18.5a.586.586 0 0 1-.574-.99 2.761 2.761 0 0 1 .573-.7.954.954 0 0 1 1.022-.264.891.891 0 0 1 .286.254 1.23 1.23 0 0 1 .29.705c.02.769-1.021.953-1.597.995Zm12.715 27.47c.766.093 1.414.593 1.318 1.405a3.374 3.374 0 0 1-1.149 1.7 5.55 5.55 0 0 1-1.483 1.129 1.964 1.964 0 0 1-1.938.13 2.236 2.236 0 0 1-.725-1.925 2.723 2.723 0 0 1 .167-1.152c.63-1.416 2.517-1.44 3.81-1.286Zm25.067 30.42c-.96.004-1.828-.507-1.824-1.512a4.199 4.199 0 0 1 1.178-2.245 6.947 6.947 0 0 1 1.67-1.595 2.48 2.48 0 0 1 2.374-.454 2.71 2.71 0 0 1 1.177 2.23 3.295 3.295 0 0 1-.04 1.429c-.576 1.817-2.913 2.139-4.535 2.147Zm-71.606-30.218c-2.65 2.382-6.238.853-2.323-1.067 2.241-1.112 4.1-.562 2.323 1.067Zm29.326 24.542a1.454 1.454 0 0 1-.512.76 9.356 9.356 0 0 1-6.739 2.777c-2.253-.118-3.949-1.481-1.921-3.483a8.176 8.176 0 0 1 5.126-2.099c1.07-.076 4.33.19 4.046 2.045Zm-30.154 32.737c-1.087-3.345 6.518-8.466 7.117-3.765.704 3.446-6.211 5.838-7.117 3.765Zm48.244-2.284c-1.832-4.193 5.404-10.038 6.747-4.108 1.011 4.35-5.581 6.743-6.747 4.108Zm-10.779 4.161c-8.46 4.736-12.027-9.03-.494-6.814 3.945.775 6.912 3.16.494 6.814Zm-19.248 4.153c-6.475 6.52-11.879-3.09-1.585-5.18 3.516-.706 6.475.196 1.586 5.18Zm25.229-21.175c-3.83 5.206-11.47.517-4.85-3.04 3.8-2.004 7.444-.401 4.85 3.04Zm-12.075-31.061c.112 4.84-9.906 4.33-7.254.1 1.677-2.597 7.19-2.565 7.254-.1Zm-43.475 6.254c-1.478-2.16 2.782-6.276 4.036-3.09.91 2.414-3.188 4.517-4.036 3.09Zm41.56-14.639c-1.498-2.132 2.768-6.338 4.043-3.166.962 2.329-3.107 4.498-4.043 3.166Zm9.167 26.883c-1.994-2.83 3.773-8.47 5.47-4.245 1.274 3.099-4.221 6.016-5.47 4.245Zm-41.737 9.239c-1.334-1.765 1.273-4.141 2.526-5.064a4.769 4.769 0 0 1 3.002-1.108c1 .12 2.511 1.227 2.33 2.356a2.604 2.604 0 0 1-1.195 1.622c-.565.39-1.2.67-1.745 1.092-.968.784-3.812 2.546-4.918 1.102Zm17.031 1.986c-.4-3.126 8.837-4.555 8.111-.532-.505 2.978-7.862 2.493-8.11.532Zm-6.736-23.99c-1.95-2.854 3.764-8.465 5.402-4.223 1.242 3.108-4.186 6.005-5.402 4.223Zm-23.549-13.76c-.494-.75.927-2.125 1.355-1.04.302.828-1.05 1.51-1.355 1.04Zm37.19-10.034c-2.192 1.557-3.918-2.105-.474-1.914 1.2.065 2.169.707.474 1.914Zm-17.67-9.725c-1.523 1.085-2.714-1.485-.326-1.342.831.05 1.503.502.326 1.342Zm7.423 19.977c-2.054 2.717-5.436-1.025-1.259-2.122 1.454-.383 2.843.018 1.26 2.122Zm10.954-26.939c.047-.28.417-.232.617-.236a2.115 2.115 0 0 1 .843.114.756.756 0 0 1 .394.321.64.64 0 0 1-.558.85 1.383 1.383 0 0 1-1.05-.513.68.68 0 0 1-.246-.536Zm-36.349 18.47a.704.704 0 0 1-.62-.188.757.757 0 0 1 .074-.816 2.938 2.938 0 0 1 .583-.704.945.945 0 0 1 1.02-.263.907.907 0 0 1 .275.259 1.236 1.236 0 0 1 .27.714c.003.777-1.033.96-1.602.998Zm11.93 27.82a1.286 1.286 0 0 1 1.27 1.426 3.513 3.513 0 0 1-1.177 1.713 5.68 5.68 0 0 1-1.495 1.133 1.878 1.878 0 0 1-1.92.09 2.266 2.266 0 0 1-.669-1.946 2.764 2.764 0 0 1 .192-1.148c.654-1.4 2.523-1.436 3.799-1.268Zm24.079 30.862c-.949 0-1.798-.523-1.77-1.538a4.354 4.354 0 0 1 1.22-2.261 7.12 7.12 0 0 1 1.69-1.604 2.431 2.431 0 0 1 2.358-.446 2.701 2.701 0 0 1 1.114 2.26 3.418 3.418 0 0 1-.074 1.442c-.613 1.834-2.934 2.148-4.538 2.147ZM306.1 551.345c-1.977.66-2.804-2.558-.408-2.07a1.081 1.081 0 0 1 .408 2.07Zm10.682 34.358a1.529 1.529 0 0 1-.743.597 8.537 8.537 0 0 1-7.666.173c-2.116-1.13-2.872-3.152-.258-3.974a9.254 9.254 0 0 1 5.385.066c.975.3 4.054 1.434 3.282 3.138Zm-46.278 8.324c1.247-3.245 10.173-1.654 7.488 2.203-2.157 2.872-8.384-.102-7.488-2.203ZM328.03 614.3c-.46-2.232 2.966-4.85 5.506-6.115 2.706-1.281 5.357-1.303 5.616 1.772.188 2.255-2.043 4.081-4.782 4.951-2.58.85-6.112.825-6.34-.608Zm-19.014 6.506c-8.478.218-11.146-3.874-9.842-6.176 1.364-2.436 5.8-3.411 13.568-.286 2.686 1.057 4.908 2.238 4.917 3.468.01 1.179-2.263 2.669-8.643 2.994Zm-41.118-1.613c-8.502 1.358-7.826-10.854 1.179-5.71 3.373 1.79 5.85 4.712-1.179 5.71Zm12.501-7.773c-5.623-.164-7.37-2.962-6.745-4.893.713-1.948 3.544-3.072 9.122.015 3.929 2.064 6.423 4.979-2.377 4.879Zm46.711-5.927c-3.666 2.593-7.934 2.149-9.56.802-1.666-1.394-.916-3.296 4.099-4.458 5.704-1.441 10.02.21 5.462 3.656Zm-31.377 21.997c-1.21 1.153-3.535 1.398-5.777 1.118a15.493 15.493 0 0 1-5.961-2.103c-3.244-2.034-4.468-4.7-.586-5.245 2.448-.308 5.763.706 8.509 2.047 2.988 1.372 5.085 3.014 3.815 4.182Zm24.557-54.621c-.152 2.379-2.448 2.929-4.214 2.28-1.784-.645-2.831-2.374-1.483-3.967 1.565-1.872 5.653-.659 5.697 1.687Zm-11.338 55.232c.19-2.105 2.78-3.209 5.134-3.565 2.348-.307 4.55.213 3.868 2.876-.99 4.203-9.32 3.596-9.002.69Zm-12.975 9.082c.355-2.17 3.534-2.838 6.386-2.767 2.842.12 5.459 1.08 4.479 3.74-1.44 4.218-11.421 2.012-10.865-.973Zm-6.791-80.392c.565-2.546 6.205-2.63 4.82.528-.911 2.388-5.087 1.116-4.82-.528Zm29.999 7.612c-1.125-2.286 2.244-5.64 3.398-2.46.803 2.417-2.74 3.965-3.398 2.46Zm5.487 27.844c-1.372-3.045 5.388-8.09 6.685-3.827 1.14 3.22-5.552 5.822-6.685 3.827Zm-43.913-13.745c.257-2.187 3.805-2.12 5.312-1.876a4.78 4.78 0 0 1 2.892 1.302c.635.77 1.017 2.626.127 3.329a2.531 2.531 0 0 1-1.983.351c-.681-.119-1.346-.357-2.03-.447-1.248-.146-4.53-.86-4.318-2.659Zm11.848 13.343c.877-1.304 3.524-.744 5.77.39 2.279 1.14 4.202 2.845 2.562 4.32-2.742 2.251-9.658-3.014-8.332-4.71Zm9.133-23.1c.625-3.28 5.405-5.229 4.875-.817-.32 3.414-4.958 3.064-4.875.817Zm-5.696-25.187c.18-.878 2.024-.935 1.564.15-.33.803-1.675.397-1.564-.15Zm17.586 9.558c-.877.728-1.644-3.245-.341-1.915.485.455 1 1.34.34 1.915Zm-4.203-15.668a9.074 9.074 0 0 1 .03-1.361 12.193 12.193 0 0 1-.03 1.36Zm-1.074 21.265c-1.63 1.504-1.76-3.365-.009-2.465.602.31 1.151 1.242.01 2.465Zm4.329-20.905c-.006-.245.248-.132.379-.097a1.431 1.431 0 0 1 .57.271.998.998 0 0 1 .292.377c.158.376-.044.738-.309.696-.267-.042-.535-.352-.73-.692a1.202 1.202 0 0 1-.202-.555Zm-10.569.647a.623.623 0 0 1-.2-.528.828.828 0 0 1 .511-.571 1.937 1.937 0 0 1 .698-.174c.293-.008.557.067.613.406a1.197 1.197 0 0 1-.017.363 1.794 1.794 0 0 1-.27.714c-.413.61-1.008.125-1.335-.21Zm-10.199 28.501a1.36 1.36 0 0 1-.082 1.908 3.13 3.13 0 0 1-1.913.452 5.162 5.162 0 0 1-1.775-.219 1.864 1.864 0 0 1-1.402-1.264 2.316 2.316 0 0 1 .865-1.867 2.796 2.796 0 0 1 .92-.698c1.414-.56 2.652.71 3.387 1.688Zm-1.074 39.474c-1.038-.66-1.511-1.654-.75-2.391.653-.632 1.91-.713 2.899-.875a11.796 11.796 0 0 1 2.978-.128 4.806 4.806 0 0 1 3.167 1.141c.683.79.305 1.745-.209 2.516a2.997 2.997 0 0 1-1.143 1.12c-2.232 1.06-5.298-.254-6.942-1.384Zm-30.635-73.239c-3.511-.313-4.843-3.995-.81-2.437 2.319.884 3.185 2.627.81 2.437Zm2.383 38.409a1.407 1.407 0 0 1-.898.143 9.382 9.382 0 0 1-6.622-3.067c-1.461-1.741-1.64-3.924 1.189-3.801a8.195 8.195 0 0 1 5.024 2.341c.787.735 2.833 3.32 1.307 4.385Zm-44.051.545c1.468-3.23 10.239-1.487 7.307 2.28-2.134 2.783-8.226-.24-7.307-2.28Zm34.632 33.687c1.75-4.227 10.965-2.878 7.637 2.18-2.424 3.729-8.73.487-7.637-2.18Zm-10.477-5.129c-9.283-3.021-1.787-15.068 4.58-5.025 2.168 3.447 2.505 7.274-4.58 5.025Zm-16.315-11.395c-9.208-.338-5.94-10.884 2.666-4.709 2.934 2.115 4.325 4.92-2.666 4.71Zm32.726 4.166c-6.398.733-8.293-8.123-1.165-5.669 4.062 1.436 5.43 5.227 1.165 5.669Zm13.977-30.214c-3.39 3.404-9.886-4.33-5.035-5.277 3.006-.546 6.754 3.536 5.035 5.276Zm-34.274-27.677c.588-2.56 6.619-2.292 5.105.824-1.092 2.301-5.47.779-5.105-.824Zm38.961 20.509c.501-2.567 6.417-2.316 5.026.804-1.005 2.308-5.337.8-5.026-.804ZM264.8 581.298c.66-3.412 8.669-3.023 6.812 1.128-1.34 3.067-7.224 1.01-6.813-1.128Zm-35.322-24.375c.344-2.169 3.91-1.997 5.42-1.677a4.772 4.772 0 0 1 2.852 1.453c.596.818.83 2.688-.112 3.326a2.569 2.569 0 0 1-1.99.23c-.669-.151-1.307-.427-1.983-.542-1.226-.203-4.467-1.008-4.187-2.79Zm10.249 13.83c1.986-2.433 9.357 3.402 5.956 5.62-2.498 1.664-7.205-4.095-5.956-5.62Zm12.707-21.378c.727-3.387 8.654-3.03 6.722 1.083-1.386 3.045-7.177 1.033-6.722-1.083Zm-6.124-26.707c.2-.875 2.242-.788 1.725.271-.372.784-1.85.274-1.725-.271Zm32.485 20.425c-2.605-.544-1.16-4.327 1.045-1.665.769.927.97 2.08-1.045 1.665Zm-5.035-19.66c-1.804-.372-.77-3.01.742-1.16.527.643.658 1.446-.741 1.16Zm-9.28 19.159c-3.347.354-2.958-4.7.668-2.38 1.262.805 1.922 2.101-.668 2.38Zm26.694-10.449c.23-.159.447.146.586.29a2.164 2.164 0 0 1 .49.698.78.78 0 0 1 .039.51.62.62 0 0 1-.984.177 1.434 1.434 0 0 1-.348-1.127.678.678 0 0 1 .217-.548Zm-37.814-13.998a.71.71 0 0 1-.282-.584c.044-.286.36-.442.638-.504a2.85 2.85 0 0 1 .9-.055.933.933 0 0 1 .877.567.909.909 0 0 1 0 .379 1.24 1.24 0 0 1-.332.687c-.557.534-1.387-.1-1.8-.49Zm-11.981 27.797a1.3 1.3 0 0 1-.165 1.91 3.44 3.44 0 0 1-2.04.306 5.606 5.606 0 0 1-1.838-.325 1.931 1.931 0 0 1-1.397-1.328 2.25 2.25 0 0 1 .952-1.825 2.813 2.813 0 0 1 .974-.655c1.48-.493 2.763.868 3.514 1.917Zm-5.824 38.847a1.582 1.582 0 0 1-.107-2.357 4.288 4.288 0 0 1 2.477-.647 7.107 7.107 0 0 1 2.323.151 2.483 2.483 0 0 1 1.947 1.438 2.687 2.687 0 0 1-.866 2.366 3.34 3.34 0 0 1-1.093.934c-1.75.8-3.577-.7-4.681-1.885Zm-23.241-73.001c-3.044-.433-3.505-4.022-.328-2.382 1.848.923 2.404 2.637.328 2.382Zm-.937 37.978a1.437 1.437 0 0 1-.912.109 9.27 9.27 0 0 1-6.51-3.384c-1.366-1.835-1.38-4.009 1.43-3.717a8.307 8.307 0 0 1 4.883 2.578c.748.765 2.687 3.414 1.109 4.414Zm-45.777-6.295c2.249-2.733 11.158 1.406 7.504 4.454-2.688 2.266-8.919-2.706-7.504-4.454Zm41.964 34.812c1.952-4.093 11.205-2.58 7.667 2.334-2.594 3.71-8.846.31-7.667-2.334Zm-10.433-22.311c1.954-4.093 11.207-2.58 7.668 2.335-2.595 3.709-8.845.31-7.668-2.335Zm-25.438 2.66c-3.187-.916-4.06-3.547-3.394-4.77.671-1.313 2.722-1.297 5.454 1.68 1.852 2.014 2.733 4.39-2.06 3.09Zm35.319 12.791c-6.562.497-8.236-8.502-.986-5.691 4.087 1.585 5.32 5.381.986 5.691Zm15.238-29.629c-3.571 3.3-9.656-4.587-4.786-5.374 2.984-.454 6.576 3.688 4.785 5.374Zm-28.66-29.401c1.227-2.311 6.098-1.393 4.084 1.424-1.444 2.089-4.826.03-4.083-1.424Zm33.65 22.404c.587-2.501 6.588-2.233 5.066.834-1.097 2.263-5.452.773-5.067-.834Zm-14.017 24.691c.787-3.332 8.858-2.81 6.845 1.23-1.481 3.043-7.348.92-6.845-1.23Zm-33.27-28.217c.808-2.042 4.216-1.12 5.581-.503a5.14 5.14 0 0 1 2.467 1.981c.444.899.392 2.797-.632 3.278a2.556 2.556 0 0 1-2.01-.108c-.65-.254-1.203-.7-1.849-.951-1.155-.47-4.208-2.009-3.557-3.697Zm8.216 15.794c2.258-2.098 9.34 4.496 5.722 6.374-2.727 1.45-7.21-5.011-5.722-6.374Zm14.908-19.888c1.107-3.237 8.435-2.485 6.258 1.463-1.612 2.962-6.971.597-6.258-1.463Zm.194-26.08c.415-.79 1.92-.583 1.227.37-.503.705-1.483.124-1.227-.37Zm25.532 20.827c-2.532-.59-.929-4.306 1.112-1.626.722.935.873 2.083-1.112 1.626Zm-3.318-19.398c-1.55-.367-.33-2.925.782-1.128.407.628.438 1.412-.782 1.128Zm-10.394 18.577c-3.17.232-2.252-4.697.847-2.318 1.095.823 1.601 2.121-.847 2.318Zm26.583-9.809c.239-.154.45.147.585.29a2.018 2.018 0 0 1 .473.689.73.73 0 0 1 .022.503.647.647 0 0 1-1.005.168 1.344 1.344 0 0 1-.313-1.11.684.684 0 0 1 .238-.54Zm-31.925-14.004a.664.664 0 0 1-.03-.557.829.829 0 0 1 .592-.443 1.908 1.908 0 0 1 .689-.033c.268.042.535.201.513.542a1.175 1.175 0 0 1-.096.353 1.733 1.733 0 0 1-.424.634c-.556.485-1.033-.126-1.244-.497Zm-16.392 25.45a1.359 1.359 0 0 1-.513 1.831 2.763 2.763 0 0 1-1.918-.014 4.7 4.7 0 0 1-1.596-.634 1.758 1.758 0 0 1-.976-1.534 2.437 2.437 0 0 1 1.285-1.605 2.829 2.829 0 0 1 1.024-.474c1.431-.243 2.244 1.277 2.694 2.43Zm-10.785 37.881c-.665-.82-.816-1.863.053-2.417a4.892 4.892 0 0 1 2.717-.267 8.903 8.903 0 0 1 2.475.477 2.89 2.89 0 0 1 1.987 1.696 2.509 2.509 0 0 1-1.053 2.29 3.221 3.221 0 0 1-1.223.811c-1.925.594-3.836-1.204-4.956-2.59Zm-2.467-75.723c-2.556-1.376-1.27-4.914.685-2.183 1.287 1.396 1.036 3.067-.685 2.183Zm-15.6 34.17a1.437 1.437 0 0 1-.893-.223 9.409 9.409 0 0 1-4.98-5.505c-.54-2.275.313-4.29 2.73-2.913a8.686 8.686 0 0 1 3.639 4.102c.422.962 1.318 4.143-.496 4.539Zm-39.803-23.966c3.156-1.609 9.527 5.685 4.952 6.987-3.37.981-6.944-5.952-4.952-6.987Zm10.994 32.906c3.203-3.244 13.064 2.145 8.158 5.767-3.619 2.695-10.175-3.683-8.158-5.767Zm-25.072-30.003c-6.861-7.215 3.355-12.617 5.518-1.897.89 3.663.207 6.999-5.518 1.897Zm11.747 17.648c-4.404-3.308-4.136-6.995-2.458-8.105 1.752-1.153 4.731.087 7.3 5.653 1.686 3.82 1.717 7.434-4.842 2.452Zm31.192 22.768c-7.06-2.283-5.706-11.77.6-6 3.6 3.201 4.171 7.302-.6 6Zm23.674-23.515c-4.521 2.304-7.12-7.195-2.469-6.32 2.706.58 4.605 5.178 2.469 6.32Zm-14.394-36.921c2.05-1.632 6.205 1.338 3.212 3.075-2.178 1.307-4.476-2.04-3.212-3.075Zm21.116 31.583c1.395-2.183 6.27-.713 4.036 1.876-1.613 1.927-4.885-.503-4.036-1.876Zm-20.719 19.467c1.805-2.927 9.542.08 6.515 3.47-2.186 2.54-7.618-1.606-6.515-3.47Zm-20.52-39.327c1.568-1.542 4.302.692 5.3 1.819a5.54 5.54 0 0 1 1.486 2.791c.054.988-.753 2.681-1.899 2.707a2.643 2.643 0 0 1-1.828-.898c-.513-.483-.85-1.104-1.327-1.603-.861-.897-3.012-3.538-1.731-4.816Zm1.104 17.738c2.763-.907 6.953 7.951 2.824 8.261-3.205.231-4.834-7.6-2.824-8.26Zm21.641-12.118c2.375-2.471 8.627.747 5.052 3.561-2.584 2.115-6.506-1.994-5.052-3.561Zm10.841-23.678c.697-.558 2.029.315 1.005.899-.748.435-1.438-.549-1.005-.899Zm13.465 26.622c-1.838-1.046.897-3.977 1.52-1.253.243.928-.04 1.975-1.52 1.253Zm5.331-17.585c-1.04-.727 1.074-2.62 1.113-.778.042.61-.28 1.3-1.113.778Zm-16.502 13.37c-2.802-.855.064-4.935 1.693-1.806.562 1.09.448 2.435-1.692 1.806Zm25.037-3.542c.227-.112.26.177.3.32a1.585 1.585 0 0 1 .073.667.974.974 0 0 1-.17.456c-.243.33-.666.314-.771.044a1.435 1.435 0 0 1 .196-1.029.99.99 0 0 1 .372-.458Zm-19.725-19.522a.57.57 0 0 1 .169-.524.861.861 0 0 1 .745-.154 1.975 1.975 0 0 1 .668.241.507.507 0 0 1 .27.686 1.174 1.174 0 0 1-.231.279 1.738 1.738 0 0 1-.648.403c-.715.218-.918-.516-.973-.93Zm-25.424 16.429a1.33 1.33 0 0 1-1.208 1.448 2.763 2.763 0 0 1-1.788-.788 4.812 4.812 0 0 1-1.208-1.249 1.785 1.785 0 0 1-.275-1.816 2.403 2.403 0 0 1 1.828-.94 2.806 2.806 0 0 1 1.133-.008c1.424.372 1.53 2.136 1.518 3.353Zm-25.302 30.188c-.273-1.065.013-2.093 1.032-2.23a4.757 4.757 0 0 1 2.582.95 9.214 9.214 0 0 1 2.19 1.466 3.087 3.087 0 0 1 1.256 2.418c-.12.92-1.022 1.403-1.866 1.694a3.214 3.214 0 0 1-1.474.231c-2.04-.298-3.297-2.716-3.72-4.529Zm27.683-70.945c-1.898-2.286.629-5.084 1.456-1.793.671 1.825-.199 3.306-1.456 1.793Zm-27.478 25.739a1.431 1.431 0 0 1-.735-.553 9.6 9.6 0 0 1-2.472-6.984c.373-2.306 1.932-3.846 3.639-1.646a8.34 8.34 0 0 1 1.79 5.19c.016 1.054-.398 4.334-2.222 3.993Zm-27.723-37.166c3.527-.309 6.676 8.844 1.95 8.336-3.49-.354-4.186-8.122-1.95-8.336Zm10.09 50.655c-5.587-4.73-.612-12.894 2.904-5.228 2.089 4.278.898 8.239-2.904 5.228Zm30.999-12.323c-5.032.31-3.813-9.462.164-6.838 2.283 1.605 2.274 6.634-.164 6.837Zm.675-39.91c2.514-.746 5.237 3.566 1.81 4.056-2.509.395-3.372-3.57-1.81-4.056Zm7.612 37.68c2.138-1.467 6.079 1.931 2.996 3.408-2.25 1.119-4.319-2.475-2.996-3.407Zm-26.709 9.711c2.812-1.989 8.695 3.814 4.567 5.718-3.018 1.453-6.317-4.44-4.567-5.718Zm-3.952-44.061c2.032-.844 3.72 2.254 4.22 3.673a5.576 5.576 0 0 1 .354 3.142c-.322.937-1.71 2.204-2.78 1.797a2.635 2.635 0 0 1-1.35-1.52c-.274-.643-.425-1.331-.659-1.976-.458-1.156-1.453-4.412.215-5.117Zm-5.65 16.84c2.906.204 3.442 9.942-.514 8.674-3.007-.999-1.594-8.811.514-8.675Zm24.64-3.058c3.132-1.403 7.693 4.035 3.316 5.27-3.197.967-5.256-4.364-3.316-5.27Zm18.91-17.939c.856-.258 1.757 1.051.59 1.208-.858.124-1.124-1.046-.59-1.208Zm2.528 30.319c-1.343-1.73 2.32-3.37 1.892-.547-.132.983-.8 1.851-1.892.547Zm11.569-14.484c-.694-1.116 1.965-2.053 1.338-.292-.167.6-.71 1.118-1.338.292Zm-20.37 6.015c-2.274-1.898 1.926-4.603 2.252-1.025.11 1.243-.506 2.455-2.252 1.025Zm24.705 7.084c.257-.007.18.284.164.439a1.64 1.64 0 0 1-.184.67.947.947 0 0 1-.335.358.464.464 0 0 1-.743-.301 1.425 1.425 0 0 1 .574-.895.934.934 0 0 1 .524-.27Zm-11.112-26.694a.57.57 0 0 1 .337-.424.885.885 0 0 1 .765.137 1.996 1.996 0 0 1 .526.484.524.524 0 0 1-.009.75 1.1 1.1 0 0 1-.317.174 1.7 1.7 0 0 1-.752.131c-.744-.07-.656-.84-.55-1.252Zm-29.728 5.703a1.332 1.332 0 0 1-1.666.89 2.984 2.984 0 0 1-1.392-1.397 4.844 4.844 0 0 1-.647-1.611 1.792 1.792 0 0 1 .431-1.787 2.402 2.402 0 0 1 2.048-.188 2.79 2.79 0 0 1 1.05.419c1.192.876.575 2.558.176 3.674Zm-34.832 18.448c.151-1.084.806-1.926 1.8-1.67.865.211 1.42 1.156 2.058 1.834a8.965 8.965 0 0 1 1.456 2.164 3.03 3.03 0 0 1 .23 2.69 2.416 2.416 0 0 1-2.37.859 3.202 3.202 0 0 1-1.448-.339c-1.78-1.033-1.956-3.725-1.726-5.538Zm52.434-54.824c-.9-2.774 2.514-4.253 2.033-1.038-.082 1.875-1.457 2.866-2.033 1.039Zm-35.241 13.038a1.431 1.431 0 0 1-.466-.79 9.666 9.666 0 0 1 .383-7.41c1.19-1.993 3.264-2.81 3.968-.128a8.038 8.038 0 0 1-.302 5.477c-.39.98-2.027 3.859-3.583 2.851Zm11.949 6.118c-4.776-1.612.022-10.156 2.722-6.237 1.48 2.325-.356 6.965-2.722 6.237Zm16.037-35.934c2.597.36 3.36 5.238.025 4.315-2.457-.64-1.647-4.513-.025-4.315Zm-7.525 36.983c2.535-.55 4.888 4.045 1.477 4.26-2.505.194-3.053-3.895-1.477-4.26Zm-28.392-1.058c3.355-.78 6.603 6.82 2.064 7.035-3.343.215-4.169-6.508-2.064-7.035Zm13.505-42.253c2.2.058 2.478 3.568 2.354 5.06a5.559 5.559 0 0 1-.911 3.018c-.669.729-2.446 1.34-3.265.54a2.636 2.636 0 0 1-.634-1.936l.166-2.084c.054-1.243.477-4.632 2.29-4.598Zm-11.937 13.262c2.566 1.335-.676 10.575-3.85 7.863-2.364-2.103 1.947-8.828 3.85-7.863Zm23.889 6.825c3.43-.053 5.526 6.609 1.01 6.065-3.321-.334-3.148-5.992-1.01-6.065Zm24.379-8.546c.887.12 1.193 1.599.061 1.275-.835-.231-.613-1.348-.06-1.275Zm-9.301 27.89c-.644-2.082 3.4-2.217 1.958.203-.495.85-1.443 1.4-1.958-.203Zm16.19-8.758c-.24-1.233 2.562-1.08 1.355.239-.387.469-1.074.73-1.356-.239Zm-21.138-2.222c-1.36-2.57 3.564-3.408 2.473-.075-.384 1.155-1.373 2.026-2.473.075Zm20.178 15.602c.24.088.056.325-.017.46a1.634 1.634 0 0 1-.425.542.943.943 0 0 1-.446.204c-.405.058-.69-.27-.572-.546a1.439 1.439 0 0 1 .873-.604.951.951 0 0 1 .587-.056Zm-.077-27.714a.56.56 0 0 1 .472-.232.916.916 0 0 1 .651.415 1.894 1.894 0 0 1 .3.62.472.472 0 0 1-.297.639 1.157 1.157 0 0 1-.36.027 1.825 1.825 0 0 1-.741-.179c-.657-.347-.281-.976-.025-1.29Zm-29.527-6.667a1.339 1.339 0 0 1-1.88.143 3.185 3.185 0 0 1-.747-1.826 4.703 4.703 0 0 1 .064-1.713 1.768 1.768 0 0 1 1.12-1.438 2.426 2.426 0 0 1 1.948.655 2.773 2.773 0 0 1 .79.797c.733 1.266-.513 2.523-1.295 3.382Z"/><path fill="#fff" d="M425.233 260.57a5.69 5.69 0 1 0 5.689-5.69 5.689 5.689 0 0 0-5.689 5.69Zm-187.087 0a5.69 5.69 0 1 0 5.69-5.69 5.69 5.69 0 0 0-5.69 5.69Z"/><path fill="none" stroke="#181413" stroke-miterlimit="10" stroke-width=".84" d="M258.224 115.558c-.87-35.827-24.862-70.027-58.254-83.04m245.168 5.392a86.3 86.3 0 0 0-69.832 83.093"/><path fill="#f2d351" d="M506.133 31.91A31.91 31.91 0 1 1 474.224 0a31.909 31.909 0 0 1 31.909 31.91Zm-300.023 0A31.91 31.91 0 1 1 174.2 0a31.91 31.91 0 0 1 31.91 31.91Z"/></g></svg>