<svg xmlns="http://www.w3.org/2000/svg" viewBox="0 0 600 400"><path fill="#B96A28" d="M258.716 228.687s-1.478-1.184-1.723.373c-.245 1.558.185 6.074.808 6.294.623.218 1.552-.139 1.552-.139l.161 2.729s12.252 2.928 31.314 2.401c22.696-.629 32.17-6.151 32.17-6.151l.103-5.985-64.385.478z"/><path fill="#B96A28" d="M257.167 230.909c-.128-3.497 14.493-6.801 32.654-7.382 18.161-.58 32.988 1.783 33.115 5.279.128 3.496-14.491 6.801-32.653 7.382-18.161.58-32.988-1.783-33.116-5.279z"/><path fill="#EFD5BC" d="M263.731 230.034c-.049-2.378 12.344-4.609 27.679-4.981 15.336-.374 27.807 1.253 27.856 3.63.048 2.379-12.344 4.61-27.681 4.982-15.334.375-27.805-1.252-27.854-3.631z"/><path fill="#F37476" d="m331.764 171.526-.73-.782s-4.118-1.269-10.862.718c-6.743 1.987-24.209 9.861-27.099 11.146 0 0 .82-2.211-.952-.828 0 0 .314-12.269-.047-15.878l.999.071s-.391-6.492-.564-7.547c0 0-3.736-1.395-9.152-1.139-5.416.256-7.06 1.485-7.06 1.485l-2.393 5.53 1.348-.264-.065 1.224 1.483.297s-4.758 18.966-3.993 26.86c.765 7.894 6.737 12.567 11.475 12.416 4.739-.152 32.073-4.47 32.073-4.47s.695.351.658 4.209c-.035 3.857-4.452 18.856-3.592 20.169 0 0 5.834 1.205 6.238 1.505.404.3 1.666.597 1.841 1.449.174.851.289 3.445-.181 3.816-.469.37-1.73.527-1.73.527l-.301 3.698s.708 1.703 2.375 2.071c1.666.367 4.465.555 4.465.555s10.011-7.739 19.746-7.267c9.736.473 18.261 5.71 18.261 5.71s3.301-.398 4.323-1.426l.021-1.597s-1.283.388-1.578-.053c-.294-.442-1.252-6.338-.581-6.58.67-.242 1.673.111 1.673.111s6.889-3.003 8.906-3.028c0 0-1.417-5.214-1.06-10.26.357-5.046.809-8.079 1.536-9.242.727-1.163 8.854-3.216 18.997-4.001 10.144-.786 16.369-.927 17.418-9.086 1.049-8.158-1.753-21.775-1.753-21.775l1.422-.489s-.661-2.229-1.519-3.872c-.857-1.643-1.504-2.782-1.504-2.782l-1.006-.718s-4.246-2.186-8.589-1.77c-4.344.416-5.509 1.289-5.509 1.289s.032 6.34.192 7.086c.16.748 1.006.451 1.006.451s.442 11.191.589 12.457c0 0-1.031 0-.942.707 0 0-11.759-5.589-25.43-8.137-13.67-2.548-21.147-3.161-22.627-3.389-1.48-.228-4.198.101-5.142.001-.944-.099-1.259-1.082-1.259-1.082s-2.875 5.543-4.107 6.114l-5.718-4.21z"/><path d="M276.78 165.741c.944-.687 2.954-.354 4.024-.39 3.754-.125 7.201-.051 10.877.526l-14.901-.136zm-.023-4.732c-.139.269-2.029 3.923-1.267 3.795l1.267-3.795zm53.842 10.061c-.943.557.732 1.72 1.112 2.244 1.352 1.865 3.011 3.524 4.364 5.277l-5.476-7.521zm5.602 7.258c.316-.654 1.467-1.6 1.556-2.297l-1.556 2.297z"/><path d="M337.511 175.951c-.288-.279.554.582.847.857.44.41 1.266 1.843 1.877 1.922l-2.724-2.779z"/><path d="M337.719 176.111c-.191-.118.506.44.626.602.283.377 1.198 1.34 1.298 1.765l-1.924-2.367z"/><path d="M340.111 178.651c-.6-.664-1.236-1.321-1.837-1.985-.057-.064-.452-.571-.534-.535-.048.021-.442.667-.478.756l2.849 1.764z"/><path d="M335.792 178.702c-.029.029.437-.623.581-.826.668-.935.647-1.114 1.53-.673l-2.111 1.499zm4.405-.245c-.196.294.026-.67.061-.764.195-.528.441-1.037.643-1.56.278-.721 2.29-4.659 1.959-5.324l-2.663 7.648zm1.53-8.627c0 .493.331.654.734.519l-.734-.519z"/><path d="M338.169 178.871c-.331-.313-.523-.934-.511-1.397.006-.202.035-.776.126-.594.534 1.074-.022 3.294.108 4.496.478 4.43.988 8.894 1.609 13.306 1.334 9.488 3.887 18.507 3.957 28.136.019 2.661.344 5.386-.136 7.992l-5.153-51.939zm58.249-10.13c.743-.534 3.151-.615 4.143-.723 3.834-.416 7.107-.212 10.67 1.13l-14.813-.407z"/><path fill="#F9908F" d="M278.634 174.701c-1.484 1.57.74 2.005 0 0zm5.763-3.43c-1.865 2.646.545 3.176 0 0zm-1.214 9.805c-1.79 3.304.659 3.97 0 0zm3.96-3.967c-.9 3.513 1.517 3.192 0 0zm-10.302 6.426c-.599 4.192 1.855 3.84 0 0zm5.563 10.917c2.327 3.341 4.019 1.544 0 0zm1.579-5.84c1.571 3.135 3.399 1.48 0 0zm-5.902 8.729c1.492 2.663 3.259.979 0 0zm15.391-.594c1.979 2.805 3.574.928 0 0zm-1.592-7.854c3.061 1.382 3.141-1.021 0 0zm-13.627.877c.156 2.316 2.099 1.19 0 0zm7.726 9.835c3.001 2.374 3.91.059 0 0zm3.299-15.539c2.284 1.848 3.513-.427 0 0zm13.228-1.491c3.189 1.397 3.717-1.018 0 0zm-2.152 10.995c3.013 2.285 4.089.042 0 0zm-8.581-.571c1.082 2.228 3.004.633 0 0zm9.33-6.747c1.19 1.833 2.298-.08 0 0zm9.38 9.9c3.09 3.069 5.11 1.108 0 0zm1.542-9.515c4.135 1.093 4.359-1.45 0 0zm-.508-6.054c8.897-.049 8.032-2.498 0 0zm6.642 10.555c5.723 1.601 5.735-.911 0 0zm-13.372.121c4.365 1.043 4.098-1.428 0 0zm3.958-7.033c2.333 1.176 2.289-1.196 0 0zm-12.687.411c2.869 1.359 2.931-1.06 0 0zm-6.885-14.087c-1.018 1.345 1.034 1.309 0 0zm-8.392-1.663c-1.374 1.52.829 1.848 0 0zm3.247-7.998c-1.674 1.176.275 2.044 0 0zm4.116.001c-1.578 1.608.585 2.212 0 0zm2.216-1.029c-1.02 1.625 1.097 1.62 0 0zm-4.275 3.405c-.998.897.821 1.045 0 0zm-1.03-4.355c-1.331 1.928.94 2.15 0 0zm5.305 4.593c-.835 1.163 1.045.956 0 0zm-2.375-4.83c-.966 1.168.984 1.133 0 0zm-7.838 1.504c-1.202 1.2.84 1.455 0 0zm-.633 2.929c-.613 1.871 1.328 1.378 0 0zm3.486-3.248c-1.889.713-.257 2.108 0 0zm-1.111 3.725c-.693 1.163 1.099.771 0 0zm-2.771-4.036c-.469 1.325 1.258.597 0 0zM324 186.455c2.036 1.869 2.683-.429 0 0zm2.157-8.277c3.707 2.887 4.899.704 0 0zm-4.107 3.124c2.127 1.38 2.426-.922 0 0zm1.311-8.437c3.216 1.937 3.665-.501 0 0zm9.917 6.86c.629 3.648 2.698 2.413 0 0zm-2.18-3.927c.333 1.664 1.675.105 0 0zm1.348 9.332c.865 5.908 3.179 5.158 0 0zm-2.547 3.126c-.594 2.912 1.754 2.543 0 0zm6.334-2.505c-1.016.999.869 1.109 0 0zm-6.164-1.463c-.175 1.96 1.736.878 0 0zm-4.141 9.461c-.888 5.29 1.624 4.938 0 0zm-5.678 2.14c-1.599 3.428.794 3.849 0 0zm-1.118 6.914c-1.306 2.248 1.011 2.467 0 0zm5.19-.09c-2.25 2.872.015 3.713 0 0zm6.763-2.716c-2.017 4.118.345 4.677 0 0zm2.657-5.251c-.916 3.113 1.511 2.803 0 0zm-3.158.178c-1.981 3.13.421 3.728 0 0zm7.183 1.757c-.743 4.353 1.718 4.031 0 0zm-3.021 6.648c-1.55 3.738.902 4.068 0 0zm-7.157 2.739c-2.354 4.343.099 5.023 0 0zm-6.969 2.774c-2.256 3.745.12 4.492 0 0zm3.073.78c-1.819 3.337.591 3.735 0 0zm7.325 1.001c-2.124 3.681.218 4.23 0 0zm5.768-.562c-1.039 3.534 1.406 3.604 0 0zm3.147-3.208c-1.245 3.318 1.191 3.361 0 0zm-2.708 11.685c-1.148 3.335 1.246 3.529 0 0zm-4.445-.748c-1.919 3.188.427 3.852 0 0zm-6.841.556c-1.597 2.182.708 2.579 0 0zm-7.872-1.204c-2.817 4.082-.385 4.942 0 0zm4.316 2.967c-2.974 5.244-.453 6.08 0 0zm6.36 4.038c-2.72 3.661-.572 5.248 0 0zm-3.744 5.828c-2.247 1.661-.241 2.919 0 0zm7.233-2.626c-1.905 3.581.485 4.218 0 0zm5.369-1.03c-1.565 4.043 1.016 4.748 0 0zm3.579-1.368c-1.36 2.613.99 2.895 0 0zm-1.247-8.337c-1.259 3.296 1.254 3.285 0 0zm2.465-30.257c-1.29 1.058.443 2.637 0 0zm1.686-5.463c-.784 2.716 1.565 2.505 0 0zm-3.014 1.225c-1.194 2.54 1.211 2.498 0 0zm5.37-5.274c.298 4.314 2.625 3.675 0 0zm-3.015-.379c-1.19 1.512.983 1.629 0 0zm2.451-3.387c1.088 2.676 2.671.914 0 0zm5.746-.19c2.059 3.111 3.94 1.504 0 0zm-1.127 3.864c2.361 2.617 3.085.288 0 0zm-2.736 8.57c-.171 3.008 2.066 2.185 0 0zm2.829-2.353c2.338 2.836 3.136.479 0 0zm3.578-2.45c1.957 3.102 3.48 1.235 0 0zm2.263-3.485c3.857 2.693 4.798.371 0 0zm-10.554 12.809c-1.07 4.331 1.402 4.323 0 0zm-1.978 4.333c-1.35 3.813 1.096 4.041 0 0zm3.862 1.791c-.433 3.595 2.023 2.956 0 0zm2.733-3.86c1.724 3.445 3.22 1.568 0 0zm3.486-1.977c2.102 3.081 3.366.998 0 0zm2.638-3.299c2.352 2.879 3.815.916 0 0zm2.921-2.825c3.15 2.515 4.122.285 0 0zm1.318-3.204c2.154 2.698 3.49.65 0 0zm1.319-5.559c2.652 2.778 4.071.746 0 0zm-15.922 26.471c-.023 3.106 2.219 2.125 0 0zm6.971-2.545c.102 3.454 2.466 2.959 0 0zm5.276-2.165c1.097 3.313 3.145 1.996 0 0zm3.298-4.803c1.423 2.961 3.201 1.309 0 0zm2.545-2.919c2.401 2.059 3.172-.223 0 0zm1.601-3.675c2.081 1.835 2.715-.475 0 0zm2.261-3.956c2.661 1.853 3.422-.417 0 0zm-18.372 26.47c.4 5.461 2.549 3.912 0 0zm5.84-1.509c-.46 3.959 1.964 3.73 0 0zm-9.608 11.399c-.049 4.129 2.327 3.42 0 0zm6.311-1.79c-.486 2.946 1.86 2.528 0 0zm5.746-1.978c-.575 4.201 1.875 3.715 0 0zm-10.456-2.449c-.804 3.976 1.632 3.721 0 0zm12.152-7.254c-.347 3.654 2.038 3.032 0 0zm4.805 8.574c.166 3.91 2.397 3.027 0 0zm-3.203 3.297c.429 4.791 2.792 3.867 0 0zm-4.144 6.025c-.738 2.771 1.763 3.004 0 0zm-7.067 2.358c-.324 2.905 1.972 2.147 0 0zm-4.521 3.58c-.133 2.364 1.971 1.518 0 0zm7.347-4.994c-.767 3.078 1.641 2.848 0 0zm3.768 4.991c.078 4.358 2.917 4.504 0 0zm3.581-1.504c.158 3.595 2.411 2.639 0 0zm2.92-3.768c.029 2.923 2.232 1.919 0 0zm-33.255 10.453c-1.646.552.081 1.716 0 0zm35.422-11.677c-.091 1.821 1.683.647 0 0zm5.181-5.749c.107 5.377 2.598 4.941 0 0zm-.753 6.031c.134 2.396 2.086 1.129 0 0zm-.284-14.038c.032 5.437 2.56 4.878 0 0zm-4.332-1.129c1.65 5.068 3.964 4.069 0 0zm3.391-6.03c.468 3.46 2.85 2.655 0 0zm-2.355-3.013c2.391 3.493 4.172 1.734 0 0zm4.868-2.885c1.495 2.26 2.673.18 0 0zm1.408-3.661c2.231 2.672 3.829.771 0 0zm1.187-4.019c3.489 1.886 3.98-.54 0 0zm2.231-3.892c2.71 1.468 3.129-.843 0 0zm2.272-4.241c1.778 1.937 2.64-.24 0 0zm1.271 15.2c4.068 1.986 4.562-.474 0 0zm-4.504 5.758c1.825 2.225 3.045.194 0 0zm5.236-1.729c3.865 2.737 4.788.374 0 0zm-.62-7.64c3.15 1.922 3.672-.558 0 0zm4.079-4.185c3.841 1.902 4.578-.477 0 0zm.878-4.414c3.129 2.095 3.821-.27 0 0zm1.801 8.369c3.233 2.172 4.435-.168 0 0zm2.557-5.684c3.938 2.079 4.569-.36 0 0zm.9-3.765c2.641 2.755 3.994.639 0 0zm-3.258 16.288c5.17 3.148 6.118.82 0 0zm-.488-3.477c3.136 2.287 3.826-.14 0 0zm8.648 2.693c4.965 2.643 5.87.157 0 0zm-.868-3.442c3.99 1.644 5.027-.815 0 0zm-1.215-4.672c4.175 2.234 5.242-.158 0 0zm2.14-3.652c3.604 1.02 3.791-1.462 0 0zm4.532 6.498c5.014.28 5.255-2.561 0 0zm2.562 3.545c4.122.468 4.623-2.329 0 0zm-1.725-6.423c3.09-.767 1.837-2.799 0 0zm8.574 5.496c3.124-2.239 1.315-3.991 0 0zm-2.199-6.149c1.837-1.874-.363-2.661 0 0zm-3.825-1.931c1.347-3.352-1.073-3.863 0 0zm-3.733-2.17c2.084-3.14-.268-3.885 0 0zm1.615-6.324c.835-3.645-1.605-3.353 0 0zm4.296 1.656c1.337-2.603-1.024-2.691 0 0zm5.147 1.342c.587-4.371-1.826-3.942 0 0zm-6.326-5.636c.333-4.273-2.083-3.565 0 0zm-3.941-2.34c.75-4.229-1.738-3.821 0 0zm.328-7.727c2.092-.957.326-2.33 0 0zm5.571.955c1.89-1.549-.225-2.307 0 0zm3.495-.301c-.799-2.347-2.345-.632 0 0zm-11.134-.268c.962-2.147-1.283-1.859 0 0zm.272 1.664c2.698-1.029.995-2.735 0 0z"/><path fill="#0D4D8A" d="m369.331 236.669 1.295 30.526s11.468 10.225 32.664 8.952c21.202-1.273 28.558-12.545 28.558-12.545l-1.18-30.659-61.337 3.726z"/><path fill="#008B86" d="M313.688 262.757c0-17.45 14.327-31.598 32.002-31.598 17.674 0 32.002 14.147 32.002 31.598 0 17.45-14.328 31.598-32.002 31.598-17.675-.001-32.002-14.148-32.002-31.598z"/><path fill="#EFD5BC" d="M317.595 263.004c0-15.152 12.558-27.436 28.05-27.436s28.05 12.284 28.05 27.436-12.558 27.435-28.05 27.435-28.05-12.283-28.05-27.435z"/><path fill="#B96A28" d="M367.652 227.253s-1.478-1.184-1.723.374.185 6.074.808 6.292 1.552-.139 1.552-.139l.161 2.729s12.252 2.929 31.314 2.401c22.696-.629 32.17-6.151 32.17-6.151l.103-5.985-64.385.479z"/><path fill="#B96A28" d="M366.452 228.907c-.128-3.496 14.491-6.801 32.653-7.382 18.161-.58 32.988 1.783 33.116 5.279.127 3.497-14.493 6.801-32.654 7.382-18.162.58-32.988-1.783-33.115-5.279z"/><path fill="#EFD5BC" d="M369.83 228.881c-.084-2.187 12.768-4.395 28.706-4.932 15.937-.536 28.926.802 29.01 2.987.084 2.187-12.768 4.395-28.706 4.932-15.937.537-28.926-.8-29.01-2.987z"/><path fill="#FAEBE4" d="M277.969 158.029s2.874-12.743 4.12-15.794c1.247-3.052 1.705-4.604 2.569-4.68.865-.076 1.373.331 1.78-.229.407-.559.992-.738 1.475-.662.483.077 2.823 1.043 2.823 1.043s-.635 1.322.229 1.297c0 0 .356.967-.255 1.526-.61.56-.683 1.632-2.411 2.04 0 0-1.083.897-.408 4.565.676 3.669 2.116 8.238 2.408 10.804 0 0-3.243-.683-6.325-.661-3.082.023-6.005.751-6.005.751zm64.799-1.97.471 3.481s.45-.348.758.409c.307.758-.779 1.27-.779 1.27s.138 3.057-.484 4.366c-.621 1.31-2.331 2.048-2.331 2.048s.247 2.114 1.08 2.186c0 0-2.482 5.13-3.876 5.974 0 0-.234-.121-1.278-.891-1.045-.769-4.184-3.038-4.494-3.298-.311-.259-.804-.856-.804-.856s1.833-.006 2.101-.598c.268-.593.243-4.252-.465-4.613 0 0-2.438.415-3.898-2.271-1.461-2.686 1.471-5.352 3.409-4.905 1.938.447 2.36 2.31 2.36 2.31s.739-.176.627-.73c0 0 .775.258.665-.296-.111-.555-.727-.641-.677-1.552.05-.911.05-1.76.05-1.76l.59-.554s1.308-.496 1.759-.132c.451.364.757 1.13 1.161.946.405-.184.245-.546.245-.546s.958.502 1.736.468c.778-.033.516-.702.516-.702s.667.473 1.018.503c.347.03.54-.257.54-.257zm54.015 4.937s.787-5.395 1.986-10.207c1.2-4.814 1.62-6.318 1.197-7.613-.425-1.296-1.356-2.308-.54-3.243.816-.935 1.931-2.238 2.081-2.953.15-.716-.096-1.241.321-1.18.417.061 1.746 1.034 1.406 2.07-.339 1.035-.599 1.494-.599 1.494l4.159 2.868s-1.542.659-.644 3.164c.896 2.504 2.501 11.677 3.26 16.814 0 0-3.337-1.802-6.74-1.912-3.404-.112-5.887.698-5.887.698zm29.475 125.645s-3.191 2.674-6.063 3.079c-2.872.406-6.846-.926-6.846-.926l1.44 7.276s2.006 1.17 4.911 1.062c2.905-.108 4.403-1.295 4.403-1.295l2.155-9.196z"/><path fill="#0D4D8A" d="m317.838 236.28.497 10.105s-5.567 7.913-4.449 19.833c0 0-4.922 1.627-9.056 1.946l-18.866-27.812s5.806.088 16.162-1.352c10.356-1.439 15.712-2.72 15.712-2.72z"/><path d="m397.395 276.161.206 28.086-9.959 12.199 2.309.173 7.65-9.305.069 8.856 3.205-.068-.207-8.856 8.65 8.788 2.171-.345-10.89-11.338-.655-28.121c.001 0-.722.075-2.549-.069zm-31.946 11.399 16.819 28.852s1.264 1.544 3.973.012l-18.208-31.115s-.544.584-1.189 1.148a22.065 22.065 0 0 1-1.395 1.103zM324.8 302.043l3.215 5.389 3.008-16.613s-2.508-1.251-3.779-2.201l-2.444 13.425zm51.757-69.778c-3.806 8.516 4.136 8.392 0 0zm13.228 1.136c-3.761 7.633 3.981 7.53 0 0zm14.307-.345c-3.815 6.668 4.383 8.077 0 0zm10.446-.392c-2.889 8.378 4.913 7.539 0 0zm10.674-2.78c-2.672 8.665 5.156 7.075 0 0zm6.528-2.786c-3.821 7.168 4.052 7.462 0 0zm-63.925 2.897c-2.19 9.515 4.46 9 0 0zm-77.671 6.935c-4.318 6.466 4.101 6.481 0 0zm9.685-.576c-3.335 6.375 4.59 5.451 0 0zm8.013-.774c-3.269 6.487 4.409 6.06 0 0zm7.049-1.688c-3.117 6.114 4.467 5.333 0 0zm4.557-4.383c-4.155 7.163 3.736 7.332 0 0zm50.481-1.296c1.594-1.856 7.014-2.932 9.457-3.119 8.211-.624 16.318-1.727 24.567-1.57l-34.024 4.689zm-53.348-1.299c-2.353-1.273-6.732-1.133-9.364-1.467-5.448-.695-11.114-.926-16.608-.353-2.262.236-4.573-.036-6.849.064-1.171.053-2.393.413-3.552.586l36.373 1.17zm35.066 9.166c-1.106-.587-2.685-.39-3.896-.53-4.126-.477-9.175.259-12.831 2.235l16.727-1.705zm-22.541 48.917c-.255.796 4.936 2.996 5.609 3.291 5.482 2.397 13.359 3.212 18.942.856l-24.551-4.147zm25.873-29.206c-.126.963-1.565 2.274-2.126 3.014-2.025 2.668-4.08 5.281-6.762 7.343l8.888-10.357zm50.858-28.975c-1.064.124-3.178.54-3.931 1.255l3.931-1.255zm-109.49 2.03c-.483-.969-3.266.232-3.807.376l3.807-.376z"/><path fill="#CB3333" d="M332.697 158.528s2.278-4.088 5.863-5.368l2.283-1.067s-.938-1.642-1.814-1.941c-.874-.299-1.407.107-1.407.107s-3.2-1.581-6.804.067c-3.603 1.648-4.44 3.855-5.559 4.967s-1.732.853-1.676 1.715c.056.862-.233 3.207 1.363 3.949 1.597.742 3.478.254 3.478.254s.354-1.746 1.632-2.348c1.277-.604 2.641-.335 2.641-.335z"/><path fill="#EFD5BC" d="M323.593 157.852s-1.031-.195-1.613 1.091c-.583 1.285-.21 2.031.567 2.3.777.269 2.048-.479 2.048-.479s-.494-.522-.724-1.378a8.698 8.698 0 0 1-.278-1.534z"/><path fill="#FDAC36" d="M332.672 158.509a3.853 3.853 0 0 1 1.88 2.167s.676-.15.651-.689c0 0 .401.151.602-.087.2-.238.262-.264-.051-.539s-.589-.489-.589-1.052c0-.563.051-1.942.051-1.942s.363-.375.902-.55c.538-.175 1.165-.589 1.753.112.589.701.989 1.14 1.19.225 0 0 1.792.727 2.129.313.339-.413.051-.576.051-.576s.751.526 1.103.438c.351-.087.388-.25.388-.25l.138.664s1.29-.313 2.155-1.302c.863-.99.099-.802.099-.802s1.416-.313.852-1.278c-.564-.965-1.816.025-1.816.025s1.14-1.729.05-2.206c-1.09-.475-3.445.902-3.445.902s-2.606.79-4.911 2.681c-2.304 1.892-3.984 3.344-3.182 3.746z"/><path d="M336.466 168.434c.414.668 3.327-.087 3.869-.642l-3.869.642zm-6.57-6.598c.677-1.778 3.07-.945 3.377.631l-3.377-.631z"/><path d="M331.029 162.957c-.263 0 .096-.432.562-1.237l-.562 1.237zm12.191-2.354c-.227.056-.573.094-.488.443l.488-.443zm-4.133 4.182c.184.441.804.963 1.256.519l-1.256-.519zm1.299-5.123c1.586 1.899-.135-2.507 0 0zm2.564-.927c1.134 1.722-.133-2.004 0 0zm-3.184 0c-.05-.425.122-.817.528-1.008l-.528 1.008zm3.56-1.029c-.153-.216-.74-.602-.949-.358l.949.358z"/><path fill="#FAEBE4" d="M342.275 152.719c-.165.33-.686 1.76-1.278 1.76l1.278-1.76zm.457.266a2.74 2.74 0 0 1-.772 1.253c-.01.01-.577.481-.433.266l1.205-1.519zm.748.338c-.499.248-.763 1.048-1.23 1.398l1.23-1.398zm1.181 1.036c-.391.13-.451.967-1.037 1.084l1.037-1.084zm-10.776 3.688c-.16.08.268.866.362.772l-.362-.772zm.313-.216c-.09.181.305.696.435.868l-.435-.868zm-3.43.469c-.228-.911 1.131-4.082 1.852-4.803l-1.852 4.803z"/><path fill="#FAEBE4" d="M332.117 154.237c.439-1.317 3.196-3.125 4.478-3.553l-4.478 3.553zm-3.27-.927c-.309.384-.437.902-.426 1.387l.426-1.387zm.355.489c-.087.286-.339.729-.185 1.018l.185-1.018zm-2.066 4.17c-.202.034-.188.903.054.648l-.054-.648zm.681-.265c-.149.208-.17.618.047.773l-.047-.773z"/><path fill="#B96A28" d="M290.384 137.53s-.326 1.431.565 1.491l11.547-8.882s.607-.193.964-.581c.357-.389-.006-1.313-.73-.924-.518.278-.765.889-.765.889l-11.581 8.007zm110.502.621-13.065-7.915.311-.507 13.298 7.519s-.107.217-.252.466a4.52 4.52 0 0 1-.292.437z"/><path fill="#B96A28" d="M387.305 130.169c-.31-.191-.448-.543-.308-.786.139-.244.503-.287.813-.096.31.191.448.543.308.786-.14.245-.504.287-.813.096z"/><path fill="#67628A" d="m410.128 275.322 2.907 13.256s3.24 1.746 7.031 1.219c3.792-.528 6.652-3.503 6.652-3.503s3.744-15.31 4.153-21.57c0 0-2.915 2.525-8.543 5.646-5.628 3.119-12.2 4.952-12.2 4.952zm21.536-14.845s3.669-26.399 1.217-28.961c0 0-.554 1.043-.962 1.076l.018.163-1.264.614.991 27.108zm-67.713-23.661s1.51 1.048 3.032 2.383a34.483 34.483 0 0 1 2.575 2.5l-.212-5.009-.248-.053s-.148.283-.482.275c-.619-.015-.958-1.094-.958-1.094l-3.707.998zm-45.62 9.55-.536-10.09 1.395-.438s.598 1.464 2.327 1.915c1.73.45 3.924.533 3.924.533s-1.798 1.383-3.812 3.692a37.356 37.356 0 0 0-3.298 4.388z"/><path fill="#EFD5BC" d="M414.457 310.253s-.407.355-.423 2.135c-.018 1.78.085 2.255.389 2.306.305.051 10.696-.593 13.103-.577 2.406.018 4.17-.203 4.288-.763.119-.559.323-1.712.018-1.932-.305-.221-1.559-.254-1.559-.254l-15.816-.915z"/><path fill="#C62E2D" d="M414.69 295.653c-.631-.129-.207.941-.004 1.33.203.39.243 4.263.243 4.263s2.138-.5 3.138.814c1 1.312 2.214 2.517 2.985 2.3.77-.217 1.366-.997 1.366-.997s.099-2.671 1.113-2.877c0 0 .047-3.486.469-4.095.42-.609.53-.873.217-.977l-.157.372s-1.645.594-4.352.625a22.618 22.618 0 0 1-4.924-.496l-.094-.262z"/><path fill="#5794CF" d="M414.91 300.908c-.4.192-.229.742-.273 2.698-.045 1.956-.183 6.786-.183 6.786s2.155 1.85 5.641 1.757c3.487-.094 7.911.131 8.867-.038.956-.169 1.086-.881 1.424-.881 0 0-3.636-2.062-4.779-4.218-1.144-2.156-1.687-2.55-1.519-3.561.169-1.012.278-2.619.066-2.967-.212-.347-.258-.242-.666-.061-.409.182-1.235 1.349-1.05 2.814 0 0-1.221 1.611-2.533.664-1.311-.946-1.237-1.862-2.568-2.478-1.331-.616-2.026-.706-2.427-.515z"/><path fill="#EFD5BC" d="M424.426 304.993c-.599.285-1.879.9-1.407 1.866.471.966 2.859 2.972 3.4 2.787.54-.185.865-.68.865-.68s-1.066-1.062-1.536-1.76c-.469-.699-1.141-2.299-1.322-2.213z"/><path d="M204.358 352.19c0-2.094 4.111-3.791 9.184-3.791 5.073 0 9.185 1.697 9.185 3.791 0 2.093-4.112 3.79-9.185 3.79s-9.184-1.697-9.184-3.79zm37.849.392c0-1.576 12.829-2.853 28.653-2.853s28.654 1.277 28.654 2.853c0 1.575-12.83 2.852-28.654 2.852s-28.653-1.278-28.653-2.852zm85.464-.309c0-1.377 6.226-2.494 13.907-2.494 7.68 0 13.906 1.117 13.906 2.494 0 1.378-6.226 2.496-13.906 2.496-7.681-.001-13.907-1.118-13.907-2.496zM168.819 119.784c.107.068-.754-1.008-.951-1.314-.507-.792-1.214-2.34-1.378-3.25-.109-.605-5.34-1.296-4.344-3.734.597-1.458 3.627-1.302 5.106-2.352 1.556-1.105 4.151-6.459 5.964-5.835 1.085.374 2.174 3.045 2.231 3.058.179.041 1.222-2.156 2.362-1.558 1.914 1.005 1.152 3.047 1.618 4.725.233.838.798 1.52 1.106 2.318.681 1.769-.792 4.357-2.171 5.409-1.041.793-5.144 2.603-6.323 2.396-.929-.163-1.848-.19-2.672.229-.15.076-.264.241-.432.256-.03.004-.33-.484-.116-.348z"/><path fill="#008B86" d="M173.974 220.261c1.541 10.879 5.991 25.527 15.112 40.208 9.122 14.681 10.074 16.786 10.074 16.786s-2.094 9.707.037 24.498c2.132 14.79 3.29 28.389 3.031 30.26 0 0 2.224 4.325 5.726 4.245 3.502-.081 6.722-3.292 6.722-3.292s1.376-14.717 3.647-31.192c2.269-16.473 3.46-24.087 3.054-28.625-.407-4.537.468-41.815.468-41.815s72.462 57.76 78.067 63.042c5.604 5.282 15.737 15.697 15.737 15.697s4.505.258 7.269-2.209c2.765-2.467 3.108-6.14 3.108-6.14s-9.904-16.128-16.795-27.743c-6.891-11.615-15.732-23.211-24.956-37.692-9.225-14.48-33.21-49.254-34.24-50.102 0 0-77.602 23.194-76.061 34.074z"/><path fill="#EFD5BC" d="M172.495 129.137c-7.239 2.438-15.658 4.785-18.682 11.436-3.025 6.651-1.865 25.119-1.223 35.637.643 10.519 2.11 26.277 5.391 30.3 3.282 4.023 14.802 6.55 14.802 6.55s.56 4.549-.101 5.857c-.663 1.308.796 2.282 1.925 2.761 0 0 33.963-15.492 45.295-21.324 11.333-5.831 30.087-13.916 30.087-13.916s.881-4.604-.385-6.839c-1.265-2.236-4.591-4.561-4.591-4.561s8.216-1.74 10.806-5.217c2.59-3.476 7.068-13.019 6.325-16.6-.741-3.582-13.383-13.945-22.952-20.238-9.568-6.294-25.348-18.001-33.118-19.405-7.77-1.405-13.19.881-18.02 5.357l-3.06 2.299c.001-.001-5.261 5.463-12.499 7.903z"/><path fill="#B96A27" d="M174.408 108.014c-.4.032-1.062.159-1.999.586-1.875.852-1.232 2.544-2.308 3.963-1.077 1.418-1.93 1.205-1.93 1.205s1.932 3.371 1.205 4.101c0 0 .153.18.173.207-.398-.061-.934-.034-1.378.586-.686.955.419 2.331 1.93 3.033 1.51.7 2.67.603 2.791.138.046-.178.01-.258 0-.448.041.026.063.077.104.103 1.88 1.222 2.963 1.241 2.963 1.241s3.07 3.202 1.172 4.377c0 0 3.884 1.846 6.274.701 2.391-1.146 1.163-6.209 1.163-6.209s-1.199.356-2.131-.834c-.932-1.19-1.723-2.378-1.723-2.378s.703-1.494-.035-3.067c-.086-.184-.198-.277-.31-.483.047.03.13.2.172.207.707.122 1.187-.87.827-2.275-.358-1.405-1.622-3.429-2.446-2.963-.824.464-.551 1.792-.551 1.792-.039-.056-.276-.449-.276-.449s-1.279-.515-1.965-1.241c-.342-.362-.323-.517-.24-.586-.206.017-.483-.062-.827-.586-.53-.807-.104-.689-.104-.689s-.151-.065-.551-.032z"/><path fill="#B34D27" d="M203.964 191.144c2.343 9.843 5.042 19.822 3.156 32.405-1.885 12.584-2.464 21.934 4.961 35.493 0 0 5.115-2.757 9.702 3.449 4.586 6.208 7.97 13.348 5.393 17.004-2.578 3.655-4.253 4.379-4.253 4.379s-1.759 27.655 12.994 42.962c14.753 15.308 36.877 16.353 50.508 6.667 13.631-9.684 22.509-28.521 15.408-48.044-7.102-19.523-24.188-34.256-24.188-34.256s-6.783 5.335-12.707.652-8.358-12.35-8.282-15.258c.075-2.908 2.899-4.854 2.899-4.854s-3.55-8.36-10.815-15.563c-7.264-7.203-20.178-10.292-26.991-16.31-6.814-6.018-10.28-10.701-10.28-10.701s-9.848-7.868-7.505 1.975z"/><path fill="#CA3130" d="M185.729 154.768c3.188 6.068 17.468 33.283 22.003 42.687 4.536 9.403 20.406 43.871 20.406 43.871l11.414-6.381s-48.125-80.318-48.897-83.32c-.742-2.886.582-4.441-.2-6.309-.61-1.459-4.973-3.294-5.221-6.05-.248-2.757.062-4.584-1.642-5.048-1.703-.464-3.964-.526-5.357-2.384-1.394-1.858-2.199-3.408-2.199-3.408l-2.23 1.549s2.013 2.294 2.195 4.718c.181 2.423-1.764 4.706.292 6.027 2.057 1.322 2.78 1.356 3.634 3.837.854 2.479.54 6.042 1.522 7.277.982 1.235 3.554 1.554 4.28 2.934z"/><path d="M197.126 216.637c.029-.045 72.05-48.833 72.05-48.833s1.202.113 1.015 1.127l-71.803 50.176s-2.293-.838-1.262-2.47z"/><path d="m200.251 217.224 1.417 1.775 68.042-47.069.359.749.568-.412-1.493-2.887-.629.427.784 1.648-67.332 46.756-1.113-1.026-.603.039z"/><path fill="#B96A27" d="M229.014 161.757s-14.33 7.253-18.235 7.988c-3.904.734-4.191.287-6.801.613-2.609.326-3.049-.391-3.049-.391l1.835 3.157s-.848.449-3.243.848c-2.395.398-3.447-.063-3.447-.063l-.417-.705s-.685.733-.344 1.525c0 0-.55.962.461 1.57 0 0-.551 1.122.46 1.573l1.411.468s-.902-.146-.42.65c.483.795 1.034.867 3.312 1.27 2.277.402 4.731.645 8.345.051 3.614-.594 9.172-2.146 17.161-2.517 7.99-.371 11.406-.401 11.406-.401s-.309-10.979-8.435-15.636zm-39.804 31.077s6.661.491 16.78 1.837c10.12 1.347 14.089 2.863 16.229 1.896 2.142-.967 4.236-2.587 5.174-2.44.938.146 1.464.886 1.464.886s-1.288 1.517.011 2.824 3.292.269 3.839-.292c0 0 1.333.52 1.738.835.405.314.522.543.043 1.011-.477.469-1.159.464-2.043 1.36-.884.897-3.614 2.662-4.183 2.92-.57.257-2.62-1.15-4.998-.737-2.377.414-9.425 2.514-20.336 5.545-10.911 3.03-17.779 4.074-17.779 4.074s5.951-6.952 4.061-19.719zm13.345 139.252s3.481 7.408 10.335 2.133l-.309 8.364s-.994.533-2.324.632c0 0 .358-2.722-.61-3.331-.969-.61-3.596-.797-4.371-.008-.776.789-.352 3.505-.352 3.505s-1.951-.396-2.342-1.109l-.027-10.186zm113.409-22.252s6.424 7.543 7.708 9.16c0 0 6.258 1.243 7.626-1.492 0 0-1.782-4.393.125-5.513l-5.512-9.946s-.416 7.932-9.947 7.791z"/><path d="M177.742 121.928c1.16-.014 2.392-1.079 2.54-2.211l-2.54 2.211z"/><path d="M179.484 121.075c.32-.418.724-.791.958-1.267.192-.394.223-.876.401-1.238l-1.359 2.505zm1.205-2.525c-.058-.125.101-.54.098-.402-.009.4-.213.787-.341 1.144l.243-.742z"/><path d="M179.723 120.698c.051-.365.469-.664.64-.976.433-.785.412-1.212.411-1.416l-1.051 2.392zm-8.515-1.268c.677.903 1.694 1.635 2.65 2.209l-2.65-2.209zm1.31 1.715c-.696-.428-1.234-.957-2.028-1.236a3.487 3.487 0 0 0-.807-.152c-.066-.006-.401-.001-.309.033l3.144 1.355zm7.899-7.094c-.533-.963-1.234-2.198-.899-3.361l.899 3.361zm-1.027-.73c.226.408.62.784.886 1.182.103.153.182.329.271.49.023.042.105.271.083.15l-1.24-1.822zm19.185 62.195c-.668.049-1.485.072-2.139-.132-.207-.065-.849-.433-1.011-.421l3.15.553zm-.181 1.008a4.797 4.797 0 0 1-2.754-.409l2.754.409zm2.037 2.063c-.639.379-2.556-.196-3.312-.389l3.312.389zm2.919-5.577c-.089.24-.98.36-1.21.447-.101.039-.23.126-.341.129-.068.001-.274.03-.206.014.469-.11.88-.333 1.34-.452.136-.035.288-.052.41-.121.067-.039.271-.138.215-.085-.227.212-2.873.846-1.496.43.095-.028.19-.053.285-.076.1-.025.201-.047.301-.072l.702-.214zm29.648 27.085c-.719.223-1.532.087-2.268.164l2.268-.164zm-3.05.888c-.194-.007-.384-.04-.577-.047l.577.047zm-42.395 7.76c.614-.857.952-2.318 1.235-3.329 1.028-3.659 1.66-8.67.353-12.322l-1.588 15.651zm40.908 32.856c-.103-.527-.447-.976-.667-1.465-.871-1.924-1.912-3.783-2.887-5.656-2.71-5.212-5.153-10.635-7.518-16.012-1.257-2.859-2.683-5.632-4.007-8.467-.164-.351-.33-.695-.462-1.059-.355-.977-.547-1.996-1.096-2.847-.062-.097-.17-.293-.238-.24l16.875 35.746z"/><path d="M239.566 235.024c.108-.337-.978.359-1.04.409-.589.47-1.288.631-1.901 1.065-1.788 1.269-3.846 2.07-5.709 3.172-.637.377-1.404.627-1.978 1.106-.049.04-.846.526-.826.541.044.032.311-.104.368-.113l11.086-6.18z"/><path fill="#CA3130" d="m258.218 298.915 16.264-9.311s4.936 12.161 6.767 23.304c1.834 11.162 8.184 18.068 8.184 18.068s-2.529 2.541-4.504 3.464c0 0-4.637-12.314-11.225-17.815-6.547-5.466-15.486-17.71-15.486-17.71z"/><path d="M258.027 298.76c3.958 5.937 8.499 11.592 13.556 16.648 2.732 2.732 5.889 5.407 7.896 8.753 1.482 2.47 2.824 4.969 4.281 7.468.278.476.848 2.426 1.38 2.426l-27.113-35.295zm-12.003-55.416c1.141-1.466 4.119-.969 4.725 1.292.607 2.262 8.658 16.489 11.449 13.881 0 0-.576-1.587 1.264-2.246 1.841-.659 3.927 2.464 2.053 4.25-1.875 1.785-3.896 1.213-6.504-1.578-2.608-2.791-6.039-7.39-8.954-12.461 0 0-1.447 1.015-3.021.488-1.574-.526-2.153-2.16-1.012-3.626zm-16.227 8.547c-1.842.244-2.917 3.065-1.271 4.73 1.645 1.666 9.855 15.802 6.195 16.893 0 0-1.078-1.299-2.577-.044-1.499 1.255.142 4.633 2.631 3.918 2.488-.715 3.015-2.749 1.924-6.409-1.092-3.661-3.328-8.945-6.231-14.023 0 0 1.605-.737 1.946-2.361.343-1.624-.776-2.949-2.617-2.704z"/><path fill="#F3DAC0" d="m257.984 299.078 16.765-9.602-1.866-3.283-17.138 9.8 2.239 3.085zm-19.306-33.479-1.774-3.127 14.282-9.018 1.951 3.229-14.459 8.916z"/><path d="M212.522 206.082c.761.948 1.237 2.315 1.746 3.419 1.564 3.4 3.12 6.892 4.867 10.259 3.147 6.062 6.493 11.906 9.453 18.044 1.133 2.348 2.662 4.654 3.558 7.073 1.652 4.464 4.213 8.591 6.192 12.894.644 1.398 1.456 2.776 2.171 4.156.239.46 1.054 2.197.98 1.997l-28.967-57.842zm1.771-.532c1.838 3.437 3.342 7.05 5.145 10.505 4.812 9.226 9.347 18.592 14.248 27.758 2.263 4.233 4.285 8.593 6.623 12.787.78 1.399 1.444 2.899 2.152 4.337.199.402.981 1.867.755 1.725l-28.923-57.112zm1.319-.242c.247 1.837 1.835 3.913 2.711 5.492 1.833 3.308 3.55 6.673 5.395 9.98 3.099 5.55 5.931 11.249 8.954 16.84 1.848 3.415 3.992 6.684 5.595 10.229 1.617 3.574 3.98 6.773 5.776 10.25.187.363 1.373 3.112 1.741 3.153l-30.172-55.944zm1.204-.184c-.185-.233.538.759.589.839.548.881.083.086.609 1.07.725 1.354 1.499 2.682 2.236 4.028 2.207 4.025 4.79 7.825 7.009 11.844 5.123 9.28 10.685 18.273 15.718 27.61 1.191 2.209 2.682 4.393 4.154 6.427.292.404 1.515 1.917 1.462 2.394l-31.777-54.212zm2.094-.813c-.207-.135.488.754.544.834.239.344.453.707.654 1.075.816 1.494 1.567 3.021 2.411 4.503 2.405 4.224 4.892 8.522 7.563 12.588 4.226 6.432 7.67 13.268 11.671 19.83 2.889 4.736 6.081 9.242 9.255 13.733.253.356.142.793.419 1.139l-32.517-53.702zm22.233 59.403c-.045.224 2.435 3.422 2.67 3.798 2.331 3.738 4.551 7.556 6.836 11.332 8.508 14.065 17.78 27.643 26.373 41.639 2.359 3.842 5.214 7.309 7.451 11.22.344.601 1.842 2.029 1.738 2.543l-45.068-70.532zm2.359-1.123c-.146.04.603.894.727 1.094.589.947 1.06 1.957 1.601 2.93 1.134 2.039 2.284 4.075 3.383 6.134 3.288 6.155 7.365 11.924 11.164 17.774 6.906 10.633 12.836 21.859 19.68 32.527 1.714 2.672 2.854 5.734 4.86 8.209.321.395.848 1.474 1.398 1.586l-42.813-70.254z"/><path d="M245.589 261.057c-.073.093 1.589 3.061 1.748 3.374 1.611 3.178 3.403 6.287 5.154 9.393 2.933 5.205 6.203 10.225 9.083 15.459 4.227 7.681 8.43 15.513 13.285 22.824 3.073 4.626 5.819 9.393 8.631 14.184.945 1.61 2.112 3.105 3.146 4.664.282.425.935 2.067.862 1.891l-41.909-71.789zm3.032-1.52c3.631 8.863 9.38 16.829 13.793 25.296 4.235 8.122 8.299 16.233 12.896 24.167 2.961 5.11 6.688 10.012 9.027 15.448.809 1.88 1.952 3.454 3.112 5.13.319.461 1.775 2.474 1.295 2.099l-40.123-72.14zm2.851-1.796c-.082-.302 1.192 2.367 1.486 2.907 1.005 1.845 1.885 3.736 2.837 5.609a805.786 805.786 0 0 0 7.481 14.306c3.85 7.203 7.51 14.496 11.317 21.716 2.996 5.685 6.077 11.334 8.671 17.213a386.65 386.65 0 0 1 3.97 9.391c.191.465.825 2.181 1.374 2.292l-37.136-73.434zm34.874 22.422c-.994 1.652-.345 4.484-.833 6.449l.833-6.449zm-33.618 43.759c.267-1.394 1.19-2.553 1.936-3.731l-1.936 3.731zm-46.194-129.176c-.014.096-.2-.472-.254-.58-.208-.42-.515-.789-.701-1.223-.304-.708-1.271-3.232-1.839-3.629l2.794 5.432zm-6.706-14.558c2.449 3.297 4.328 7.214 6.31 10.802.401.727 1.522 3.587 2.264 3.963l-8.574-14.765zm1.115.03c1.932 3.654 4.38 7.054 6.396 10.678.551.991 1.061 2.236 1.817 3.083.277.309 1.087 1.524.877 1.418l-9.09-15.179zm1.417.514c-.211-.147.643.927.867 1.247.507.722.986 1.429 1.405 2.208a156.372 156.372 0 0 0 4.567 7.899c.576.936 1.326 1.783 1.953 2.628.187.254.912 1.427.626 1.042l-9.418-15.024zm1.346.3c-.02-.06.572.973.819 1.342a74.567 74.567 0 0 1 1.517 2.361c1.582 2.576 3.339 5.055 4.763 7.724.462.867.991 1.63 1.617 2.375.228.272.43.568.656.843.065.08.196.361.164.262a1.388 1.388 0 0 0-.212-.405l-9.324-14.502zm1.567-.278c-.16-.111.234.279.259.31.222.27.437.543.623.838.477.758.956 1.519 1.427 2.279 1.741 2.819 3.411 5.681 5.159 8.495a27.955 27.955 0 0 0 1.909 2.69c.21.262.446.523.627.805.035.054.244.503.189.333l-10.193-15.75z"/><path fill="#F3DAC0" d="M213.718 191.403c.774 1.013 1.107 2.386 1.908 3.405.191.243 1.133 1.782.902 1.426l-2.81-4.831zm-22.079-37.669-5.14 2.514-.362-.627 5.185-2.641.317.754z"/><path fill="#050101" d="M196.731 174.072c-.964-1.08-1.516-2.825-2.203-4.092a441.442 441.442 0 0 1-4.71-8.959 50.318 50.318 0 0 0-1.928-3.427c-.321-.519-.909-1.102-1.016-1.71l9.857 18.188zm1.186.009c-.509-.183-1.839-2.936-2.146-3.501a342.175 342.175 0 0 0-5.276-9.355c-.787-1.351-1.374-2.82-2.104-4.203-.24-.455-.48-.91-.736-1.357-.045-.078-.405-.764-.25-.557l10.512 18.973zm1.207-.009c.063.191-.38-.476-.437-.564-.202-.322-.388-.655-.582-.981-.593-.996-1.171-2.009-1.784-2.99-1.992-3.186-3.521-6.623-5.387-9.871-.654-1.139-1.164-2.352-1.814-3.494-.09-.16-.816-1.598-.681-1.578l10.685 19.478zm.92-.446c.055.168-.507-.698-.604-.838a34.25 34.25 0 0 1-.881-1.359c-.92-1.474-1.81-2.933-2.604-4.485-1.46-2.851-3.061-5.694-4.657-8.471-.561-.977-2.38-3.079-2.486-4.155l11.232 19.308zm1.403.228c-.481-.336-.721-1.083-1.018-1.566-.908-1.478-1.654-3.068-2.551-4.56-1.758-2.923-3.442-5.885-5.211-8.803-.952-1.569-2.594-3.243-3.172-5.005l11.952 19.934zm-.092-1.491.072.073.093.076.032.067-.197-.216zm.909 1.029c.211.148-.329-.4-.449-.627-.275-.526-.507-1.069-.783-1.593a80.833 80.833 0 0 0-2.523-4.473c-2.744-4.497-5.543-9.054-8.048-13.676l11.803 20.369zm-28.387-43.415c-.103.067.384-.221.453-.266.358-.233.945-.48 1.229-.784.068-.074.57-.442.415-.369l-2.097 1.419zm7.86 6.068-.009-.079-.021.056-.018.083-.061.168-.042.112.151-.34zm-3.24 2.391c.195.471.691.524 1.078.425l-1.078-.425zm6.891 5.555c.073.283.1.805-.074 1.054l.074-1.054z"/><path fill="#008B86" d="M185.203 151.048c.222.861 2.129.797 2.161.352l-2.161-.352z"/><path d="M189.081 192.925c.375-.082-.448-.033-.471-.036-.55-.079-1.081-.229-1.612-.389-1.673-.503-3.314-.931-5.058-1.119-2.689-.289-5.307-.801-7.962-1.273-.334-.06-2.375.034-2.56-.276-.026-.045 1.547-.515 1.691-.739.106-.165-.273-.257-.342-.296-.651-.365-1.289-.761-1.953-1.102-.1-.052-.878-.552-.706-.262l18.973 5.492zm-3.622 19.41c-.171.268-1.345 1.773-1.777 1.664l1.777-1.664zm-1.613 1.509c-2.589.572-6.064.094-8.699-.182-.672-.071-1.952-.721-2.553-.588l11.252.77z"/><path d="M189.154 193.586c.688.848-.761-1.155-.732-1.029.047.202.376.545.482.755.084.166.442.593.298.475-.251-.204-.396-.56-.581-.818-.058-.08-.208-.303-.218-.204-.019.205.364.613.482.755.055.066.23.257.165.2-.251-.218-.32-.329-.548-.604-.047-.056-.216-.178-.142-.171.039.003.87.826.88.715.024-.253-.126-.417-.231-.627-.04-.08-.165-.315-.108-.247.168.203.098.608.253.8z"/><path d="M189.267 193.925c-.44-.009-.352-1.002-.464-1.491-.035-.144.806 1.498.464 1.491z"/><path d="M189.352 194.144c.031-.127-.183-1.5-.256-1.471-.311.12.224 1.257.011 1-.093-.111.039-.433-.174-.385l.419.856zm-8.5-2.914c-.279.724-.172 1.666-.289 2.426-.208 1.363-.452 2.717-.63 4.087-.403 3.092-1.086 6.131-1.631 9.197-.297 1.666-.718 3.241-1.224 4.852-.087.276-.73 2.059-.742 1.729l4.516-22.291zm-7.236 19.976c.105-.071.837.909.894.052.006-.076-.11-.324-.148-.387-.502-.868-.929.46-.746.335zm-2.343-.841c-.752.895 1.559.93.877.084-.305-.377-.565-.455-.877-.084zm3.993-20.722c-.46-.298-.42-4.838-.394-5.418.246-5.309-.015-10.609.192-15.916.084-2.168.221-4.288.487-6.441.015-.129.884-3.403.197-2.343l-.482 30.118zm57.792-24.189c.27.893 1.419 1.741 1.824 2.689.987 2.31 2.099 4.63 2.524 7.135.174 1.024.142 2.242-.032 3.25-.004.029-.039.523-.126.476-.293-.158-.387-1.358-.766-1.423l-3.424-12.127z"/><path d="M237.228 178.886c.01.099 1.002-.375 1.169-.46 1.136-.581 2.123-1.382 3.261-1.993 1.269-.68 2.552-1.33 3.95-1.713 1.307-.357 2.837-.476 4.064-1.033l-12.444 5.199zm-8.098-17.184c-.465-.298 1.077-.901 1.301-.999.945-.416 1.809-.98 2.755-1.396.706-.31 1.547-.481 2.197-.869l-6.253 3.264zm6.24-2.979c.719-.025 1.699 1.248 2.204 1.695.925.817 1.568 1.842 2.31 2.821 1.289 1.703 2.555 3.393 3.516 5.297l-8.03-9.813z"/><path d="M242.878 167.471c1.07 1.964 1.131 4.775 1.149 6.966.004.514-.268 1.136-.196 1.584l-.953-8.55zm2.405 4.933c.049-.028.86 1.307 1.115.515.59-1.841-1.994-.028-1.115-.515zm2.401-.62c.002.063-.141.802.067.803 1.01.006-.087-1.638-.067-.803zm-13.885-12.44c.502-.399 1.067-.439 1.625-.737.954-.508 1.845-1.15 2.808-1.632.117-.058 1.247-.704 1.177-.841-.2-.386-1.332.139-1.451-.569-.101-.609 1.214-.666 1.571-.742l-5.73 4.521z"/><path d="M219.268 141.875c2.775 1.843 5.835 3.696 8.43 5.782 1.355 1.09 2.596 2.383 4.003 3.394 1.779 1.279 3.384 2.45 4.967 3.973.387.372 1.231.491 1.477.919l-18.877-14.068zm-43.641 19.934c1.04.264 1.235-.845 1.378-1.59l-1.378 1.59zm1.667-3.172c.039-.201.021-.093.047-.324l-.047.324zm40.878-17.939c-1.192-.169-1.688-.883-2.583-1.501l2.583 1.501zm-5.251 1.605.13-.063-.13.063zm-11.461 8.902c.887-.226 1.536-.997 2.291-1.514 2.379-1.633 4.894-3.146 7.347-4.723 1.1-.707 2.485-1.935 3.766-1.657l-13.404 7.894z"/><path d="M202.157 150.969c-.215-.248.305.422.357.491.267.347.548.71.797 1.076.698 1.023 1.123 2.223 1.82 3.259 1.49 2.213 3.03 4.388 4.609 6.446.196.256 1.029 1.517 1.428 1.496.655-.034 1.416-.767 2.088-.938l-11.099-11.83z"/><path d="M212.477 162.706c-.299.015-1.446.388-1.296.621.061.095 1.16-.572 1.241-.607.684-.288 1.396-.322 2.02-.748 1.875-1.278 7.418-3.983 7.408-6.308l-9.373 7.042z"/><path d="M214.425 143.422c-.784-.906 1.936 3.188 2.19 3.572 1.201 1.815 5.323 7.1 4.499 9.44l-6.689-13.012zm-11.894 7.19c.151-.507.212 1.058-.034.096-.05-.197-.245.774-.202.576.086-.398.08-.148.236-.672zm3.562-5.881.055.218-.055-.218zm-30.7 18.992.164-.042-.164.042zm1.425.568c-.953.824 3.638.506 4.007.432 2.292-.458 5.33-.802 7-2.657l-11.007 2.225zm7.747-42.589c-.039-.273.16.544.174.667.06.487-.008.953-.032 1.443-.062 1.277-.667 2.627-.667 3.825l.525-5.935zm-.399 5.793c.31.31 3.064.804 3.064.414l-3.064-.414zm2.937.08c-.734-1.47-.571-3.477-1.094-5.047-.077-.229-.443-1.79-.857-1.238l1.951 6.285z"/><path d="M184.485 121.94c.236-.313.541-.599.841-.857l-.841.857zm-8.031 5.601c-.184.013-.425-.131-.555 0-.08.08 1.387 1.17 1.538 1.254 1.235.683 3.862 2.699 5.158 2.699l-6.141-3.953z"/><path d="M182.516 131.493c-.677.339.285-3.172.811-3.698l-.811 3.698zm-5.253-4.476c-.126-.126 1.002.439 1.477.572.705.197 3.646.64 4.173-.063l-5.65-.509z"/><path d="M177.01 127.62c-.314-.431.169-.5.476-.872l-.476.872zm-5.298-11.614c-.24.433.485.547.491.52.058-.316-.332-.809-.491-.52zm4.381-2.82c-.464-.316.388.851.503.514.045-.135-.339-.479-.409-.576-.061-.084-.161-.366-.161-.264-.001.09.153.385.067.326zm-5.363 3.009c-.3-.607.105-1.822.908-1.817l-.908 1.817zm4.062-3.689c.219-.435.73-.776 1.176-.518l-1.176.518zm.732 3.624c.729-.101.474.699.146.861l-.146-.861z"/><path fill="#EFD5BC" d="m175.335 119.087-.024-.051.024.051zm-.598-.015c-.232.305 1.171.667 1.357.667.801.004 1.696-.495 2.24-1.075.554-.591.377-1.504.06-2.147-.039-.077-.169-.321-.236-.288l-3.421 2.843z"/><path d="M174.607 119.211c.037-.233.558-.363.742-.519a76.21 76.21 0 0 1 1.794-1.483c.27-.217.485-.479.753-.7.065-.054.423-.369.271-.322l-3.56 3.024z"/><path fill="#EFD5BC" d="M176.264 107.208c.259.008.614.537.571.343l-.571-.343zm.296-.388c.207.075.531.678.469.468l-.469-.468zm.247-.206c-.054-.057.464.14.454.482l-.454-.482zm.28-.347c.35.249.298.58.515.809l-.515-.809zm-5.312.71c.27-.738 1.19-.208 1.612-.335l-1.612.335zm.313-.515c-.258-.095.769-.997 1.455-.269l-1.455.269z"/><path d="m167.074 111.769.092-.047-.092.047zm16.842 16.594c6.592 9.343 10.315 19.81 15.659 29.828 1.677 3.143 2.755 6.494 4.279 9.656.373.773 1.287 2.042 1.418 2.907l-21.356-42.391zm26.75 51.682c2.213 4.014 5.552 7.931 8.796 11.117 1.163 1.143 2.139 2.447 3.28 3.601.384.388-.067 1.65.473 1.567.241-.036.177-.529.174-.651l-12.723-15.634zm112.296 127.824c-1.042.854-5.699 3.445-6.883 2l6.883-2zm-115.44 28.252c1.482.098 3.126.241 4.463-.63.43-.281.535-.883.946-1.152l-5.409 1.782z"/><path d="M202.662 332.66c.989 1.81 2.088 2.675 4.079 3.26.41.12 1.091.319 1.479.107l-5.558-3.367z"/><path d="M208.216 335.896c-.315.041-.943-.149-.943-.149s.974.093 1.45.198c.192.044.773.145.587.079-.652-.228-1.441-.118-2.117-.305-.132-.036-.443.026-.398-.103.109-.315 2.533.668 2.685.232l-1.264.048z"/><path d="M205.907 335.307c.816.405 3.089.488 4.012.369l-4.012-.369z"/><path d="M206.432 335.201c.218.451 3.745.687 4.153-.033l-4.153.033z"/><path d="M205.606 334.768c.903.448 1.996.637 2.969.927l-2.969-.927z"/><path d="M205.303 334.5c1.023.58 2.33.835 3.41 1.371l-3.41-1.371z"/><path d="M205.582 334.579c-.228.029.983.278 1.119.318.55.162 1.291.566 1.873.491l-2.992-.809z"/><path d="M205.582 334.579c.523.402 1.642.585 2.257.787.017.006 1.135.442.678.182l-2.935-.969z"/><path d="M206.038 334.828c.737.568 2.009 1.037 2.917 1.126.172.018.534.26.512.088-.043-.332-1.236-.184-1.217-.19.409-.124 1.072.022 1.392-.256l-3.604-.768z"/><path fill="#F37476" d="M209.265 335.375a12.17 12.17 0 0 0 1.585-.549l-1.585.549z"/><path fill="#EFD5BC" d="M202.197 348.422c-.373 1.64-.647 4.207-.545 5.03.103.823 1.687 2.427 2.078 2.653.39.226 7.405.145 8.042-.041.637-.185 2.551-3.126 2.695-4.032.143-.905-.865-6.109-1.666-5.924-.803.186-10.232.674-10.604 2.314z"/><path fill="#C62E2D" d="M202.616 342.279s.012 4.276-.399 6.16c-.412 1.882.214 5.055.994 5.107.779.051 1.662-.445 2.114-1.438.451-.994 1.291-1.569 2.66-1.334 1.369.235 1.906 2.767 2.694 2.465.788-.302 2.229-2.084 2.299-4.102.071-2.017.012-2.2-.161-3.28-.172-1.08-.245-3.44-.245-3.44l-2.154.549s.313-2.171-.611-3.071c-.924-.9-3.731-1.174-4.698.173-.967 1.348-.264 2.96-.264 2.96l-2.229-.749z"/><path fill="#EFD5BC" d="M329.763 329.568c.282 1.617.139 4.009.8 4.101.661.091 5.387-.551 11.227-1.801 5.839-1.249 12.541-2.666 13.013-3.302.472-.635.99-3.072.165-3.243-.826-.171-2.119-.214-2.119-.214s-23.37 2.843-23.086 4.459z"/><path fill="#C62E2D" d="M323.404 318.624s-1.139.319-.047.984c1.092.664 1.927 2.074 3.553 4.561s2.404 5.485 3.036 5.562c.633.076 6.633.115 12.473-.666 5.839-.78 7.64-1.332 10.033-1.574 2.394-.242-.287-2.09.54-2.411 0 0-4.569-.631-8.299-2.861-3.732-2.231-5.836-3.831-7.285-6.078-1.449-2.249-2.775-5.189-3.897-4.915-1.123.272-1.276-.01-2.096.663-.819.673-1.252 1.748-1.063 3.032.19 1.297.92 2.403.92 2.403s-2.766 2.052-4.776 1.925c-2.012-.126-3.092-.625-3.092-.625z"/><path fill="#F9ECE8" d="M337.63 316.467s1.236 1.902 3.344 3.354c2.107 1.451 5.04 3.114 5.04 3.114s-1.383 1.704-2.9 1.143c-1.516-.561-6.671-4.089-7.403-5.824-.733-1.734 1.919-1.787 1.919-1.787z"/><path fill="#EFD5BC" d="M205.608 349.483c.159.351 2.882-.097 3.072-.385.192-.288.647-3.388.276-3.765-.37-.378-2.798-.346-3.342.009-.546.356-.295 3.507-.006 4.141z"/><path d="M63.508 350.003c0-.686 5.885-1.242 13.144-1.242 7.258 0 13.144.556 13.144 1.242 0 .685-5.886 1.241-13.144 1.241-7.259 0-13.144-.556-13.144-1.241zm85.911 1.487c0-.482 4.253-.873 9.5-.873s9.5.391 9.5.873-4.253.873-9.5.873c-5.246 0-9.5-.391-9.5-.873z"/><path fill="#E2741E" d="M125.163 113.122s-44.488 3.178-50.895 3.043c-6.408-.137-11.541-1.045-14.87-5.542l-2.951-.004s2.017 3.052 4.476 12.68 2.43 16.825 2.43 16.825l2.943-.643s.223-11.078 9.161-13.948c8.938-2.868 50.279-11.64 50.279-11.64s-.149-.223-.425-.436c-.275-.215-.148-.335-.148-.335z"/><path fill="#008B86" d="M126.102 107.625c.251.045-.765.589-.926.655-.7.287-1.51.32-2.147-.147-.112-.084-.246-.16-.227-.343.12-1.139 2.547-1.323 2.619-1.671.025-.125-.218-.067-.323-.114-.288-.128-.541-.339-.774-.572-.387-.389-2.157-2.922-1.764-3.341.82-.878 1.713-.361 2.557.04.345.164.704.264 1.047.447.058.032.176.15.182.077.045-.592-1.265-2.626-.696-3.553.657-1.073 3.612 2.269 3.865 2.201.09-.025.009-.199.002-.254-.052-.448.179-1.522.673-1.596.385-.057.739.974.958 1.241.006.007.125.185.137.176.303-.214.369-1.167 1.013-.717.169.118.37 1.123.389 1.118 1.35-.368 2.895.581 4.313.371.437-.065.662-1.479 1.273-.901.648.612-.487 1.541-.305 1.975.154.368 1.177-.386 1.372.308.189.667-1.011.813-.894 1.227.129.454 1.076.439 1.125 1.031.031.373-.804.786-.728 1.019.176.536 1.833.678 1.739 1.898-.047.619-1.285.226-1.576.568-.147.172.361 2.118.047 2.547-.43.59-1.36.832-1.917 1.266-.428.333-.546.959-1 1.256-1.139.747-2.826.262-3.903-.388-1.94-1.171-2.634-3.151-4.037-4.932-.319-.404-.792-.943-1.306-.995-.171-.015-.858.09-.788.103z"/><path fill="#F69292" d="M126.595 105.289c-.039-.049-1.097 4.042-2.032 5.066-.304.332 1.088.873 1.137 1.585.049.711-.689 1.275-.689 1.275s1.018.655 1.033 1.62c.014.881-.494 3.448 2.068 3.756.775.769-1.413 5.066-1.413 5.066s6.299-.67 7.891-.723c0 0-.287-4.563.724-7.375.618.176 2.408.603 3.998-1.275 1.88-2.222-.246-4.609-2.137-4.515-1.891.095-2.378 2.137-2.378 2.137s-1.582.481-1.103-1.172c.48-1.652.965-2.895.965-2.895s-1.474-.578-1.172-1.722c0 0-1.758 1.303-2.55.138 0 0-2.268 1.149-1.964-.345.001-.001-1.419.581-2.378-.621z"/><path d="M138.941 111.472c-1.381-.959-3.499 1.846-2.616 3.027l2.616-3.027z"/><path d="M136.576 112.512c.257-.576 1.569.497 1.74.894.013.031.198.458.137.448l-1.877-1.342zm-3.061 3.222c.031.412-.624 1.041-.892 1.297-1.063 1.022-2.787 1.762-4.262 1.392l5.154-2.689zm3.065-8.569c.022-.066-.718 1.006-.857 1.242-.074.127-.384.417-.245.366.364-.135.985-1.249 1.102-1.608zm.547-.032c.09-.171-.516.662-.646.839-.036.051-.56.687-.52.714.032.02.209-.202.229-.226.35-.416.685-.857.937-1.327zm.604-.058c-.058.013-1.307 1.536-1.321 1.662-.009.078.073-.142.118-.207.071-.101.149-.206.224-.305.199-.266.43-.514.652-.761.061-.066.129-.122.194-.183.046-.043.153-.201.127-.142-.184.396-.503.858-.847 1.085-.099.065-.582.524-.444.311l1.297-1.46zm-2.574-2.025c.101.282.224.693.186 1.009-.01.082-.052.46.018.235l-.204-1.244zm.455-.14c.147.408.183 1.238-.122 1.557l.122-1.557zm.464.009c.007.328.121.726.023 1.045-.035.114-.236.492-.218.494l.195-1.539zm-10.516.405c-.013.101-.107.043-.19.018-.3-.093-.762-.286-.933-.559-.03-.045-.355-.422-.277-.411l1.4.952zm.032-.342c-.44-.06-.866-.523-1.173-.807-.127-.117-.376-.567-.321-.404l1.494 1.211z"/><path fill="#C62E2D" d="M76.257 199.007s-29.909 38.474-31.815 52.851c-1.907 14.376 6.643 58.094 10.961 72.171 0 0 7.654 3.303 12.57-2.486 0 0-1.655-10.964 1.286-24.061 2.941-13.096 3.733-33.57 3.941-39.238l17.932-9.017s3.784 17.721 13.847 35.821c10.064 18.101 29.767 39.807 37.591 46.262 0 0 7.929-2.92 7.436-9.439 0 0-6.361-10.251-10.911-21.737-4.549-11.485-8.463-22.171-7.984-28.739.477-6.567 4.376-18.21 7.207-27.538 2.83-9.327 4.183-23.103 4.183-23.103l-66.244-21.747z"/><path fill="#FBAD36" d="M125.691 104.678c-.412-.056-.923-.695-1.174-1.024l1.174 1.024zm-52.313 92.831s16.167-27.009 31.601-48.55c15.432-21.541 17.005-24.151 23.415-26.251 6.412-2.1 14.455 2.546 17.724 11.716 3.268 9.169 3.406 11.96 3.406 11.96l-5.015 2.485-.051 41.614 2.145 27.973s-4.086 4.043-19.157 5.74c-15.072 1.698-27.232.636-37.512-11.828-10.28-12.467-16.556-14.859-16.556-14.859z"/><path fill="#F69292" d="M124.42 154.493s13.589-5.31 22.171-7.379c0 0 2.683 12.245 3.931 22.907 1.247 10.662-.652 20.243-4.168 21.914-3.518 1.671-20.963 2.508-31.637-8.859s-12.701-23.17-16.357-35.859c-3.657-12.688-5.904-17.04-8.294-22.378-2.389-5.337-3.254-8.662-1.788-9.628 0 0-.226-3.447 1.987-3.649 0 0 .02-3.864 1.727-4.188 1.708-.324 2.178 1.737 2.178 1.737s1.41-1.927 3.076-1.428c1.665.497.98 1.651 1.744 1.792 0 0 .871 1.344-.429 1.439-1.299.094-1.454-1.99-2.051-.876-.595 1.114.687 5.583 1.189 7.616.501 2.032 1.064 2.711 1.471-.063.406-2.773 2.457-3.577 2.703-3.019.247.559-.657 1.064-.454 3.154.203 2.089 1.217 5.597.183 9.293-1.034 3.697 5.828 11.224 12.403 16.448 8.744 6.949 10.415 11.026 10.415 11.026z"/><path d="M130.81 163.133c-1.364-2.728-3.109-5.217-4.906-7.69-1.062-1.46-2.493-2.654-3.552-4.138l8.458 11.828z"/><path d="M146.52 147.217c-3.706.955-16.202 4.584-21.611 7.143 0 0 1.007 1.146 1.638 2.574 0-.001 20.03-9.733 19.973-9.717z"/><path d="m123.846 140.157.03-.301c-.116 1.191.111 2.456.122 3.654.023 2.54.044 5.03.439 7.543.189 1.202.504 2.446.775 3.63.011.05.021.131.073.137.118.011.112-.265.116-.292l-1.555-14.371z"/><path d="M124.235 148.215c.071 1.031.35 2.032.353 3.069.002.673-.153 1.461-.033 2.121.058.318.487 1.584.858.994l-1.178-6.184zm-18.213 22.461c-2.448-5.095-4.759-11.606-6.181-17.175-.092-.344-.165-1.454-.448-2.593l6.629 19.768zM90.95 249.307c-.104-.208-.062-.043.248-.198a112.22 112.22 0 0 0 3.959-2.078c3.921-2.165 8.027-3.891 12.025-5.889l-16.232 8.165z"/><path d="M106.686 241.192c-3.876 1.938-7.57 4.237-11.529 6.037-.311.141-4.187 2.02-4.207 2.079-.196.59.694 1.515.694 2.177l15.042-10.293zm12.763-6.205c3.799-1.633 6.815-3.602 9.899-6.35.779-.694 2.098-1.463 2.488-2.44l-12.387 8.79zM51.998 309.8s1.657 10.332 4.411 16.894c0 0 7.173 1.974 11.643-3.143 0 0-.758-7.064-.452-14.931 0 0-8.198 7.25-15.602 1.18zm83.148 14.41s3.406 3.946 8.606 8.13c0 0 6.78-1.642 7.248-9.02 0 0-3.283-4.95-5.045-8.544.001-.001-3.467 7.692-10.809 9.434z"/><path fill="#F69292" d="M56.55 326.735c-.02 0 2.452 5.894 2.452 5.894s4.915 1.856 9.46-2.872l-.513-6.093c.001.001-3.245 3.134-11.399 3.071zm87.704 5.471 4.386 3.451s4.934.743 5.633-8.897c0 0-1.082-1.001-3.341-3.187 0 0-.212 2.799-1.881 4.958-1.671 2.157-4.797 3.675-4.797 3.675z"/><path fill="#0D4D8A" d="M58.954 332.432s-.361.59.191.899c.552.31 1.953 5.064 1.953 5.064s.779-.118 1.228 1.438c.449 1.557 1.885 2.929 2.591 2.375.706-.553 1.603-2.654 2.679-4.045 1.076-1.391 1.415-1.352 1.415-1.352s-.358-2.167.356-2.411c0 0-.928-3.441-.742-4.193.186-.752-.15-.741-.15-.741l-.091.332s-1.063 1.268-4.592 2.238c-3.53.968-4.627.622-4.627.622l-.211-.226zm94.95-6.023s.605-.358.709.125c.158.736 1.061 1.67 1.061 1.67s-.586.813-.025 1.936c.561 1.123.796 2.929.264 4.61-.534 1.679-.847 1.893-.847 1.893s-1.601-2.251-2.392-2.155c-.791.096-2.93 1.747-3.167 1.909 0 0-.279-.538-.697-.485-.418.053-.359-.393-.359-.393l.282.122s2.299-.517 3.972-3.501 1.473-5.365 1.473-5.365l-.274-.366z"/><path d="M129.087 110.036c-5.694 1.666-.521 10.138 3.615 4.722-3.581 4.006-8.954-1.782-3.615-4.722zm-2.538-1.315c.052-.279.759-.142.88-.002.136.156.115.323.191.494.008.015.02.029.029.042l-1.1-.534zm.938-1.547c.601-.551.948.936 1.033 1.234l-1.033-1.234zm5.3 4.744c-.321.255-.454.689-.845.89l.845-.89zm1.774 2.915c-.161.129-.46.405-.568.571l.568-.571zm-9.306-4.065c.058-.168.367.206.405.261l-.405-.261zm-31.588 4.67c.211-.661-.412-1.904-.505-2.604-.181-1.37-.086-2.696-.104-4.057l.609 6.661z"/><path d="M93.23 112.364c-.205-.712.196-2.088.456-2.79.057-.152.329-.456.326-.573l-.782 3.363zm3.753-3.343-.036.051.282-.178.073-.099-.319.226zm-5.836 8.53c-.848-1.64-1.024-4.247-.824-6.052l.824 6.052zm-1.106 2.378c.001.104-.341-.583-.38-.675-.129-.297-.243-.601-.371-.899-.482-1.114-.701-2.41-.717-3.615l1.468 5.189zm1.654-1.539c-.072.084.068-.264.047-.144-.017.09-.111.341-.125.248-.017-.112.23-.391.163-.3-.082.11.016.079-.085.196zm2.619-2.222c-.063-.245-.399.145-.358.226.032.063.143-.007.209.015.136.045.18-.122.149-.241z"/><path fill="#E2741E" d="M78.962 124.399s2.614 6.996 4.063 7.376c1.45.38 14.028-2.757 21.266-5.413 7.237-2.658 9.37-3.393 9.467-5.138.096-1.743-.41-4.915-.41-4.915l-1.616.369s.619 2.877.604 4.149c-.013 1.27-5.379 2.82-8.497 3.942-3.118 1.122-12.168 3.656-13.175 3.926-1.007.271-3.323-6.592-3.323-6.592l-1.144.245s3.026 6.863 2.453 7.123c-.573.261-4.432 1.484-4.935 1.063-.504-.421-3.634-6.536-3.634-6.536l-1.119.401z"/><path fill="#FBAD36" d="M97.629 110.543s-1.309.203-.841.367c.468.165 3.194.26 3.164-.101-.013-.158-.729-.286-.729-.286s-.127.331-.61.333c-.483.002-.984-.313-.984-.313z"/><path fill="#E2741E" d="m96.679 110.825-.014.766s.818.292 1.848.24c1.031-.053 1.459-.3 1.459-.3l-.034-.732s-.235.208-1.63.236c-1.338.027-1.629-.21-1.629-.21z"/><path fill="#E2741E" d="m97.509 111.67.258 3.379 1.503-.132-.336-3.259-1.425.012z"/><path fill="#FBAD36" d="M63.394 140.078c-3.783-6.645-7.624-25.561-6.946-29.449 0 0 3.502 4.672 5.345 15.248 1.844 10.575 1.601 14.201 1.601 14.201z"/><path fill="#EFD5BC" d="M162.896 331.878c.79.011 5.238 2.238 5.079 2.846-.159.609-.964 2.142-3.463 6.554-2.5 4.412-6.525 10.988-7.762 11.08-1.237.093-7.322.345-7.901.303-.578-.042-.759-3.498.887-3.765 1.644-.267 4.284.72 5.752-.891 1.469-1.612 6.619-16.138 7.408-16.127zM50.53 350.94c-.971.426-1.172 1.77-.746 2.187.426.418.584.679.989.709.405.029 12.972-1.52 16.958-1.924 3.986-.404 6.65-.208 6.796-.764.145-.556-.081-3.752-.504-4.548-.423-.796-22.523 3.915-23.493 4.34z"/><path fill="#008B86" d="M155.605 328.16s-.784.857.098 2.776c.569 1.238.4 2.118.206 3.283-.195 1.163-.859 2.409-.859 2.409s-1.528-2.642-2.686-2.116c-1.158.525-3.346 1.876-3.266 2.489.079.614 1.37 1.036 2.151 2.127.783 1.092.433 1.904 1.584 3.554 1.15 1.65 1.48 1.952 1.157 3.538-.322 1.585-.581 1.762-1.736 1.918-1.155.156-2.576.739-2.576.739s4.235.358 5.404.228c1.168-.131 6.623-7.803 6.879-10.642.255-2.839.443-5.235.968-6.585 0 0-2.855-1.743-4.743-2.789-1.888-1.045-2.098-1.442-2.341-1.953-.244-.511-.49.716-.49.716l.25.308zm-86.653 8.575s-.551-2.06.442-2.422c.993-.362 1.042.094 1.287.791.245.697.551 2.406.244 2.64-.307.234-.55.591-.55.591s.259 2.094 1.472 4.138c1.213 2.042 2.141 3.55 2.152 4.173 0 0-1.068.273-4.361 1.833-3.293 1.559-4.475 1.913-8.809 2.68-4.334.766-7.273 1.23-8.522.765-1.249-.463-1.349-1.169-1.88-1.008 0 0 2.106-.777 4.903-3.274 2.797-2.498 4.82-5.096 5.137-5.302 0 0-.328-1.144-1.338-1.353-1.01-.211-1.07-1.13-.474-1.828.596-.698 1.803-.921 2.521-.815.717.106 1.656 2.124 1.656 2.124s.655 1.781 1.984 1.264c1.328-.517 1.423-2.16 2.409-3.423.985-1.264 1.727-1.574 1.727-1.574z"/><path fill="#EFD5BC" d="M53.795 348.903s1.399.766 2.322.107 5.372-4.055 5.418-4.572c.046-.516-1.954-1.114-1.954-1.114s-2.141 2.289-3.425 3.483c-1.285 1.193-2.361 2.096-2.361 2.096zm97.82-9.122c.409-.451 1.681-1.28 1.93-.912.249.368.352 1.49.998 2.186.646.697 1.2 2.719.978 3.486-.222.765-1.397.71-1.44.407-.043-.303-.391-1.099-.851-1.698-.46-.599-.962-1.168-1.226-2.206-.266-1.038-.389-1.263-.389-1.263z"/><path d="M57.68 112.863c1.487 1.51 1.952 4.369 2.578 6.308 1.212 3.755 1.713 7.458 2.407 11.317.314 1.742.406 3.454.467 5.215.024.699.272 1.513.14 2.208l-5.592-25.048zm15.33 7.564c-.971.205-1.658 2.32-2.067 3.069l2.067-3.069zm42.469-5.764-.418.144.418-.144zm-3.21 2.203c.088-.023 1.315-.191 1.117-.366l-1.117.366zm-33.18 7.736c.386-.186.804-.282 1.209-.419l-1.209.419zm7.604-1.692c-.699-.184.041-.215.38-.356.127-.053.497-.203.397-.109-.199.184-.573.519-.777.465zm5.939 7.151c2-.488 4.006-1.027 5.906-1.831.862-.364 1.996-1.074 2.92-1.209l-8.826 3.04zm356.865-59.84 11.175-3.386-1.155 10.228s-.407 3.989-5.033 4.846c-4.626.858-.541-5.852 4.157-5.74l.624-6.433-9.199 2.724-1.345 6.977s-.625 2.718-3.583 3.46-2.793-4.249 2.751-4.09l1.608-8.586zm95.159 28.702 11.175-3.386-1.155 10.229s-.406 3.988-5.033 4.846c-4.626.858-.541-5.852 4.157-5.74l.624-6.434-9.199 2.724-1.345 6.977s-.625 2.718-3.583 3.46c-2.957.742-2.793-4.249 2.751-4.09l1.608-8.586zm-67.323-47.717 6.88 11.97s.591 4.212-2.032 8.066c-2.623 3.854-7.443-3.599.217-8.405l-6.137-10.989 1.072-.642zm26.285-5.314.987 13.94s-1.644.387-3.996 2.7c-2.352 2.313-2.552 7.04 1.476 5.417 4.027-1.623 3.927-8.055 3.927-8.055l-.869-11.136s.073-1.686 2.729-.562c2.656 1.124 4.645 1.212 6.053-.362 1.409-1.574 1.811-2.707 1.811-2.707s-2.416 2.291-4.707 1.052c-2.292-1.239-3.148-2.443-5.195-2.42-2.047.022-2.216 2.133-2.216 2.133zm30.478 12.985-4.245 13.751s-1.546-.98-4.853.239c-3.307 1.22-4.125 5.112-.848 5.814 3.276.702 6.857-5.563 6.857-5.563l2.02-6.549s1.824-1.646 3.145-.122 2.271 3.058 4.464 1.886c0 0-1.63.482-2.755-1.428-1.124-1.91-2.061-2.667-4.121-2.53l.852-2.719s1.146-1.012 2.221-.506c1.075.507 1.876 3.077 3.359 3.568 1.483.491 2.431-.412 2.431-.412s-1.625.367-2.683-1.242c-1.057-1.609-1.574-3.437-3.017-3.951-1.444-.513-2.827-.236-2.827-.236z"/><path fill="#B96A28" d="M426.632 198.829c3.062 12.531 11.233 38.858 16.587 49.686 5.354 10.828 6.36 10.995 5.123 15.94-1.236 4.946-3.99 20.353-8.654 32.714-4.665 12.362-6.764 18.193-6.764 18.193s5.209 4.431 13.139 6.452 10.573 1.088 10.573 1.088 9.691-51.184 9.13-60.378c-.561-9.193-5.641-38.565-6.67-41.781 0 0 13.972 23.136 20.925 34.76 6.954 11.623 24.526 42.977 30.245 53.372 5.718 10.395 6.865 13.944 6.865 13.944s8.571 4.267 16.605-.357c8.036-4.624 10.289-11.448 10.289-11.448s-23.534-28.689-34.4-46.01c-10.867-17.32-32.925-68.844-32.925-68.844l-16.521-6.897-15.038 3.159c0 .005-21.571-6.122-18.509 6.407z"/><path d="M426.164 346.698c0-.196 6.179-.356 13.799-.356 7.621 0 13.799.16 13.799.356s-6.178.356-13.799.356c-7.62.001-13.799-.159-13.799-.356zm98.142-6.787c0-.476 4.549-.861 10.161-.861 5.611 0 10.161.385 10.161.861 0 .475-4.55.861-10.161.861-5.612 0-10.161-.386-10.161-.861z"/><path fill="#F9908F" d="M370.842 176.847c2.155 2.385 3.166.114 0 0z"/><path fill="#5794CF" d="M448.963 138.107s2.214 3.942 4.955.169c0 0 7.464 5.426 8.029 18.599.566 13.173 1.188 34.457 1.188 34.457s-9.62 9.549-16.416-.088c-6.795-9.638.32-49.545.32-49.545l1.924-3.592z"/><path fill="#0D4D8A" d="M387.065 71.844c2.202-2.593 7.743-3.378 8.868-.797 1.126 2.581 2.797 17.631 8.443 28.729 5.646 11.098 17.702 30.107 23.853 33.196 6.15 3.088 12.988 1.692 15.186-.736 0 0 2.933 3.05 4.516 7.445 1.584 4.393 4.276 13.723 4.547 20.347.271 6.624-1.981 21.573-2.196 29.472-.214 7.898-.75 12.131-3.616 12.948-2.866.817-5.922.8-13.066-2.429-7.145-3.228-9.679-5.078-10.59-6.805-.912-1.727 1.802-19.737-.566-28.829-2.368-9.09-11.219-17.482-19.735-31.759-8.517-14.276-12.32-20.508-14.834-30.881-2.515-10.373-4.349-25.735-.81-29.901zm71.544 60.534c-2.191 2.643-3.632 5.709-3.178 9.926.454 4.217 2.141 18.554 2.4 27.117.26 8.563 3.786 22.892 6.533 28.214 2.748 5.322 3.495 6.405 6.042 6.554 2.547.149 11.699-5.508 12.106-7.738.407-2.23-1.593-8.466-1.593-8.466s3.063 3.578 8.273 3.153c5.208-.426 8.863-3.41 10.068-12.637s-1.577-22.02-2.888-28.199c-1.311-6.179-2.157-8.625-3.565-9.613-1.408-.989-5.047-1.197-6.241-.078-1.192 1.117-4.483 11.529-4.483 11.529s-1.717-10.076-7.462-13.971c-6.77-4.589-15.534-6.367-16.012-5.791z"/><path fill="#F8AF3C" d="M455.351 141.072s-2.364-3.076-2.361-4.556c.003-1.48 1.424-2.161 1.592-3.486.169-1.324-.255-2.235-.255-2.235s1.542-.761 2.633-.361c1.093.4 1.783 1.923 1.783 1.923s-2.227 2.706-2.736 4.388c-.508 1.681-.656 4.327-.656 4.327zm-11.897-8.716s-.168-1.027.678-2.3c.846-1.274 2.628-1.277 2.628-1.277l-.186 2.532s1.281 1.015 2.07 3.708c.788 2.692-.163 6.824-.163 6.824s-1.696-4.927-3.071-7.025c-1.376-2.1-1.956-2.462-1.956-2.462zm-19.986 61.493s-.636 2.02 1.431 4.152c2.069 2.132 11.274 6.5 15.396 7.054 4.122.555 6.142-1.35 5.977-2.503 0 0-4.204.957-11.925-2.342-8.39-3.585-10.879-6.361-10.879-6.361zm58.826 3.084s1.151 2.109-.109 3.173-7.713 5.802-9.038 5.584c-1.326-.217-2.694-1.435-2.694-1.435s2.346-.652 6.322-3.064c3.976-2.411 5.519-4.258 5.519-4.258zm3.901-55.807s-.486-2.218.565-2.879c1.05-.662 5.29-.565 6.244.369.953.934 1.245 4.026 1.245 4.026s-1.945-2.509-4.688-2.315c-2.744.196-3.366.799-3.366.799zm-99.796-68.209s-.051-3.979 1.704-5.23c1.754-1.251 5.922-1.584 7.285-.103 1.363 1.48.828 4.404.828 4.404s-.748-2.439-4.514-2.116c-3.766.322-5.303 3.045-5.303 3.045z"/><path d="M430.71 180.166c-.451 3.237-1.792 5.856-3.12 8.75-.243.529-1.146 2.406-1.811 2.313l4.931-11.063zm45.066-4.98c.814 5.277 2.634 9.681 5.456 14.072l-5.456-14.072zm-4.443 5.367c-.421.709.561 2.823.78 3.445.726 2.071 3.993 8.119 6.193 9.078l-6.973-12.523zm12.917-19.3c-.342-1.31-.218-2.741-.765-4.043-.693-1.652-1.273-3.539-1.719-5.247l2.484 9.29zm-32.886-5.421c-.047-2.368-.799-5.217-1.388-7.513l1.388 7.513zm-1.486-8.027c-.562-2.191-.837-4.411-1.566-6.512l1.566 6.512zm1.46 8.734c-.146 1.436.062 3.053.076 4.499.024 2.442-.378 5.004-.276 7.505.072 1.756-.548 3.508-.723 5.239-.281 2.785-.421 5.604-.702 8.38-.622 6.151.171 12.653-1.302 18.605l2.927-44.228zm3.692-14.694c.491 1.696.366 3.486.611 5.224.646 4.597.691 9.203 1.148 13.819.575 5.816 1.847 11.676 2.215 17.51.208 3.307 1.022 6.521 1.675 9.766.232 1.151.236 3.078 1.372 3.703l-7.021-50.022zm-.907 68.762c.833 3.331 2.595 6.294 4.446 9.164.56.868 1.221 1.675 1.752 2.561.03.05.577 1.573.741 1.079l-6.939-12.804zm-1.331 49.538c-.375.438-2.571 3.489-2.365 4.003.201.501.668-.849 1.001-1.274.479-.612.974-1.21 1.456-1.82.281-.357.496-1.414.818-1.092.265.265-3.084 6.083-1.82 4.185l.91-4.002zm54.822 19.795c0 2.545 1.029 5.332 1.526 7.631.691 3.194 1.061 6.391 2.065 9.517.64 1.988 1.673 3.853 2.335 5.836.162.485.691 1.526.179 1.526-.334 0-.263-.62-.449-.898l-5.656-23.612z"/><path fill="#EFD5BC" d="M476.452 249.13c2.537 4.068 4.672 8.347 7.236 12.457.881 1.411 1.517 3.498 2.88 4.333l-10.116-16.79z"/><path fill="#F69292" d="M394.913 67.306s-.607-4.885.091-6.038c.698-1.153 2.094-1.517 2.185-3.034.092-1.517-.395-3.034.485-4.703.88-1.669 1.569-2.305 1.156-2.462-.414-.156-1.31-.653-2.142.661-.83 1.314-1.964 4.889-2.625 3.607-.659-1.283-.532-3.253-.945-5.719-.414-2.467-2.041-4.381-2.2-3.537-.16.844.555 2.301.823 4.311.268 2.01-.076 5.29-.46 3.841-.384-1.449-.527-1.811-1.103-4.071-.577-2.26-.796-3.241-1.513-3.459-.594-.181-.67.236-.289 1.786.383 1.55.855 3.404 1.043 4.895.19 1.491-.396 2.649-.73.898-.334-1.751-1.709-5.239-2.425-5.651-.716-.412-.641.099-.195 1.325.445 1.227 1.77 7.045.863 5.57-1.121-1.826-1.921-5.438-2.679-5.653-.759-.215.043 1.118.633 3.314.651 2.422 1.856 6.262 3.047 8.064s.787 6.166.787 6.166 1.364-.653 2.912-.68c1.551-.029 3.281.569 3.281.569z"/><path fill="#67628A" d="m475.737 124.053 18.249 2.382s1.634 1.04.203 2.827l-18.457.354s1.385-2.813.005-5.563z"/><path fill="#F69292" d="M487.378 138.005c-.209-.752-1.232-1.337-1.688-2.883-.457-1.545-.299-5.075-.669-6.522-.372-1.448-1.727-3.861-1.823-4.367-.096-.507 1.409-.755 2.282.307.872 1.062 2.449 4.069 3.003 4.424l4.451.341s.589 2.334.532 3.994c-.056 1.66-.383 1.997-.676 3.229-.293 1.232-.216 1.806-.216 1.806s-1.496-.399-2.931-.437c-1.437-.036-2.265.108-2.265.108z"/><path fill="#F69292" d="M486.136 124.825s.865.155 1.122 1.297c.258 1.141 1.063 2.112 1.332 1.855.269-.257.18-.578.18-.578s.409.383.794.335c.384-.047.282-.672.282-.672s.335.149.663.053c.328-.097.146-.56.06-1.223s.134-1.416-.244-1.901c-.377-.486-1.078-.303-1.078-.303s-.249-.427-.662-.466c-.414-.041-.942.527-.942.527s-.652-.125-1.089-.093c-.436.031-.749 1.169-.749 1.169h.331zm-42.003 196.446-1.214 8.487s2.906 2.095 4.956 2.36c2.05.265 5.548-1.806 5.548-1.806l1.429-7.2s-1.79-.069-5.066-.542c-3.147-.452-5.653-1.299-5.653-1.299zm87.414 7.248s3.953.729 6.406-1.133c2.453-1.86 2.734-5.033 2.734-5.033l-2.037-3.552s-2.004 1.931-4.283 3.28c-2.278 1.349-6.371 2.343-6.371 2.343l3.551 4.095z"/><path fill="#B96A28" d="m402.645 139.382 6.352 4.424s.567-.298.638-.674l-1.271-1.811-5.216-3.165s-.115.304-.24.611c-.127.308-.263.615-.263.615z"/><path fill="#9C4226" d="M441.998 120.876s-1-.203-1.827-.618c-.827-.416.009-1.182.009-1.182s-1.028-.282-1.872-1.96c-.845-1.677 1.396-3.709 1.396-3.709s-1.265-1.805-.314-3.232c.951-1.427 3.334-1.148 3.334-1.148s2.075.425 2.099-1.051c.022-1.476.884-1.961 1.459-1.839.573.121.257 1.248.257 1.248s1.768.463 3.18-.899 2.289-1.741 3.987-1.129c1.696.612 1.65 2.936 1.65 2.936s2.253.781 3.163 2.157c.909 1.375-1.073 1.235-1.073 1.235s1.457 1.119.711 2.064c-.744.945-1.526.128-1.863.749-.336.621-.494 1.324-.494 1.324l-8.689 5.914-5.113-.86z"/><path fill="#F69292" d="M446.562 119.689s-.471-1.118-2-.97c-1.531.147-3.237 1.868-2.619 3.84.618 1.972 3.134 2.648 3.986 2.118 0 0 .811 4.378.593 6.621 0 0 2.603 5.064 2.361 6.996 0 0 2.15 3.745 4.868.269 0 0 1.547-6.095 1.492-6.764-.054-.669-1.012-.892-1.012-.892s-.835-2.153-.469-3.017c.366-.863 2.665-.747 3.207-1.171.543-.425-.146-.909.117-1.328.262-.419.159-.554-.717-.321-.876.232-2.342.331-2.212-.815.13-1.145 1.846-2.576 2.546-2.746.7-.17.513-.288.549-.882.038-.594.585-1.055.875-1.29 0 0-.461-.152-1.062-.967s-1.288-2.9-1.795-3.306c0 0-1.194 1.04-1.756-.159-.56-1.2-1.491-1.128-1.986-.234-.496.893-1.665 1.629-2.438.817 0 0-.942 1.17-.423 1.824.518.654.728.024.728.024s-.11 1.284-.86.97c0 0-.867.905-.343 1.204.522.298-1.03 1.429-1.63.179z"/><path d="M450.168 126.919c-.075.111.709.425.881.46a8.078 8.078 0 0 0 3.099.002l-3.98-.462z"/><path d="M448.145 125.598c.816 1.058 1.962 1.491 3.219 1.652l-3.219-1.652zm9.21-5.93c-.388-.132-.362.444-.429.511l.429-.511zm-3.352-1.09c.259-.254.932-1.08 1.369-.635l-1.369.635zm.351-1.873c-.09-.093-.211-.026-.323-.014-.988.1-1.241 1.308-1.493 2.041l1.816-2.027zm-10.583 4.535c1.013.214 1.638.666 2.287 1.488l-2.287-1.488zm44.94 5.144c-.123-.614-.363-1.652-.82-2.11l.82 2.11zm1.054-.44c0-.786-.37-1.287-.557-1.845l.557 1.845zm.98 5.399c-.866-.876-1.388-1.789-2.487-2.457l2.487 2.457zm-98.537-74.65c-.932.883-1.929 2.37-1.387 3.714l1.387-3.714zm53.941 59.105c.1.465.312 1.26.953 1.124l-.953-1.124zm.369-.264c.002.485.405.884.782 1.128l-.782-1.128zm.365-.313c.237.415.523.834.973 1.011l-.973-1.011zm.017 3.426c.06.218.142.281.358.311l-.358-.311zm.5-.717.033.037.117.191.126.05-.276-.278zm8.213-6.696c.065.739-.062 1.664-.59 2.223l.59-2.223zm.654.355c-.037.693-.234 1.484-.645 2.057l.645-2.057zm.38.561c-.078.312-.131.576-.246.866l.246-.866zm-3.346-5.298c.352.296.373.946.209 1.36l-.209-1.36zm.605.119c.271.228.197.959.079 1.259l-.079-1.259zm.624.126c.066.404.034.794-.038 1.19l.038-1.19zm-14.976 8.917c-.537.501 1.461 2.246 1.768 2.401l-1.768-2.401z"/><path fill="#FFF" d="M444.251 122.894c-.065-.601.127-.94.629-1.17l-.629 1.17z"/><path d="m494.346 129.025 5.601-.298s.555-.547-.116-1.259l-5.509-.696s.341.602.31 1.216a2.393 2.393 0 0 1-.286 1.037zm-29.835-2.311c0-2.662 2.822-4.821 6.303-4.821s6.303 2.159 6.303 4.821c0 2.663-2.822 4.821-6.303 4.821s-6.303-2.158-6.303-4.821z"/><path d="M498.841 127.572c48.624 28.148-9.449 90.26 7.476 133.487-12.456-48.248 40.192-108.926-7.476-133.487zm-56.719 205.565c-.359.053-2.33 13.933-2.33 13.933l7.256-.139.598-1.745 3.752 1.745 13.181.239s1.632-1.494 1.326-1.751c-.307-.257-4.202-.354-6.203-1.887-2.002-1.534-6.209-6.449-6.558-7.073-.351-.623-2.942 1.235-5.527 1.578-2.587.343-3.069-5.257-5.495-4.9zm93.008-.71s2.343 4.762 2.402 5.629c.058.868.35 1.584.431 2.651l17.34-1.335s-.065-2.841-.737-3.336c-.67-.494-4.42-2.355-6.281-3.833-1.861-1.479-4.203-4.204-4.671-4.475-.468-.271-2.006.666-3.466.597-1.459-.07-2.972 1.602-3.453 2.618-.482 1.015-1.565 1.484-1.565 1.484z"/><path fill="#C62E2D" d="M442.506 333.17s.624-2.515.454-2.905c-.17-.389-.18-.813.01-.859l-.024.341s2.801 2.229 4.742 2.332c1.941.104 5.733-1.756 5.733-1.756l.041-.387s.564 0 .35.41c-.214.409-.328.101-.343.839-.015.737-.393 5.231-.393 5.231s-.194-.189-1.728.496-3.866 2.58-5.594.25c-1.728-2.329-2.245-3.879-3.248-3.992zm88.974-4.786s-.495.366.179.539c.673.174.637.109 1.428 1.024.792.916 2.097 2.474 2.097 2.474s1.083-.429 1.595-1.525c.512-1.095 1.959-2.526 3.227-2.56 1.268-.034 2.175-.24 2.658-.444.483-.204.801-.219.801-.219s-1.773-3.448-2.075-4.349c-.303-.9-.115-1.186-.393-1.391-.278-.206-.535.133-.535.133l.203.251s-.828 1.672-4.157 3.799c-3.328 2.127-4.786 2.478-4.786 2.478l-.242-.21z"/><path fill="#5794CF" d="M410.942 111.593c-.468.368-.229 1.792-.206 2.302.117 2.511.949 4.59 3.396 5.638.658.282 1.586.891 2.248.371l-5.438-8.311zm-18.254 3.36c1.59-.805 3.155.618 4.301 1.505 1.863 1.443 3.38 4.79 2.596 7.184-.223.682-.687 1.307-.984 1.935l-5.913-10.624zm21.016 15.61c-.291-.401.219 1.234.369 1.48.434.712.971 1.191 1.816.833.241-.101.732-.294.852-.548.375-.796.079-2.359-.924-2.573-.828-.177-2.04.908-2.113.808zm-12.403-24.184c-1.75-.067-2.65 3.922-1.421 5.033 2.065 1.868 5.786.374 4.948-2.669-.355-1.294-1.545-1.875-2.691-2.277-.296-.104-.571-.077-.836-.087zm4.116 14.698c-1.288 1.158.411 3.115 1.579 1.824 1.08-1.194-.61-2.696-1.579-1.824zm-4.37 7.851-.053-.08.053.08zm-.279.136c.489-.834 1.932-.969 2.79-1.107 2.595-.417 5.536.318 6.705 2.929.93 2.078 1.574 5.481.325 7.612-.558.954-1.933 1.433-2.445 2.305l-7.375-11.739zm13.199 11.959c-.779.183-.022 2.879.395 3.369 2.576 3.032 6.597 3.333 7.87-1.021.697-2.385-2.306-5.579-4.72-5.552-1.08.011-2.645.923-3.314 1.746-.318.39-.361.626-.268 1.139.064.354.224.275.037.319zm-25.521-37.803c1.859-.062 1.456-4.122-1.029-4.533l1.029 4.533zm5.216 3.98c-1.588 2.483 2.872 3.143 3.026.279.152-2.842-4.392-2.902-5.098-.4-.131.465.131.968.355 1.35.187.32.304.852.622 1.083.787.571 3.384-.158 3.024-1.324l-1.929-.988zm.306-13.926c-.542-.11-1.031 1.375-1.154 1.857-.431 1.687.079 4.02 1.614 5.03 3.905 2.573 6.645-2.506 4.737-5.758-.842-1.436-3.221-1.215-4.557-1.245-.278-.007-.353.174-.64.116zm-8.091-4.635c-.193.366.761-.392 1.01-.723.404-.534.794-1.031.909-1.719.28-1.69-.844-3.691-2.596-3.412l.677 5.854zm11.599-10.898c-.76-1.062-2.257-.41-3.219.09-2.058 1.069-3.932 2.473-3.281 5.021.482 1.886 1.985 4.497 4.22 4.617.79.042 3.98-.615 3.934-.906l-1.654-8.822zm-8.884-4.143c-1.012 1.18.741 2.652 1.705 1.262 1.041-1.5-.709-2.422-1.705-1.262zm36.904 57.508c-.158 1.157-.382 3.012.607 3.988 1.112 1.098 4.929 1.666 5.686-.223.149-.371-.287-.388-.305-.693l-5.988-3.072zm5.076 8.421c-1.191-.846-3.023.642-3.628 1.527-1.016 1.484-.464 3.866 1.002 4.87 2.757 1.886 7.117-.741 6.206-4.154-.302-1.134-1.763-2.06-2.864-2.243-.246-.042-.513.143-.716 0zm-13.695 13.102c1.492-.751 3.41 2.032 3.593 3.285.085.582.108 1.113-.077 1.675-.067.205-.204.811-.223.676l-3.293-5.636zm11.524 1.563c-.796-.064-1.371.894-1.767 1.681-2.532 5.039 5.261 4.543 3.618-.582-.326-1.02-1.059-1.034-1.851-1.099zm7.949-4.73c-1.309.008-.404 1.818.378 2.038.899.251 1.688-.901 1.151-1.671-.596-.855-.766-.372-1.529-.367zm4.745-11.962c.222.264-.682.111-1.025.15-.646.072-1.051.441-1.356 1.002-.796 1.463-1.219 3.443.54 4.429.472.265 1.275.083 1.772.01 2.062-.302 2.733-2.626 2.193-4.453-.11-.374-2.806-1.95-2.124-1.138zm4.438 7.427c.516.232-.714.003-.901 1.178-.137.859.814 2.223 1.809 1.721.898-.452.999-2.631-.018-3.056-.159-.066-1.68-.198-.89.157zm-3.469 5.632c.028.02-.599.329-.817.656-.521.782-.914 1.697-.9 2.653.025 1.659 1.99 3.193 3.591 2.534.654-.269.956-1.13 1.195-1.731.696-1.745.313-3.281-1.32-4.261-.41-.246-2.204-.177-1.749.149zm8.696 5.169c-.45-.08-.783-.372-1.285-.348-4.454.202-5.74 6.775-3.295 9.764.794.972 3.31 3.047 4.752 2.042l-.172-11.458zm-12.116 5.375c-.396-.336-.936-.859-1.488-.934-2.572-.347-4.991 3.496-2.922 5.405.558.514 1.473.546 2.18.684 3.844.751 4.773-2.992 2.23-5.155zm-10.512 4.464c-4.202-.225-5.144 6.955.393 6.857 2.085-.037 3.38-4.482 2.338-6.033-.628-.932-1.776-.773-2.731-.824zm-4.506 10.266c-.029-.014.621.071.86.287.65.584 1.256 1.184 1.435 2.08.45 2.247-.652 5.007-2.69 6.024l.395-8.391zm5.774-.933c-1.619.233-1.381 2.8.465 2.223 1.446-.45 1.241-2.467-.465-2.223zm7.838-5.593c-1.524-.589-3.9.701-3.972 2.41-.046 1.088 1.234 2.453 2.227 2.767 2.896.918 5.204-3.841 1.745-5.177zm7.278-1.041c.234-.532-1.206.233-1.391.455-.892 1.077-.836 3.29 1.009 3.349 1.384.046 2.127-1.453 1.805-2.684-.074-.281-.544-.932-.794-1.078-.182-.106-.714.151-.629-.042zm.467 8.227c-.01.012-.672-.497-1.344-.715-.552-.178-1.273.095-1.757.348-1.57.819-2.565 2.839-1.231 4.328 1.46 1.631 5.529.855 5.727-1.613.041-.504-1.02-2.812-1.395-2.348zm4.392 5.67c-.208-1.105-2.827.523-3.051.753-2.152 2.214-.56 6.992 2.718 6.373l.333-7.126zm-7.84 2.374c-.465-1.247-2.729-.205-2.25 1.498.599 2.127 3.051.653 2.25-1.498zm-4.526-5.136c-1.566-1.703-4.756.668-3.073 2.643 1.892 2.221 4.696-.879 3.073-2.643zm-3.474 6.854c-.409-1.511-2.879.014-2.576 1.083.318 1.113 2.187 1.36 2.802.411.36-.554-.088-.989-.226-1.494zm6.274 4.778c-.382-.14-1.339-.812-1.681-.728-1.395.344-3.614 2.007-2.787 3.769.297.632 1.138.891 1.726 1.154 2.444 1.093 4.623-3.508 2.742-4.195zm6.104.886c-.394-.914-1.539-.398-2.067-.003-1.384 1.039-1.149 4.214.904 4.3 2.058.087 4.226-2.497 2.893-4.428-.331-.479-2.254-1.297-2.553-.547l.823.678zm-1.363 10.765c.041-.474.31-.876.253-1.39-.191-1.697-2.451-3.331-4.096-3.147-1.256.141-2.331 1.294-3.158 2.169-.244.258-.652 1.275-.203 1.225l7.204 1.143zm2.832-2.655c-.276.031-1.225.109-.833.661.05.069.097.156.2.159.699.02.907-.851.633-.82zm-15.244-.657c.592-.405.423-1.659.313-2.234-.558-2.931-5.261-2.904-5.69-.641l5.377 2.875zm-1.284-8.054c.057-.413-1.345-.101-1.424.31-.11.58.858.774 1.217.492.406-.316.179-.593.207-.802zm-7.917-1.886c.469-.032.74.214.983.564.837 1.211-.332 1.38-1.041 1.946l.058-2.51zm39.211-56.543c-.072.271.17.678.257.93.207.601.749 1.253 1.321 1.542.968.487 3.403.391 3.744-.913l-5.322-1.559zm-6.252 8.615c-.189-.138.715.082.901.256.414.388.741 1.055.979 1.562.656 1.392.429 3.811-1.248 4.431l-.632-6.249zm2.034-4.239c.18-.052-.404.31-.461.433-.154.335-.155.859-.108 1.219.134 1.027 1.208 1.137 1.974.729.809-.431 1.262-1.627.615-2.368-.39-.448-.777-.579-1.339-.436-.118.031-1.238.581-.681.423zm1.514-2.783c.129-.019-.011.007-.076.323-.044.216.03.67.179.838.248.279 1.112.029 1.303-.248.526-.759-.753-1.693-1.322-1.071-.132.143-.173.171-.084.158zm.225 7.256c-.161-.863-1.043 2.491.571 2.181.773-.148 1.279-.976.859-1.694-.233-.399-.749-.601-1.189-.613-.122-.003-.197.363-.241.126zm2.795-4.442c-.809-.55-1.221 1.666-.257 2.115.749.347 1.629-.459 1.568-1.242-.061-.798-.976-.646-1.311-.873zm4.969.161c.063-.534-.992.202-1.13.509-.997 2.211.138 4.812 2.827 3.863 1.242-.438 1.987-2.465 1.245-3.587-.357-.54-1.275-1.224-1.929-1.318-.46-.066-1.015.556-1.013.533zm6.174.297c-.42-.437-.971.798-1.002 1.047-.202 1.643.453 3.586 2.157 4.117.335.104.786.13 1.128.063 1.538-.303 1.717-1.424 1.009-2.53-.171-.268-.641-1.141-1.022-1.148l-2.27-1.549zm-8.136 6.593c-1.67-.667-3.038 1.8-3.398 2.918-.892 2.77 1.716 5.183 4.374 4.848 2.607-.329 4.154-4.056 2.705-6.227-1.07-1.604-2.201-.947-3.681-1.539zm-7.369 6.503c-.38-.071-1.009 2.945-.008 3.014 1.424.097 2.115-1.549 1.352-2.636-.311-.442-.792-.276-1.344-.378zm2.859 4.14c.576-.097-.819.24-1.116.663-.523.744-.839 1.727-.728 2.64.325 2.668 2.734 4.005 5 2.941 2.425-1.139 2.418-4.332.718-6.044-.438-.44-2.309-.945-2.944-.94-.416.003-1.489.834-.93.74zm9.483 5.247c.328-.026-.643.146-.948.267-.32.127-.673.978-.76 1.235-.35 1.034-.022 2.894 1.247 3.208 1.501.372 2.772-1.455 2.482-2.762-.189-.851-.747-1.524-1.47-1.986-.315-.203-1.165.087-.551.038zm4.809-7.728c-1.252.224-1.326 3.676.965 2.679 1.545-.672.89-3.01-.965-2.679zm-6.247 2.741a2.253 2.253 0 0 0-.097.587c-.015.613.991.348 1.091-.117.125-.589-.823-1.052-.994-.47zm7.383-8.374c.379.034-.487.591-.675.923-.269.479.054 1.482.464 1.79a.696.696 0 0 0 .49.122c.876-.106 3.162-2.094 1.836-3.011-.643-.444-3.005.094-2.115.176zm-11.237 23.327c-2.915-1.065-4.549 5.495-.283 5.571 2.435.043 3.527-3.958 1.824-5.205-.674-.494-1.755-.217-2.513-.131l.972-.235zm-3.539-5.491c-.899.813-1.274 1.903-1.11 3.062a.354.354 0 0 0 .239.264c1.263.379 2.379-.438 2.17-1.786-.134-.864-1.081-1.739-1.299-1.54zm-.327 13.26c-.05-.019.819-.256 1.458.001.956.383 1.3 1.417 1.715 2.262 1.03 2.1.39 4.281-1.384 5.78-.228.193-.582.222-.826.427l-.963-8.47zm4.933 10.599c-.449.095.259-.308.357-.332.422-.106.921-.066 1.272.189.707.515 1.907 2.103.825 2.863-1.155.812-1.581.728-2.145-.547a4.362 4.362 0 0 1-.379-1.872c.007-.25.573-.406.07-.301zm2.015-5.538c-1.71-.157-.517 2.498.251 2.949 1.318.772 1.696-1.416 1.452-2.247-.317-1.082-1.135-.65-1.703-.702zm4.619-1.129c1.122-.73 2.479.156 3.315.956 1.503 1.437 1.693 4.939.053 6.324l-3.368-7.28zm-2.561-7.33c-.331.425-.77.447-1.079.956-.787 1.299.915 3.14 2.26 2.658.391-.14.695-.425.958-.733 1.05-1.23.351-1.708-.646-2.384-.321-.218-.969-1.171-1.493-.497zm3.505-8.186c-2.184-.462-3.11 5.158-1.125 5.5 2.534.437 2.603-3.302 1.793-4.743-.253-.449-1.737-.634-1.385-.093l.717-.664zm5.015-6.442c-2.724-.787-3.585 4.461-.682 4.992 2.2.402 4.106-3.248 2.46-4.361-.557-.378-2.556-.849-2.179.248l.401-.879zm-1.022 10.069c.428-1.37-1.859 3.577.62 2.887 1.083-.302 1.77-2.414.769-3.127-.962-.686-1.7 1.238-1.389.24zm7.538-4.77c-.616-.73-1.611-.189-1.932.594-.579 1.409-.895 6.049 1.546 5.904 3.565-.212 3.927-4.933 1.213-6.552-.342-.203-2.112.107-2.06.568l1.233-.514zm-3.6 11.569c-2.075.006-1.511 3.004.263 2.678.734-.136 1.141-.857 1.372-1.489 1.184-3.241-2.974-3.813-2.635-.825l1-.364zm2.541 3.667c-1.113.127-1.69.761-2.359 1.601-1.252 1.571.072 3.354 1.227 4.567.557.583.949 1.141 1.825 1.041 2.095-.237 3.813-2.783 2.754-4.726-.603-1.106-1.609-1.736-2.779-2.1-.718-.223-1.262.457-1.205.387l.537-.77zm3.476-5.871c-2.258 1.664-.589 5.591 1.591 3.921 2.103-1.61.213-5.251-1.591-3.921zm-.617-17.712c-.332-.378-.683.691-1.299 2.126-.644 1.498.298 3.895 2.188 3.499 3.178-.666 3-3.255 1.007-5.071-.465-.422-1.684-.311-1.896-.554zm-3.324-8.722c.343.01 1.047-.063 1.312.184 1.172 1.089 2.14 5.004.298 5.922-.951.473-2.932-.157-3.065-1.318l1.455-4.788zm5.176 4.139c.096.105-.356-.393-.809.571-.318.674-.418 2.726.829 2.529 1.241-.195 2.297-1.877 1.372-2.946-.281-.326-1.649-.434-1.392-.154zm.781-9.251c.074-.088-1.199.249-1.527.486-1.242.897-2.084 4.777.15 4.98 1.681.153 3.785-2.082 2.705-3.68-.277-.411-1.607-1.448-1.328-1.786zm5.009 4.491c-.721-1.927-2.862.565-3.305 1.333-.341.59-.523 1.161-.416 1.837.286 1.809 2.082 2.639 3.789 2.193.395-.103.624-.445 1.027-.492l-1.095-4.871zm2.363 8.316c-.33-1.662-2.594-.235-3.029.522-.706 1.223-.43 3.526 1.077 4.03.573.193 1.964-.152 2.525-.262l-.573-4.29zm-2.651 7.823c-.477-.838-1.956-.852-2.707-.454-1.573.834-1.024 4.307.358 5.005.382.192 1.124.19 1.533.132 1.511-.214 2.505-2.041 2.05-3.46-.302-.942-1.335-2.047-2.249-1.339l1.015.116zm-1.599 8.03c.497-.216-.812.453-.978.968-.361 1.123.944 2.804 2.179 2.185 1.506-.756.913-3.271-.337-3.898-.583-.292-1.39.975-.864.745zm6.143-1.516c-.174-.877-1.366.158-1.565.508-.607 1.077-.387 4.7 1.581 3.771l-.016-4.279zm-1.156-4.133c-.419-.565-.657.938-.326 1.255.813.78.623-.854.326-1.255zm-8.537 5.046c.084.087.078.366.125.431.111.153.423.112.565.046.438-.206.427-.867.23-1.235-.281-.531-1.475.185-.92.758zm4.952 7.563c-.202-.533-2.113-.98-2.585-.636-.808.587-1.125 1.72-1.217 2.66-.05.507.174 1.27.593 1.588 1.783 1.351 4.141-1.37 3.3-3.154-.402-.852-1.653-1.642-1.655-.147l1.564-.311zm-3.559 7.845c-2.081-.388 1.307 4.189 1.814.551.042-.3.044-.689-.075-.976-.68-1.641-3.124 1.254-1.81 1.47l.071-1.045zm7.662-7.548c-.357-1.803-3.077 1.419-1.178 2.454.288.158.625.096.908-.021l.27-2.433zm-25.467 16.656c-.286-1.447-1.487 1.007-1.616 1.449-.447 1.532.481 3.172 2.086 3.103 1.771-.076 3.314-3.075 2.222-4.531-.315-.42-1.31-1.43-1.965-1.386-.574.038-.689 1.562-.727 1.365zm-.511-4.419c.11-.994-.085.934.636 1.184.772.269 1.05-1.436.771-1.855-.426-.643-1.431.887-1.407.671zm-5.466 6.054c-.481.451-.516 2.517 1.076 2.104.996-.258 1.215-4.252-1.076-2.104zm13.378 1.064c-.212-.019-.612-1.092-.661-1.214-.357-.91-.288-2.448.448-3.15.378-.362 1.659-1.139 1.958-.375l-1.745 4.739z"/><path fill="#5794CF" d="M482.014 193.593c.573 1.462.418 3.007-.988 3.651-.271.123-.389.139-.595-.109l1.583-3.542z"/></svg>