<svg viewBox="0 0 2000 2000"><path fill="#68003c" d="M635.29 440.57a904.5 904.5 0 0 1 399.21 41.7l-21.36 75.62-164.77 28.77-185.11-74c-30.87-13.17-48.76-44.82-27.97-72.09Z"/><path fill="#2351fb" d="M1864.16 917.55C1893 878 1897.81 826 1876.37 783.3c-29.3-58.39-92-68.36-97.64-69.16-82.8-14.81-176.22-41.29-279.2-73.93-149-47.24-316.82-115-392.09-197.13-15.22 13.48-160.29 137.81-333.6 92.05-67.67-17.87-115.08-55.18-142.4-81.37a1494.85 1494.85 0 0 0-158.66 463.79Z"/><path fill="#e87700" d="M568.07 586.66c153.16 37.77 264.41 157 297.53 306.09L472.78 789.44Z"/><path fill="#2351fb" d="M1238.54 536.17s-113.47-36.3-196.19-196.33c-101.35 61.7-82.18 187.82 14.92 246.82Z"/><path fill="#e87700" d="M1493.21 892.75s-6.1-91.11 93.57-97.21 211.37 14.69 221.64-73c0 0 145.47 26.33 69.73 182.91Z"/><path fill="#fdc500" d="M1780.59 992.82H686.94V892.75H1879c0 58.71-46.13 100.07-98.41 100.07Z"/><path fill="#2351fb" d="M586.69 628.7c-8.11-5.72-122.9-83.84-240-32.55-52.83 23.13-83.27 62.57-97.36 84.17l-146.78 410.82 781.13 465.15c253.65 93.26 475.85 1.29 520.76-130.19 36.93-108.14-51.07-228.41-69.17-252.24l-488.2-337.67Z"/><path fill="#fdc500" d="M589.8 537.17s78.54 59 162 73.26 113.8-65.57 113.8-65.57c-83.78-15.67-162-51.06-230.31-104.29a416.4 416.4 0 0 0-45.49 96.6Z"/><path fill="#68003c" d="M322.53 775.2a357.07 357.07 0 0 0 190.88 117.55c-32.11-66.07 11-143.58 73.23-171.12 57.87-25.59 113.05-.24 122.05 4.07-10.53-10.94-189.88-193.17-333.61-138.33-15.55 5.94-87.5 33.34-94.93 93-6.15 49.44 35.5 88.56 42.38 94.83Z"/><path fill="#fdc500" d="M558.69 612.13c-27.56-10.22-101.58-33.44-175.13-3.74-19.06 7.7-46.78 19.35-65.1 48.82-23 37-22.11 82.61 4.07 118a99.8 99.8 0 0 1-12.2 95.6 234.51 234.51 0 0 1-79-140.28c1.12-9.17 14.64-105.69 101-151.28 71.23-37.6 162.21-24.87 226.36 32.88Z"/><path fill="#e87700" d="M195.1 832.05S387.17 978.28 395 1191a2246.53 2246.53 0 0 1-257.36-198.2ZM884.72 1504s38.92-98.18 169.1-83.94 219.7-12.21 262.42-63.06 58.41-57 19-183.12c0 0 102.81 63.1 78.13 205.46 0 0-9.69 154.63-176.5 199.38S940.67 1533 884.72 1504Z"/><path fill="#fdc500" d="M137.67 992.82q-16.84 46-33.71 92.06a64.82 64.82 0 0 0 25.4 76.57c128.47 84 426.21 275.4 703.47 427.39 41.06 22.51 134 72.08 258.34 73.23 56.75.52 194.44 1.8 272.58-99.68 52.75-68.49 52-149.54 49.65-183.07 0 0-70 201.38-326.3 191.21S137.67 992.82 137.67 992.82Z"/><path fill="#68003c" d="M928.84 894.75c-1 0 4.59 3.6-82.91-56.92a2 2 0 0 1 2.27-3.29L930 891.1a2 2 0 0 1-1.16 3.65ZM504.78 970.29c-96.21 0-173.18-73.79-195.91-98.12a2 2 0 1 1 2.92-2.73c24.45 26.17 112.48 110.41 219 95a188.3 188.3 0 0 0 50.32-14.76 2 2 0 0 1 1.64 3.65 189 189 0 0 1-77.97 16.96Z"/><path fill="#68003c" d="M953.3 1193c-89.76-10.16-373.52-241.37-441.18-298.74a2 2 0 0 1-.24-2.81 2 2 0 0 1 2.82-.24c3.39 2.86 340.5 286.66 439.05 297.82 97.76 11 193.9-98.07 188.72-146.94a2 2 0 1 1 4-.42c5.53 52.39-93.76 162.56-193.17 151.33Z"/><circle cx="640.78" cy="1008.05" r="29.6" fill="#fdc500"/><circle cx="552.29" cy="933.28" r="29.6" fill="#fdc500"/><circle cx="771.77" cy="1105.86" r="29.6" fill="#fdc500"/><circle cx="920.74" cy="1187.54" r="29.6" fill="#fdc500"/><path fill="#e87700" d="M640.77 1022.05a14 14 0 0 1-12.88-19.46c2.75-6.5 68.51-159.68 161.09-186 30.63-8.7 60.54-2.9 88.89 17.23a14 14 0 1 1-16.21 22.82c-21.39-15.17-42.65-19.46-65-13.12-32.36 9.19-67.22 41.16-100.81 92.46a553 553 0 0 0-42.13 77.49 14 14 0 0 1-12.95 8.58ZM771.78 1119.86a14 14 0 0 1-13.56-17.52c1.32-5 33.19-124.34 118.17-170.83 37.84-20.71 80.09-23.69 125.55-8.88a14 14 0 0 1-8.67 26.62c-37.81-12.32-72.57-10-103.36 6.78-74.34 40.6-104.3 152.24-104.59 153.37a14 14 0 0 1-13.54 10.46ZM928.81 1201.54a14 14 0 0 1-13.71-16.93c1.26-5.9 31.72-144.93 102.94-190.65 21.31-13.68 44.19-17.93 68-12.65a14 14 0 1 1-6.07 27.33c-55.76-12.38-94 56.38-114.88 109.3a519.41 519.41 0 0 0-22.56 72.53 14 14 0 0 1-13.72 11.07Z"/><path fill="#68003c" d="M1434.24 694.17c-25.22 0-55.6-3.32-92-11.91-156.57-36.9-346.65-168.91-348.55-170.26a2 2 0 1 1 2.29-3.28c1.89 1.32 191.36 132.9 347.16 169.63 154.87 36.5 199.43-24.61 199.86-25.23a2 2 0 0 1 3.29 2.28c-1.41 2.05-28.18 38.77-112.05 38.77Z"/><circle cx="1132.09" cy="590.4" r="29.6" fill="#fdc500"/><circle cx="1024.43" cy="553.33" r="29.6" fill="#fdc500"/><circle cx="1261.86" cy="649.61" r="29.6" fill="#fdc500"/><circle cx="1410.66" cy="699.1" r="29.6" fill="#fdc500"/><path fill="#e87700" d="M1129.27 604.39a14 14 0 0 1-13.18-18.71c.86-2.41 21.64-59.32 64-77.68 18.44-8 37.86-7.68 57.71.94a14 14 0 1 1-11.14 25.69c-12.62-5.48-24.19-5.79-35.38-1-31.21 13.47-48.68 61-48.85 61.48a14 14 0 0 1-13.16 9.28ZM1261.86 663.6a14 14 0 0 1-13.57-17.46c1.55-6 16.14-59.7 52.24-77.52 14.92-7.36 31.59-7.48 48.24-.38a14 14 0 0 1-11 25.75c-9.27-4-17.16-4-24.81-.28-20.89 10.28-34.18 46.34-37.54 59.38a14 14 0 0 1-13.56 10.51ZM1416.1 713.1a14 14 0 0 1-13.7-16.92c1.15-5.4 12.08-53.34 40.06-71.31a42.08 42.08 0 0 1 32.5-5.94 14 14 0 1 1-6.06 27.34 13.92 13.92 0 0 0-11.29 2.14c-13.75 8.81-24.37 37.57-27.83 53.63a14 14 0 0 1-13.68 11.06ZM362.56 1408.33a14 14 0 0 1 12-15.73c45.16-6 76.52-22 95.85-49 30.82-43 33.79-113.26 9.93-235.06-14.08-71.89-8.14-125.14 17.67-158.26 22.61-29 52.25-30.93 53.5-31a14 14 0 0 1 1.64 28c-1 .08-19.07 1.83-33.54 20.88-13.87 18.27-27.18 56.52-11.79 135 31.14 158.95 31.41 295.71-129.56 317.19a14 14 0 0 1-15.7-12.02Z"/><path fill="#68003c" d="M900 613.94a552.18 552.18 0 0 1-91.34-7.57 2 2 0 0 1 .75-3.93c1.84.35 185.59 34.28 260.28-44.7a2 2 0 1 1 2.91 2.75c-40.98 43.37-113.8 53.45-172.6 53.45Z"/><path fill="#e87700" d="M1153.5 956.79c-12.63 0-18.92-15.63-9.48-24.31.19-.17 23.48-22.46 21.35-55.47-2-30.74-24.5-61.86-66.93-92.49-71.16-51.39-91.17-112.63-95.43-155-4.63-46 7.79-79.73 8.32-81.14a14 14 0 0 1 26.22 9.8c-1.75 4.76-41.66 117.71 77.28 203.59 49.76 35.93 76.17 74.26 78.52 113.92 2.74 46.36-29 76.12-30.37 77.36a14 14 0 0 1-9.48 3.74Z"/></svg>